<?xml version="1.0" encoding="UTF-8" standalone="no"?>
<!-- Created with Inkscape (http://www.inkscape.org/) -->

<svg
   xmlns:dc="http://purl.org/dc/elements/1.1/"
   xmlns:cc="http://creativecommons.org/ns#"
   xmlns:rdf="http://www.w3.org/1999/02/22-rdf-syntax-ns#"
   xmlns:svg="http://www.w3.org/2000/svg"
   xmlns="http://www.w3.org/2000/svg"
   xmlns:sodipodi="http://sodipodi.sourceforge.net/DTD/sodipodi-0.dtd"
   xmlns:inkscape="http://www.inkscape.org/namespaces/inkscape"
   width="128"
   height="128"
   viewBox="0 0 128 128"
   id="svg2"
   version="1.1"
   inkscape:version="0.92.3 (2405546, 2018-03-11)"
   sodipodi:docname="LockButton.svg">
  <defs
     id="defs4" />
  <sodipodi:namedview
     id="base"
     pagecolor="#000000"
     bordercolor="#666666"
     borderopacity="1.0"
     inkscape:pageopacity="0"
     inkscape:pageshadow="2"
     inkscape:zoom="3.828125"
     inkscape:cx="64"
     inkscape:cy="64"
     inkscape:document-units="px"
     inkscape:current-layer="layer1"
     showgrid="false"
     units="px"
     inkscape:snap-bbox="true"
     inkscape:bbox-nodes="true"
     inkscape:window-width="1280"
     inkscape:window-height="657"
     inkscape:window-x="-8"
     inkscape:window-y="-8"
     inkscape:window-maximized="1"
     inkscape:object-nodes="true"
     inkscape:pagecheckerboard="true" />
  <metadata
     id="metadata7">
    <rdf:RDF>
      <cc:Work
         rdf:about="">
        <dc:format>image/svg+xml</dc:format>
        <dc:type
           rdf:resource="http://purl.org/dc/dcmitype/StillImage" />
        <dc:title />
      </cc:Work>
    </rdf:RDF>
  </metadata>
  <g
     inkscape:label="Layer 1"
     inkscape:groupmode="layer"
     id="layer1"
     transform="translate(0,-924.36216)">
    <rect
       style="opacity:1;fill:none;fill-opacity:1;fill-rule:evenodd;stroke:#ffffff;stroke-width:2;stroke-miterlimit:4;stroke-dasharray:none;stroke-opacity:1"
       id="rect4138"
       width="126"
       height="126"
       x="1"
       y="925.36218"
       ry="15.75" />
    <rect
       style="opacity:1;fill:none;fill-opacity:1;fill-rule:evenodd;stroke:#ffffff;stroke-width:5;stroke-miterlimit:4;stroke-dasharray:none;stroke-opacity:1"
       id="rect4140"
       width="47"
       height="46.999996"
       x="40.5"
       y="974.86218"
       ry="3.7452202" />
    <path
       inkscape:connector-curvature="0"
       d="m 46.5,972.37602 0,-9.33332 c 0,-10.26667 7.875,-18.66668 17.500003,-18.66668 9.624994,0 17.499997,8.40001 17.499997,18.66668 l 0,9.33332 -5.833332,0 0,-9.33332 c 0,-6.84443 -5.250003,-12.44445 -11.666665,-12.44445 -6.416671,0 -11.666669,5.60002 -11.666669,12.44445 l 0,9.33332"
       id="path4192"
       sodipodi:nodetypes="csssccsssc"
       style="fill:#ffffff" />
    <path
       sodipodi:nodetypes="csssccsssc"
       id="path4796"
       d="m 75.666666,972.37602 0,-9.33332 c 0,-10.26667 7.875,-18.66668 17.500003,-18.66668 9.624991,0 17.499991,8.40001 17.499991,18.66668 l 0,9.33332 -5.83333,0 0,-9.33332 c 0,-6.84443 -5.249995,-12.44445 -11.666661,-12.44445 -6.416671,0 -11.666669,5.60002 -11.666669,12.44445 l 0,9.33332"
       inkscape:connector-curvature="0"
       style="fill:#ffffff" />
  </g>
</svg>
