<?xml version="1.0" encoding="UTF-8" standalone="no"?>
<!-- Created with Inkscape (http://www.inkscape.org/) -->

<svg
   xmlns:dc="http://purl.org/dc/elements/1.1/"
   xmlns:cc="http://creativecommons.org/ns#"
   xmlns:rdf="http://www.w3.org/1999/02/22-rdf-syntax-ns#"
   xmlns:svg="http://www.w3.org/2000/svg"
   xmlns="http://www.w3.org/2000/svg"
   xmlns:sodipodi="http://sodipodi.sourceforge.net/DTD/sodipodi-0.dtd"
   xmlns:inkscape="http://www.inkscape.org/namespaces/inkscape"
   width="240"
   height="240"
   viewBox="0 0 63.5 63.500002"
   version="1.1"
   id="svg8"
   inkscape:version="0.92.3 (2405546, 2018-03-11)"
   sodipodi:docname="POVSprite.svg"
   inkscape:export-filename="POVSprite.png"
   inkscape:export-xdpi="96"
   inkscape:export-ydpi="96">
  <defs
     id="defs2" />
  <sodipodi:namedview
     id="base"
     pagecolor="#000000"
     bordercolor="#666666"
     borderopacity="1.0"
     inkscape:pageopacity="0"
     inkscape:pageshadow="2"
     inkscape:zoom="0.86620581"
     inkscape:cx="251.77495"
     inkscape:cy="82.438812"
     inkscape:document-units="px"
     inkscape:current-layer="layer1"
     showgrid="false"
     units="px"
     inkscape:window-width="1280"
     inkscape:window-height="657"
     inkscape:window-x="-8"
     inkscape:window-y="-8"
     inkscape:window-maximized="1"
     inkscape:pagecheckerboard="true"
     showguides="true"
     inkscape:guide-bbox="true"
     fit-margin-top="0.4"
     fit-margin-left="0"
     fit-margin-right="0"
     fit-margin-bottom="0" />
  <metadata
     id="metadata5">
    <rdf:RDF>
      <cc:Work
         rdf:about="">
        <dc:format>image/svg+xml</dc:format>
        <dc:type
           rdf:resource="http://purl.org/dc/dcmitype/StillImage" />
        <dc:title></dc:title>
      </cc:Work>
    </rdf:RDF>
  </metadata>
  <g
     inkscape:label="Layer 1"
     inkscape:groupmode="layer"
     id="layer1"
     transform="translate(2.6458333,-236.14582)">
    <path
       style="opacity:0.91000001;fill:#ffffff;fill-opacity:1;stroke:none;stroke-width:0.52916491;stroke-miterlimit:4;stroke-dasharray:none;stroke-opacity:1"
       d="m 29.104062,236.14582 a 26.458244,26.458249 0 0 0 -18.50217,7.57988 l 10.838579,10.83858 a 11.112462,11.112464 0 0 1 7.663591,-3.07267 11.112462,11.112464 0 0 1 7.65842,3.07887 l 10.858216,-10.85822 a 26.458244,26.458249 0 0 0 -18.516636,-7.56644 z"
       id="path4538"
       inkscape:connector-curvature="0" />
    <path
       style="opacity:0.91000001;fill:#ffffff;fill-opacity:1;stroke:none;stroke-width:0.52916491;stroke-miterlimit:4;stroke-dasharray:none;stroke-opacity:1"
       d="m 4.9216375,249.37824 a 26.458246,26.458249 0 0 0 -7.5674708,18.51768 26.458246,26.458249 0 0 0 7.5809067,18.5032 L 15.772619,275.56054 a 11.112462,11.112464 0 0 1 -3.072669,-7.66462 11.112462,11.112464 0 0 1 3.079903,-7.65946 z"
       id="path4536"
       inkscape:connector-curvature="0" />
    <path
       style="opacity:0.91000001;fill:#ffffff;fill-opacity:1;stroke:none;stroke-width:0.52916491;stroke-miterlimit:4;stroke-dasharray:none;stroke-opacity:1"
       d="m 53.274295,249.39258 -10.83858,10.83858 a 11.112462,11.112464 0 0 1 3.072672,7.66464 11.112462,11.112464 0 0 1 -3.077838,7.65842 l 10.857182,10.85718 a 26.458246,26.458249 0 0 0 7.566437,-18.5156 26.458246,26.458249 0 0 0 -7.579873,-18.50322 z"
       id="path4534"
       inkscape:connector-curvature="0" />
    <path
       style="opacity:0.91000001;fill:#ffffff;fill-opacity:1;stroke:none;stroke-width:0.52916491;stroke-miterlimit:4;stroke-dasharray:none;stroke-opacity:1"
       d="m 21.444704,281.22118 -10.857182,10.85716 a 26.458244,26.458249 0 0 0 18.516638,7.56748 26.458244,26.458249 0 0 0 18.504236,-7.5809 l -10.83858,-10.83858 a 11.112462,11.112464 0 0 1 -7.665656,3.07371 11.112462,11.112464 0 0 1 -7.659456,-3.07887 z"
       id="path815"
       inkscape:connector-curvature="0" />
    <ellipse
       cy="267.8959"
       cx="29.104061"
       id="circle819"
       style="opacity:0.91000001;fill:#ffffff;fill-opacity:1;stroke:none;stroke-width:0.52916485;stroke-miterlimit:4;stroke-dasharray:none;stroke-opacity:1"
       rx="10.583299"
       ry="10.583301" />
  </g>
</svg>
