<?xml version="1.0" encoding="UTF-8" standalone="no"?>
<!DOCTYPE svg PUBLIC "-//W3C//DTD SVG 1.1//EN" "http://www.w3.org/Graphics/SVG/1.1/DTD/svg11.dtd">
<svg width="100%" height="100%" viewBox="0 0 150 150" version="1.1" xmlns="http://www.w3.org/2000/svg" xmlns:xlink="http://www.w3.org/1999/xlink" xml:space="preserve" xmlns:serif="http://www.serif.com/" style="fill-rule:evenodd;clip-rule:evenodd;stroke-linejoin:round;stroke-miterlimit:2;">
    <g transform="matrix(1.23066,-1.66533e-16,1.66533e-16,1.23066,-6.95892,-12.7557)">
        <circle cx="66.597" cy="71.308" r="60.943" style="fill:white;"/>
    </g>
    <g id="Layer-1" serif:id="Layer 1" transform="matrix(1,0,0,1,982.538,-175.026)">
        <g transform="matrix(0.255568,-0.0684792,0.0684792,0.255568,-1223.22,-717.91)">
            <g id="g896">
                <g id="g877">
                    <path id="path873" d="M188.897,3618.38L93.87,3667.52L93.949,3765.68L189.939,3958.53L284.083,3765.56L284.003,3667.4L188.897,3618.38L188.897,3618.38ZM188.976,3633.36L269.922,3675.15L269.922,3758.73L188.976,3800.53L108.03,3758.73L108.03,3675.15L188.976,3633.36Z" style="fill:none;fill-rule:nonzero;stroke:black;stroke-width:3.78px;"/>
                </g>
            </g>
        </g>
        <g id="g1024" transform="matrix(0.136261,0,0,0.136261,-934.73,202.375)">
            <path id="path987" d="M155.565,207.874C149.575,194.127 135.94,185.196 120.945,185.197L68.031,185.197C53.035,185.192 39.398,194.125 33.411,207.874" style="fill:none;fill-rule:nonzero;stroke:black;stroke-width:7.56px;stroke-linecap:round;stroke-miterlimit:4;"/>
            <path id="line989" d="M158.74,222.992L30.236,222.992" style="fill:none;fill-rule:nonzero;stroke:black;stroke-width:7.56px;stroke-linecap:round;stroke-miterlimit:4;"/>
            <rect id="rect991" x="79.366" y="170.079" width="30.234" height="15.118" style="fill:none;stroke:black;stroke-width:7.56px;stroke-linecap:round;stroke-miterlimit:4;"/>
            <rect id="rect993" x="86.924" y="151.181" width="15.117" height="18.898" style="fill:none;stroke:black;stroke-width:7.56px;stroke-linecap:round;stroke-miterlimit:4;"/>
            <path id="path995" d="M177.134,44.031L177.134,44.069C177.134,46.718 174.955,48.897 172.306,48.897C171.67,48.897 171.04,48.772 170.452,48.527L164.096,45.883C162.637,45.277 161.064,44.993 159.486,45.052C155.01,45.164 151.001,47.911 149.282,52.044L141.61,69.317L118.486,121.341C117.891,122.68 117.584,124.129 117.584,125.594C117.584,131.337 122.309,136.063 128.052,136.063L128.073,136.063C132.08,135.979 135.539,138.977 136.026,142.954C136.043,143.16 136.051,143.366 136.051,143.573C136.051,147.726 132.65,151.152 128.496,151.181L60.892,151.181C56.886,151.265 53.426,148.267 52.94,144.29C52.923,144.084 52.915,143.877 52.915,143.671C52.915,139.517 56.316,136.092 60.47,136.063L64.228,136.063C68.368,136.063 72.135,133.607 73.806,129.819L112.245,42.671C113.173,40.21 115.384,38.45 117.99,38.098C120.755,37.828 123.157,36.052 124.226,33.487C125.137,31.262 124.946,28.732 123.71,26.669C121.9,23.335 121.757,19.338 123.324,15.883L125.435,10.772C127.194,6.552 131.338,3.79 135.909,3.79C138.782,3.79 141.55,4.881 143.651,6.841L175.509,36.586C177.54,38.485 178.189,41.458 177.134,44.031Z" style="fill:none;fill-rule:nonzero;stroke:black;stroke-width:7.56px;stroke-linecap:round;stroke-miterlimit:4;"/>
            <path id="path997" d="M158.74,45.128L158.74,65.915C158.731,70.064 155.315,73.473 151.165,73.473C150.546,73.473 149.93,73.397 149.329,73.247L140.825,71.131" style="fill:none;fill-rule:nonzero;stroke:black;stroke-width:7.56px;stroke-linecap:round;stroke-miterlimit:4;"/>
            <path id="path999" d="M106.054,56.693L116.51,56.693C118.583,56.693 120.289,58.399 120.289,60.472C120.289,60.997 120.18,61.516 119.968,61.997L99.98,107.351C99.377,108.719 98.016,109.606 96.521,109.606L82.734,109.606" style="fill:none;fill-rule:nonzero;stroke:black;stroke-width:7.56px;stroke-linecap:round;stroke-miterlimit:4;"/>
            <path id="path1001" d="M30.236,207.874L158.74,207.874C164.96,207.874 170.079,212.992 170.079,219.213L170.079,222.992L18.898,222.992L18.898,219.213C18.898,212.992 24.016,207.874 30.236,207.874Z" style="fill:none;fill-rule:nonzero;stroke:black;stroke-width:7.56px;stroke-linecap:round;stroke-miterlimit:4;"/>
        </g>
        <g transform="matrix(0.264583,0,0,0.264583,-927.01,246.163)">
            <g id="g1140">
                <g id="g1128">
                    <g id="ellipse1088" transform="matrix(0.707107,-0.707107,0.707107,0.707107,25.9183,143.575)">
                        <ellipse cx="186.27" cy="40.502" rx="19.338" ry="34.809" style="fill:none;stroke:black;stroke-width:7.56px;stroke-linecap:round;stroke-miterlimit:4;"/>
                    </g>
                    <circle id="circle1090" cx="120.633" cy="106.138" r="19.338" style="fill:none;stroke:black;stroke-width:7.56px;stroke-linecap:round;stroke-miterlimit:4;"/>
                    <path id="line1092" d="M143.622,81.525" style="fill:none;fill-rule:nonzero;stroke:black;stroke-width:7.56px;stroke-linecap:round;stroke-miterlimit:4;"/>
                    <path id="line1094" d="M96.02,130.752" style="fill:none;fill-rule:nonzero;stroke:black;stroke-width:7.56px;stroke-linecap:round;stroke-miterlimit:4;"/>
                    <path id="path1096" d="M213.829,108.208L206.992,108.208C206.989,108.208 206.986,108.208 206.982,108.208C202.757,108.208 199.28,104.731 199.28,100.505L199.28,100.222C199.523,95.631 196.225,91.549 191.685,90.823L191.658,90.796C188.294,90.119 184.806,91.179 182.387,93.613L63.201,212.798C56.676,219.323 47.816,222.993 38.587,222.993C19.492,222.993 3.778,207.28 3.778,188.184C3.778,178.956 7.448,170.096 13.974,163.57L133.159,44.385C135.593,41.966 136.652,38.478 135.976,35.114L135.949,35.087C135.222,30.547 131.14,27.249 126.549,27.492L126.276,27.492C126.273,27.492 126.27,27.492 126.266,27.492C122.041,27.492 118.564,24.015 118.564,19.789C118.564,19.786 118.564,19.783 118.564,19.78L118.564,12.943C118.572,8.858 121.813,5.447 125.893,5.23L134.781,4.273C137.889,3.902 141.017,3.715 144.147,3.715C187.435,3.715 223.056,39.336 223.056,82.625C223.056,85.755 222.87,88.882 222.499,91.991L221.541,100.879C221.325,104.958 217.914,108.2 213.829,108.208Z" style="fill:none;fill-rule:nonzero;stroke:black;stroke-width:7.56px;stroke-linecap:round;stroke-miterlimit:4;"/>
                    <path id="path1098" d="M196.69,68.206C202.351,61.122 199.097,47.858 189.005,37.767C178.913,27.675 165.649,24.421 158.566,30.082" style="fill:none;fill-rule:nonzero;stroke:black;stroke-width:7.56px;stroke-linecap:round;stroke-miterlimit:4;"/>
                    <path id="line1100" d="M131.573,45.971L180.8,95.199" style="fill:none;fill-rule:nonzero;stroke:black;stroke-width:7.56px;stroke-linecap:round;stroke-miterlimit:4;"/>
                    <path id="path1102" d="M52.947,167.53L41.487,169.933C39.367,170.463 37.869,172.382 37.869,174.567C37.869,175.957 38.475,177.279 39.529,178.186L48.586,187.243C49.493,188.296 50.815,188.903 52.205,188.903C54.39,188.903 56.309,187.404 56.839,185.285L59.242,173.824C59.297,173.514 59.324,173.2 59.324,172.885C59.324,169.902 56.87,167.448 53.887,167.448C53.572,167.448 53.258,167.475 52.947,167.53Z" style="fill:none;fill-rule:nonzero;stroke:black;stroke-width:7.56px;stroke-linecap:round;stroke-miterlimit:4;"/>
                    <path id="line1104" d="M24.913,185.449L41.322,201.859" style="fill:none;fill-rule:nonzero;stroke:black;stroke-width:7.56px;stroke-linecap:round;stroke-miterlimit:4;"/>
                </g>
            </g>
        </g>
    </g>
</svg>
