<?xml version="1.0" encoding="UTF-8" standalone="no"?>
<svg
   xmlns:dc="http://purl.org/dc/elements/1.1/"
   xmlns:cc="http://creativecommons.org/ns#"
   xmlns:rdf="http://www.w3.org/1999/02/22-rdf-syntax-ns#"
   xmlns:svg="http://www.w3.org/2000/svg"
   xmlns="http://www.w3.org/2000/svg"
   xmlns:sodipodi="http://sodipodi.sourceforge.net/DTD/sodipodi-0.dtd"
   xmlns:inkscape="http://www.inkscape.org/namespaces/inkscape"
   version="1.1"
   viewBox="0 0 100 100"
   x="0px"
   y="0px"
   id="svg38"
   sodipodi:docname="6DOFController.svg"
   width="100"
   height="100"
   inkscape:version="0.92.3 (2405546, 2018-03-11)"
   inkscape:export-filename="6DOFController.png"
   inkscape:export-xdpi="192"
   inkscape:export-ydpi="192">
  <metadata
     id="metadata44">
    <rdf:RDF>
      <cc:Work
         rdf:about="">
        <dc:format>image/svg+xml</dc:format>
        <dc:type
           rdf:resource="http://purl.org/dc/dcmitype/StillImage" />
        <dc:title></dc:title>
      </cc:Work>
    </rdf:RDF>
  </metadata>
  <defs
     id="defs42" />
  <sodipodi:namedview
     pagecolor="#000000"
     bordercolor="#666666"
     borderopacity="1"
     objecttolerance="10"
     gridtolerance="10"
     guidetolerance="10"
     inkscape:pageopacity="0"
     inkscape:pageshadow="2"
     inkscape:window-width="2560"
     inkscape:window-height="1377"
     id="namedview40"
     showgrid="false"
     inkscape:pagecheckerboard="true"
     inkscape:zoom="3.1466667"
     inkscape:cx="30"
     inkscape:cy="37.5"
     inkscape:window-x="-8"
     inkscape:window-y="-8"
     inkscape:window-maximized="1"
     inkscape:current-layer="svg38" />
  <g
     id="g32"
     style="fill:#ffffff"
     transform="matrix(1.6666667,0,0,1.6666666,-9.8995502e-8,4e-6)">
    <path
       d="m 30,34 v 0 c -2.20914,0.0032 -4.00256,-1.78514 -4.00572,-3.99427 -0.0032,-2.20914 1.78514,-4.00256 3.99427,-4.00572 1.57839,-0.0023 3.01052,0.923874 3.65597,2.36425 v 0 c 0.238753,0.511995 0.360197,1.07083 0.35547,1.63574 v -2.3e-5 c -0.0083,2.2057 -1.79428,3.99173 -3.99998,4.00002 z m 0,-6 v 0 c -1.10107,0.0084 -1.9916,0.898928 -2,2 v -3e-6 c 4.23e-4,0.280851 0.06138,0.558312 0.178709,0.81348 v 0 c 0.455841,1.006 1.6409,1.45199 2.6469,0.996153 0.711155,-0.32224 1.16975,-1.02889 1.17439,-1.80963 v -6e-6 c 0.0036,-0.273939 -0.05412,-0.545215 -0.168953,-0.793949 v 0 c -0.31574,-0.73076 -1.035,-1.20451 -1.83105,-1.20604 z"
       id="path2"
       inkscape:connector-curvature="0"
       style="fill:#ffffff"
       sodipodi:nodetypes="ccccccccccccccccccccccc" />
    <path
       d="m 24.999,34.3819 v 0 c -0.333681,3.23e-4 -0.66507,-0.05513 -0.98047,-0.16406 l -22,-7.61523 h 2e-7 C 0.8104302,26.184151 1.70205e-4,25.04616 2.049996e-7,23.76764 V 3.0000401 l -3.1767e-10,4.32e-5 C 4.5486793e-7,1.3431833 1.3431902,-6.7256543e-6 3.0000902,-6.7256543e-6 3.3341022,-6.6752198e-6 3.6657702,0.05577117 3.9814092,0.16502527 L 25.981409,7.7802553 v -1e-7 c 1.20814,0.418445 2.01844,1.55647 2.01859,2.8350198 v 20.7676 -1.03e-4 c 5.72e-4,1.65579 -1.34125,2.99853 -2.99703,2.9991 -0.0013,0 -0.0026,0 -0.0039,-2e-6 z M 2.9961,1.9991 v 0 C 2.445485,2.0025 2.000719,2.449445 2.00001,3.00007 v 20.7676 -1.61e-4 c 10e-8,0.425721 0.26958,0.80475 0.671728,0.944448 l 22.001,7.61523 v 0 c 0.521405,0.181079 1.09088,-0.09481 1.27196,-0.616215 0.03664,-0.105496 0.05533,-0.216386 0.05531,-0.328062 v -20.7676 1.58e-4 c 0,-0.425718 -0.269577,-0.8047463 -0.671721,-0.9444463 l -22.001,-7.61523 h -1e-7 C 3.2208609,2.0184278 3.1088979,1.9992624 2.9961,1.9991 Z M 14,21.1915 v 0 c -2.20914,0.0032 -4.0025599,-1.78514 -4.0057199,-3.99427 -0.00316,-2.20914 1.7851399,-4.00256 3.9942699,-4.00572 1.57839,-0.0023 3.01052,0.923874 3.65597,2.36425 v 0 c 0.238753,0.511995 0.360197,1.07083 0.35547,1.63574 v -2.3e-5 c -0.0083,2.2057 -1.79428,3.99173 -3.99998,4.00002 z m 0,-6 v 0 c -1.10107,0.0084 -1.9916,0.898928 -2,2 v -3e-6 c 4.23e-4,0.280851 0.06138,0.558312 0.178709,0.81348 v 0 c 0.455841,1.006 1.6409,1.45199 2.6469,0.996153 0.711155,-0.32224 1.16975,-1.02889 1.17439,-1.80963 v -6e-6 c 0.0036,-0.273939 -0.05412,-0.545215 -0.168953,-0.793949 v 0 c -0.31574,-0.73076 -1.035,-1.20451 -1.83105,-1.20604 z"
       transform="translate(16,12.8085)"
       id="path4"
       inkscape:connector-curvature="0"
       style="fill:#ffffff" />
    <path
       d="m 1.00165,10.9044 h -10e-8 C 0.44936595,10.905055 0.00111995,10.457871 4.5994697e-4,9.905587 -7.4520334e-6,9.51148 0.23104595,9.153852 0.59051495,8.99229 L 10.860015,4.37315 20.886415,0.21104 v -3e-8 c 0.510614,-0.211006003816 1.0956,0.0318752 1.30661,0.54249 C 22.403474,1.262798 22.162461,1.84636 21.653982,2.05871 l -10,4.15039 -10.2432,4.60741 h 1e-7 c -0.128661,0.05785 -0.268112,0.0878 -0.40918,0.08789 z"
       transform="translate(31.7298,18.8652)"
       id="path6"
       inkscape:connector-curvature="0"
       style="fill:#ffffff" />
    <path
       d="m 1.0006,10.9096 v 0 C 0.44824302,10.909785 3.2001632e-4,10.462161 1.4001632e-4,9.909804 4.8263214e-6,9.505452 0.24336302,9.1408 0.61681402,8.98577 L 10.616814,4.83538 20.860014,0.22796 v 10e-9 c 0.503095,-0.2279679989734 1.09574,-0.004933 1.32371,0.498162 0.227968,0.50309499 0.0049,1.09573999 -0.498162,1.32370999 -0.0017,7.88e-4 -0.0035,0.00157 -0.0052,0.00235 l -10.2695,4.61914 -10.0264,4.16211 h -1e-7 c -0.12172,0.05024 -0.252111,0.07612 -0.38379,0.07617 z"
       transform="translate(5.9994,30.0904)"
       id="path8"
       inkscape:connector-curvature="0"
       style="fill:#ffffff" />
    <path
       d="m 4.00888,8.00225 h 10e-8 C 1.7997401,8.0054104 0.00632013,6.21711 0.00316013,4.00798 -2.33059e-7,1.79884 1.7883001,0.00542 3.9974301,0.00226 c 1.57839,-0.00225802018 3.01052,0.923874 3.65597,2.36425 l -10e-8,-2e-7 c 0.238753,0.511995 0.360197,1.07083 0.35547,1.63574 l 10e-8,-2.28e-5 c -0.00827,2.2057 -1.79428,3.99173 -3.99998,4.00002 z m 0,-6 v 0 c -1.10107,0.0084 -1.9916,0.898928 -2,2 v -2.7e-6 c 4.227e-4,0.280851 0.061377,0.558312 0.178709,0.81348 l -10e-8,-2e-7 c 0.455841,1.006 1.6409,1.45199 2.6469,0.996153 0.711155,-0.32224 1.16975,-1.02889 1.17439,-1.80963 l 1e-7,-6.4e-6 c 0.00361,-0.273939 -0.05412,-0.545215 -0.168953,-0.793949 v 10e-8 c -0.31574,-0.73076 -1.035,-1.20451 -1.83105,-1.20604 z"
       transform="translate(25.9911,25.9978)"
       id="path10"
       inkscape:connector-curvature="0"
       style="fill:#ffffff" />
    <path
       d="m 21.4058,10.9058 v 0 c -0.141068,-8.9e-5 -0.280519,-0.03004 -0.40918,-0.08789 L 10.72712,6.19877 0.75349004,2.0601 h 8e-8 C 0.24287612,1.849094 -4.8793083e-6,1.264106 0.21100012,0.75349003 c 0.211006,-0.510614 0.79599398,-0.7534949960971 1.30660998,-0.54249 0.00115,4.7508e-4 0.0023,9.523e-4 0.00345,0.001432 L 11.52106,4.362822 l 10.2959,4.63086 v 0 c 0.503745,0.226406 0.728572,0.81831 0.502167,1.32205 -0.161562,0.35947 -0.51919,0.590523 -0.913297,0.590055 z"
       transform="translate(5.86271,18.8637)"
       id="path12"
       inkscape:connector-curvature="0"
       style="fill:#ffffff" />
    <path
       d="m 21.4058,10.9058 v 0 c -0.131679,-5.5e-5 -0.26207,-0.02593 -0.38379,-0.07617 l -10,-4.15039 L 0.72610995,2.04838 h -3e-8 C 0.22301492,1.820412 -1.9077886e-5,1.227769 0.22794792,0.72466999 0.45499292,0.22361199 1.0440789,-1.2011054e-5 1.5464279,0.22415899 L 11.815928,4.843299 l 9.97363,4.13867 v 0 c 0.510145,0.211777 0.752021,0.79701 0.540244,1.30716 -0.155031,0.373451 -0.519683,0.616809 -0.924034,0.616674 z"
       transform="translate(31.5942,30.0942)"
       id="path14"
       inkscape:connector-curvature="0"
       style="fill:#ffffff" />
    <path
       d="m 1,23 v 0 C 0.448036,23.00032 3.2000041e-4,22.553125 0,22.00116 -2.2411944e-7,22.000773 -2.2411944e-7,22.000386 0,22 v -21.00000034 1.5e-7 C -8.2985598e-8,0.44771481 0.447715,-1.8900423e-7 1,-1.8900423e-7 1.552285,-2.7239693e-7 2,0.44771481 2,0.99999981 c 0,0 0,0 0,0 V 22 v -1.8e-5 c 3.301e-4,0.551964 -0.446858,0.999687 -0.998822,1.00002 -3.868e-4,1e-6 -7.736e-4,1e-6 -0.00116,0 z"
       transform="translate(29,32)"
       id="path16"
       inkscape:connector-curvature="0"
       style="fill:#ffffff" />
    <path
       d="m 1,23 v 0 C 0.448036,23.00032 3.2000041e-4,22.553125 0,22.00116 -2.2411944e-7,22.000773 -2.2411944e-7,22.000386 0,22 v -21.00000034 1.5e-7 C -8.2985598e-8,0.44771481 0.447715,-1.8900424e-7 1,-1.8900424e-7 1.552285,-2.7239694e-7 2,0.44771481 2,0.99999981 c 0,0 0,0 0,0 V 22 v -1.8e-5 c 3.301e-4,0.551964 -0.446858,0.999687 -0.998822,1.00002 -3.868e-4,1e-6 -7.736e-4,1e-6 -0.00116,0 z"
       transform="translate(29,5)"
       id="path18"
       inkscape:connector-curvature="0"
       style="fill:#ffffff" />
    <path
       d="m 7.13409,6.10511 v 0 C 6.818824,6.105968 6.521783,5.957448 6.33331,5.70472 L 4.13309,2.77211 1.93289,5.70472 h -1e-7 C 1.6029809,6.147372 0.97669695,6.238768 0.53404995,5.90886 0.09139795,5.578951 1.9456295e-6,4.952667 0.32990995,4.51002 c 0.001122,-0.00151 0.002248,-0.00301 0.003378,-0.00451 L 3.3332879,0.50551004 v 9e-8 c 0.363039,-0.44172 1.01542,-0.5055040008771 1.45715,-0.142465 0.052007,0.0427435 0.099722,0.0904577 0.142465,0.142465 l 3,3.99999997 v 10e-8 c 0.331096,0.442103 0.241108,1.0689 -0.200994,1.4 -0.172549,0.129225 -0.382235,0.199236 -0.597809,0.199601 z"
       transform="translate(25.8669,3.89489)"
       id="path20"
       inkscape:connector-curvature="0"
       style="fill:#ffffff" />
    <path
       d="m 4.13096,6.13097 v 0 C 3.816185,6.1308969 3.519837,5.982541 3.33116,5.73058 l -2.99999997,-4 8e-8,1e-7 C 4.1094242e-6,1.2888601 0.08963511,0.66232011 0.53135511,0.33116011 0.97307511,4.1081416e-6 1.5996151,0.08963511 1.9307751,0.53135511 l 2.20019,2.93260999 2.2002,-2.93261999 1e-7,-1.1e-7 c 0.331156,-0.44172 0.957695,-0.5313499999934 1.39942,-0.200195 0.44172,0.331156 0.53135,0.957695 0.200195,1.39942 l -3,4 v 0 c -0.188677,0.251968 -0.48503,0.400328 -0.79981,0.4004 z"
       transform="translate(25.869,49.869)"
       id="path22"
       inkscape:connector-curvature="0"
       style="fill:#ffffff" />
    <path
       d="m 3.37885,7.4483 v 0 C 2.999707,7.4486977 2.65294,7.234665 2.48334,6.89557 l -2.23631996,-4.47168 -5e-8,-1e-7 c -0.2470170033929,-0.493563 -0.0471517,-1.09392 0.446412,-1.34094 0.0850746,-0.042578 0.175793,-0.07279 0.269409,-0.0897208 L 5.881791,0.0986991 v 0 c 0.543117,-0.0986988003956 1.06341,0.261573 1.16211,0.80469 0.098699,0.543117 -0.261573,1.06341 -0.80469,1.16211 l -3.60645,0.65625 1.63965,3.2793 v 0 c 0.24707,0.493882 0.046989,1.09454 -0.446893,1.34161 -0.138679,0.069376 -0.291593,0.105547 -0.446657,0.105657 z"
       transform="translate(5.85845,17.9179)"
       id="path24"
       inkscape:connector-curvature="0"
       style="fill:#ffffff" />
    <path
       d="m 3.76374,7.44832 v 0 C 3.211505,7.4479316 2.764145,6.999942 2.764533,6.44771 2.7646421,6.292646 2.8008138,6.139732 2.87019,6.001053 l 1.63965,-3.2793 -3.60644998,-0.65625 v 0 C 0.36027302,1.9668042 1.0189451e-6,1.44651 0.09870002,0.903393 0.19739882,0.360276 0.71769302,3.9995187e-6 1.26081,0.098703 l 4.91895,0.89453 1e-7,10e-9 C 6.7228751,1.0914598 7.0835281,1.61137 6.9853011,2.154483 6.9683699,2.2480986 6.9381581,2.338817 6.8955802,2.423892 l -2.23634,4.4717 v 0 c -0.169598,0.339092 -0.516361,0.553124 -0.8955,0.55273 z"
       transform="translate(46.999,17.9179)"
       id="path26"
       inkscape:connector-curvature="0"
       style="fill:#ffffff" />
    <path
       d="m 6.00241,7.51046 v 0 C 5.94212,7.5107051 5.881945,7.50515 5.82272,7.49386 L 0.90377001,6.59933 h -5e-8 C 0.36065496,6.501103 1.9582635e-6,5.981193 0.09822896,5.43808 0.11516016,5.344464 0.14537196,5.253746 0.18794986,5.168671 L 2.4242899,0.69698099 v -1.1e-7 c 0.245447,-0.494821 0.845552,-0.6969779958155 1.34037,-0.451531 0.494821,0.245447 0.696978,0.84555202 0.451531,1.34037002 -9.421e-4,0.0019 -0.00189,0.0038 -0.00284,0.00569 l -1.63965,3.2793 3.60645,0.65625 h 1e-7 c 0.543239,0.098873 0.903468,0.619408 0.804595,1.16265 -0.086422,0.474825 -0.499709,0.820132 -0.982335,0.820753 z"
       transform="translate(5.91751,34.4895)"
       id="path28"
       inkscape:connector-curvature="0"
       style="fill:#ffffff" />
    <path
       d="m 0.999199,7.51076 h -5e-8 C 0.44703595,7.5100445 -4.62315e-8,7.061848 7.1495377e-4,6.50969 0.0013403,6.027068 0.34664695,5.613785 0.82146895,5.527365 l 3.60645005,-0.65625 -1.63965,-3.2793 -1e-7,-1e-7 c -0.248589,-0.49325 -0.050251,-1.09462996 0.442998,-1.34321996 0.49325,-0.2485889982982 1.09463,-0.0502513 1.34322,0.442998 9.542e-4,0.001893 0.0019,0.00379 0.00284,0.005689 l 2.23633,4.47167996 v 10e-8 c 0.247017,0.493563 0.047152,1.09392 -0.446411,1.34094 -0.085075,0.042578 -0.175793,0.07279 -0.269409,0.089721 l -4.91895,0.89453 h 1e-7 C 1.119662,7.505443 1.059488,7.511005 0.99919705,7.510763 Z"
       transform="translate(47.0809,34.4892)"
       id="path30"
       inkscape:connector-curvature="0"
       style="fill:#ffffff" />
  </g>
</svg>
