<?xml version="1.0" encoding="UTF-8" standalone="no"?>
<!-- Generator: Adobe Illustrator 16.0.0, SVG Export Plug-In . SVG Version: 6.00 Build 0)  -->

<svg
   xmlns:dc="http://purl.org/dc/elements/1.1/"
   xmlns:cc="http://creativecommons.org/ns#"
   xmlns:rdf="http://www.w3.org/1999/02/22-rdf-syntax-ns#"
   xmlns:svg="http://www.w3.org/2000/svg"
   xmlns="http://www.w3.org/2000/svg"
   xmlns:sodipodi="http://sodipodi.sourceforge.net/DTD/sodipodi-0.dtd"
   xmlns:inkscape="http://www.inkscape.org/namespaces/inkscape"
   version="1.1"
   id="Layer_2"
   x="0px"
   y="0px"
   width="128"
   height="128"
   viewBox="0 0 128 128"
   enable-background="new 0 0 960 960"
   xml:space="preserve"
   sodipodi:docname="Chaff.svg"
   inkscape:version="0.92.2 5c3e80d, 2017-08-06"
   inkscape:export-filename="Chaff.png"
   inkscape:export-xdpi="96"
   inkscape:export-ydpi="96"><metadata
     id="metadata47"><rdf:RDF><cc:Work
         rdf:about=""><dc:format>image/svg+xml</dc:format><dc:type
           rdf:resource="http://purl.org/dc/dcmitype/StillImage" /><dc:title></dc:title></cc:Work></rdf:RDF></metadata><defs
     id="defs45" /><sodipodi:namedview
     pagecolor="#000000"
     bordercolor="#666666"
     borderopacity="1"
     objecttolerance="10"
     gridtolerance="10"
     guidetolerance="10"
     inkscape:pageopacity="0"
     inkscape:pageshadow="2"
     inkscape:window-width="1440"
     inkscape:window-height="852"
     id="namedview43"
     showgrid="false"
     inkscape:pagecheckerboard="true"
     inkscape:zoom="3.828125"
     inkscape:cx="31.477552"
     inkscape:cy="64"
     inkscape:window-x="0"
     inkscape:window-y="0"
     inkscape:window-maximized="1"
     inkscape:current-layer="g1147"
     fit-margin-top="0"
     fit-margin-left="0"
     fit-margin-right="0"
     fit-margin-bottom="0"
     showguides="false" /><g
     id="g12"
     transform="translate(0,-832)" /><g
     id="g14"
     transform="translate(0,-832)" /><g
     id="g16"
     transform="translate(0,-832)" /><g
     id="g18"
     transform="translate(0,-832)" /><g
     id="g20"
     transform="translate(0,-832)" /><g
     id="g22"
     transform="translate(0,-832)" /><g
     id="g24"
     transform="translate(0,-832)" /><g
     id="g26"
     transform="translate(0,-832)" /><g
     id="g28"
     transform="translate(0,-832)" /><g
     id="g30"
     transform="translate(0,-832)" /><g
     id="g32"
     transform="translate(0,-832)" /><g
     id="g34"
     transform="translate(0,-832)" /><g
     id="g36"
     transform="translate(0,-832)" /><g
     id="g38"
     transform="translate(0,-832)" /><g
     id="g40"
     transform="translate(0,-832)" /><g
     id="g894"
     transform="translate(0,-2.6171875e-6)"><g
       inkscape:label="Layer 1"
       id="layer1"
       transform="translate(0,-924.36218)"><rect
         style="opacity:1;fill:none;fill-opacity:1;fill-rule:evenodd;stroke:#ffffff;stroke-width:2;stroke-miterlimit:4;stroke-dasharray:none;stroke-opacity:1"
         id="rect4138"
         width="126"
         height="126"
         x="1"
         y="925.36218"
         ry="15.75" /></g></g><g
     id="g1147"
     transform="translate(-8.1897532,-27.995949)"><g
       id="g1102"
       display="none"
       style="display:none"><rect
         id="rect1100"
         height="362.37399"
         width="1426.3051"
         display="inline"
         y="-242.37399"
         x="-362.37399"
         style="display:inline;fill:#000000" /></g><g
       id="g1674"
       transform="translate(-19.260924,6.3017819)"><g
         id="g1640"
         transform="translate(36.226186,35.694167)"
         style="fill:#ffffff"><g
           id="g1638"
           style="fill:#ffffff"><path
             id="path1608"
             d="m 36.983841,43.858787 3.521961,-3.066165 4.522949,1.16296 -1.828144,-4.297268 2.41703,-3.804928 c 0.454445,2.184746 1.12444,4.331593 2.148819,6.319363 1.193638,2.319992 2.763512,4.516098 4.874554,6.030349 -1.495735,-2.089744 -2.563141,-4.352947 -3.435482,-6.663929 -0.844814,-2.32283 -1.44302,-4.716587 -1.823883,-7.151272 l -0.257038,-1.833759 c -0.09383,-0.610924 -0.0837,-1.233761 -0.147839,-1.849871 -0.160923,-1.233945 -0.0934,-2.478324 -0.16296,-3.728628 -0.04827,-0.626665 0.0237,-1.249441 0.02432,-1.878143 l 0.02858,-1.892586 c 0.06334,-1.261909 0.169014,-2.526041 0.168148,-3.825418 -0.43858,1.206045 -0.809937,2.441967 -1.152031,3.690111 -0.22889,1.264747 -0.533272,2.533756 -0.645371,3.825851 -0.278824,2.581719 -0.239197,5.210476 0.147038,7.805222 0.05895,0.343208 0.137714,0.683578 0.207405,1.025364 l -4.538933,0.400432 -2.974808,-3.599001 -1.047401,4.550108 -4.343197,1.718022 4.004925,2.401966 z m 1.779251,-7.29084 0.366913,-1.593082 1.040985,1.260242 1.628635,-0.143703 -0.876541,1.380241 0.64,1.504193 -1.583699,-0.407406 -1.232589,1.073086 -0.101727,-1.631108 -1.402466,-0.84148 z"
             inkscape:connector-curvature="0"
             style="fill:#ffffff" /><path
             id="path1610"
             d="m 43.344807,16.111223 4.57381,-0.944688 3.370362,3.232582 0.51506,-4.641466 4.11554,-2.206906 L 51.66478,9.6268005 50.837128,5.0302729 47.692448,8.4826068 43.066288,7.8490291 45.377392,11.9063 Z m 5.126896,-5.480475 1.10123,-1.2083904 0.289383,1.6088824 1.489376,0.673579 -1.440983,0.772836 -0.180244,1.624193 -1.179749,-1.130861 -1.600982,0.330369 0.711109,-1.472093 -0.808887,-1.420243 z"
             inkscape:connector-curvature="0"
             style="fill:#ffffff" /><path
             id="path1612"
             d="m 81.635048,36.984242 -2.595543,-3.88147 -1.502716,4.420727 -4.494301,1.26913 3.740723,2.795052 -0.182717,4.666653 3.8153,-2.693817 4.381218,1.615303 -1.382713,-4.460728 2.890366,-3.667149 z m 0.0163,4.876033 -1.533821,-0.565429 -1.335304,0.94271 0.06419,-1.633575 -1.310112,-0.97876 1.573822,-0.444442 0.525917,-1.54765 0.908645,1.359005 1.63456,0.02222 -1.011848,1.283947 z"
             inkscape:connector-curvature="0"
             style="fill:#ffffff" /><path
             id="path1614"
             d="m 37.365566,60.472557 1.800984,-4.308628 4.570846,-0.959007 -3.541221,-3.043942 0.50074,-4.642948 -3.989617,2.426659 -4.260727,-1.911103 1.074563,4.544674 -3.133816,3.462212 4.654304,0.381233 z m -2.0074,-8.916019 1.491352,0.66864 1.397034,-0.849381 -0.175801,1.625675 1.239994,1.065674 -1.599994,0.3358 -0.630616,1.507653 -0.813823,-1.417775 -1.629132,-0.133331 1.097283,-1.212345 z"
             inkscape:connector-curvature="0"
             style="fill:#ffffff" /><path
             id="path1616"
             d="m 20.926609,44.419773 -3.989616,2.426659 -4.261714,-1.911106 1.075552,4.544677 -3.133817,3.462208 4.653811,0.381233 2.324437,4.051346 1.800982,-4.30912 4.570848,-0.958023 -3.541221,-3.04493 z m -2.986162,6.884914 -0.630615,1.508145 -0.813332,-1.41827 -1.629624,-0.133332 1.09728,-1.212341 -0.376295,-1.590614 1.491353,0.66864 1.397032,-0.849377 -0.1758,1.625672 1.239996,1.065677 z"
             inkscape:connector-curvature="0"
             style="fill:#ffffff" /><path
             id="path1618"
             d="m 40.31667,71.670052 -3.832089,2.668632 -4.37085,-1.643944 1.354069,4.469116 -2.914556,3.64888 4.669119,0.09383 2.570362,3.899246 1.531353,-4.411835 4.502701,-1.239502 -3.72295,-2.819748 z m -2.555054,7.055778 -0.535801,1.544686 -0.900246,-1.36493 -1.634067,-0.03259 1.020244,-1.277526 -0.474075,-1.564446 1.530369,0.57531 1.341228,-0.934319 -0.07457,1.632592 1.303207,0.987648 z"
             inkscape:connector-curvature="0"
             style="fill:#ffffff" /><path
             id="path1620"
             d="m 62.961533,60.090832 -3.831593,2.668632 -4.37085,-1.643944 1.354069,4.469616 -2.91357,3.649369 4.668625,0.09284 2.56987,3.899246 1.531845,-4.411842 4.502209,-1.239502 -3.722458,-2.819252 z m -2.554066,7.055774 -0.536297,1.544693 -0.89975,-1.364936 -1.634563,-0.03259 1.020244,-1.278023 -0.474071,-1.563942 1.530365,0.575302 1.341724,-0.934311 -0.07457,1.63308 1.302711,0.987152 z"
             inkscape:connector-curvature="0"
             style="fill:#ffffff" /><path
             id="path1622"
             d="m 55.238594,81.594955 -2.880485,2.850052 C 52.160023,81.9394 51.978359,79.473236 51.859901,77.0159 c -0.100124,-2.540177 -0.165492,-5.06881 -0.01605,-7.574852 0.04142,-1.254815 0.158951,-2.502152 0.329319,-3.737519 0.13895,-1.241852 0.385616,-2.463573 0.672157,-3.674618 0.587159,-2.424438 1.521107,-4.749305 2.92635,-6.948432 -2.044067,1.634746 -3.527336,3.987205 -4.433689,6.480224 -0.947838,2.497891 -1.362526,5.151158 -1.51302,7.77837 -0.115555,2.634743 0.04278,5.263374 0.471108,7.84053 0.412777,2.503754 1.031975,4.976281 2.00518,7.321701 l -0.382652,0.378579 -4.587639,-0.872589 2.097771,4.171836 -2.247402,4.093323 4.615787,-0.706169 3.198509,3.403443 0.755059,-4.608872 4.224678,-1.99012 -4.149617,-2.142708 z m -1.312096,7.389115 -0.264194,1.613327 -1.119503,-1.191109 -1.616291,0.24691 0.786663,-1.432587 -0.734318,-1.460731 1.606415,0.305679 1.161972,-1.149627 0.205925,1.621719 1.452339,0.750122 z"
             inkscape:connector-curvature="0"
             style="fill:#ffffff" /><path
             id="path1624"
             d="m 75.830131,49.800987 -3.319992,3.28394 -4.587639,-0.872589 2.097771,4.17184 -2.07283,3.775849 c -0.741295,-1.008515 -1.542648,-1.979744 -2.481285,-2.815915 -1.033577,-0.930675 -2.193146,-1.710304 -3.416535,-2.332893 -1.244625,-0.589382 -2.556228,-0.99654 -3.884372,-1.19191 1.195183,0.624813 2.338325,1.256909 3.369064,2.040917 1.030552,0.779071 1.95956,1.65623 2.810856,2.595115 1.654625,1.92487 2.98394,4.109432 3.994987,6.461895 1.063263,2.329987 1.810303,4.817208 2.475052,7.337693 0.636231,2.532455 1.152031,5.112449 1.592896,7.756759 0.396545,-2.663078 0.312965,-5.379791 -0.04951,-8.057319 -0.367531,-2.679985 -1.067154,-5.335968 -2.16993,-7.85534 -0.577469,-1.245491 -1.209999,-2.476226 -2.001533,-3.615856 -0.01488,-0.02074 -0.03075,-0.04086 -0.04569,-0.0616 l 4.247208,-0.64975 3.198509,3.402458 0.755058,-4.607887 4.22419,-1.990612 -4.149124,-2.142708 z m -1.312095,7.388619 -0.264198,1.613327 -1.1195,-1.191105 -1.616295,0.24691 0.786667,-1.433079 -0.734321,-1.460739 1.606415,0.305679 1.161972,-1.149624 0.205925,1.621724 1.452835,0.750118 z"
             inkscape:connector-curvature="0"
             style="fill:#ffffff" /><path
             id="path1626"
             d="m 74.61927,19.121584 4.166405,-2.109129 4.099739,2.236042 -0.719505,-4.613812 3.39357,-3.20789 -4.610352,-0.742714 -2.002464,-4.219245 -2.130364,4.156529 -4.631591,0.600492 3.294311,3.310113 z m 3.511597,-6.631089 0.745674,-1.454809 0.700737,1.476537 1.614807,0.259753 -1.188141,1.122959 0.251358,1.615303 -1.435058,-0.782219 -1.458268,0.738269 0.300744,-1.606908 -1.153084,-1.159009 z"
             inkscape:connector-curvature="0"
             style="fill:#ffffff" /><path
             id="path1628"
             d="m 54.709335,34.949123 c -0.326294,3.333817 -0.04309,6.674981 0.750924,9.863362 0.04228,-3.28394 0.215927,-6.517506 0.811912,-9.642311 0.585243,-3.120114 1.596352,-6.128191 3.205792,-8.787503 1.079009,-1.838203 2.458076,-3.481037 4.042022,-4.923256 l 2.185238,3.835482 -2.032585,4.204924 4.573814,-0.944687 3.37085,3.232088 0.51506,-4.641466 4.115052,-2.206414 -4.254799,-1.924438 -0.827652,-4.596033 -3.144188,3.452333 -4.305359,-0.589504 c 0.667221,-0.593948 1.366112,-1.156231 2.098946,-1.6774 2.580482,-1.806786 5.51313,-3.186718 8.665649,-4.078074 -3.295487,0.0637 -6.58757,1.074503 -9.509781,2.751534 -2.934929,1.671907 -5.462269,4.135541 -7.22578,7.065038 -0.853947,1.478575 -1.55518,3.039559 -2.07203,4.654614 -0.445186,1.631477 -0.858085,3.276102 -0.963085,4.951711 z m 14.090699,-10.929777 1.100731,-1.208391 0.289382,1.608389 1.48938,0.674072 -1.44049,0.772343 -0.180245,1.625179 -1.180244,-1.131353 -1.600983,0.33037 0.712097,-1.472096 -0.809379,-1.42024 z"
             inkscape:connector-curvature="0"
             style="fill:#ffffff" /><path
             id="path1630"
             d="M 85.010407,52.166721 C 84.490105,51.674377 83.97541,51.167034 83.423256,50.703083 l -1.75222,-1.284626 C 81.042953,49.054878 80.39444,48.722782 79.754623,48.375561 79.102776,48.053585 78.4021,47.836365 77.725677,47.564205 77.050987,47.275875 76.31871,47.193344 75.610565,47.028591 L 74.541679,46.80859 c -0.356849,-0.06617 -0.721847,-0.06488 -1.08358,-0.08624 -0.724624,-0.02377 -1.448021,-0.07463 -2.166969,-0.07098 -0.716972,0.06401 -1.431786,0.146973 -2.141777,0.237774 -0.354073,0.04951 -0.71154,0.07451 -1.060249,0.14463 l -1.032585,0.276234 -2.041474,0.583332 c -1.313763,0.517281 -2.585674,1.131355 -3.819065,1.765179 1.397156,-0.215492 2.724991,-0.565987 4.067089,-0.803456 l 2.024864,-0.239689 1.000618,-0.135246 c 0.334198,-0.02827 0.671784,-0.01117 1.006043,-0.01926 0.669937,-8.01e-4 1.334999,-0.0096 1.997894,-0.03729 0.660431,0.04414 1.316048,0.139629 1.970612,0.204136 0.325065,0.04914 0.658828,0.03821 0.978828,0.110431 l 0.957466,0.223641 c 0.633202,0.163891 1.290116,0.246113 1.888321,0.520618 2.501969,0.768391 4.796593,2.137768 6.851463,3.835293 2.043946,1.718823 3.86258,3.759743 5.44381,6.056461 -0.832901,-2.67678 -2.387588,-5.142326 -4.372581,-7.207443 z"
             inkscape:connector-curvature="0"
             style="fill:#ffffff" /><path
             id="path1632"
             d="m 79.080246,30.707533 c -1.560371,0.08241 -3.11351,0.345802 -4.636902,0.739628 -1.51197,0.433824 -2.979805,1.019315 -4.385048,1.726598 -2.777832,1.480923 -5.249367,3.485112 -7.260654,5.846341 -2.006844,2.355545 -3.659554,5.019054 -4.632393,7.919788 1.715923,-2.511845 3.653446,-4.791714 5.774921,-6.839485 2.138329,-2.024868 4.479309,-3.804001 7.054116,-5.134922 2.562027,-1.357342 5.350166,-2.229561 8.240028,-2.687088 2.89962,-0.407715 5.88369,-0.384074 8.921333,-0.113579 -2.846229,-1.091787 -5.953933,-1.590921 -9.075401,-1.457281 z"
             inkscape:connector-curvature="0"
             style="fill:#ffffff" /><path
             id="path1634"
             d="m 32.505398,46.14526 c 0.301418,-0.03605 0.599811,-0.09062 0.899441,-0.136852 l 0.906665,-0.04852 c 0.604195,-0.01821 1.20765,-0.09339 1.810673,-0.06753 l 1.810982,0.0416 c 0.602032,0.04191 1.197647,0.147098 1.80135,0.19537 1.200676,0.147037 2.38808,0.404567 3.569248,0.710987 2.358818,0.63512 4.663749,1.554622 6.877323,2.818199 -1.698265,-1.927895 -3.958504,-3.34536 -6.375656,-4.30838 -2.423329,-0.971108 -5.053135,-1.480675 -7.684361,-1.479256 -2.619621,0.08358 -5.25461,0.452038 -7.673738,1.423885 -0.305247,0.109692 -0.61364,0.209011 -0.914379,0.327099 l -0.875738,0.420738 -1.726353,0.867897 c -1.102898,0.662468 -2.153944,1.407772 -3.165978,2.172402 1.236416,-0.37537 2.387276,-0.87154 3.571101,-1.265614 l 1.787586,-0.533703 0.881294,-0.279999 c 0.298454,-0.07568 0.602219,-0.131973 0.902033,-0.198825 0.60216,-0.125309 1.199133,-0.257222 1.790365,-0.406605 0.599505,-0.109627 1.207712,-0.166355 1.808142,-0.252899 z"
             inkscape:connector-curvature="0"
             style="fill:#ffffff" /><path
             id="path1636"
             d="m 44.54221,55.227268 c -2.007218,1.275673 -3.773816,2.980728 -5.112267,4.982762 -1.285675,2.019313 -2.344128,4.234428 -2.72308,6.590286 -0.320861,1.145737 -0.281601,2.35067 -0.387157,3.509804 0.0052,1.171783 0.134998,2.341598 0.286606,3.483009 0.297653,-1.140549 0.433639,-2.267456 0.699627,-3.365601 l 0.433082,-1.628891 c 0.0787,-0.26802 0.12537,-0.542404 0.207592,-0.807403 l 0.285,-0.782646 c 0.195492,-0.518395 0.37006,-1.040123 0.549011,-1.557778 l 0.697033,-1.486534 c 0.203518,-0.507469 0.488457,-0.97179 0.762158,-1.441479 0.278888,-0.46611 0.518703,-0.956417 0.863517,-1.378639 1.174565,-1.828262 2.694744,-3.415664 4.368691,-4.848934 1.690239,-1.424252 3.567886,-2.658569 5.629734,-3.718319 -2.319313,0.260246 -4.565975,1.167156 -6.559547,2.450363 z"
             inkscape:connector-curvature="0"
             style="fill:#ffffff" /></g></g></g></g><style
     id="style1606"
     type="text/css">
	.st0{fill:none;stroke:#000000;stroke-width:2;stroke-miterlimit:10;}
	.st1{fill:none;stroke:#000000;stroke-miterlimit:10;}
	.st2{fill:none;stroke:#000000;stroke-linecap:round;stroke-miterlimit:10;}
</style></svg>