<?xml version="1.0" encoding="UTF-8" standalone="no"?>
<!DOCTYPE svg PUBLIC "-//W3C//DTD SVG 1.1//EN" "http://www.w3.org/Graphics/SVG/1.1/DTD/svg11.dtd">
<svg width="100%" height="100%" viewBox="0 0 217 217" version="1.1" xmlns="http://www.w3.org/2000/svg" xmlns:xlink="http://www.w3.org/1999/xlink" xml:space="preserve" xmlns:serif="http://www.serif.com/" style="fill-rule:evenodd;clip-rule:evenodd;stroke-linecap:round;stroke-linejoin:round;stroke-miterlimit:1.5;">
    <g transform="matrix(0.852813,0,0,0.835616,116.701,40.0501)">
        <path d="M52.623,83.006C52.623,82.249 52.02,81.634 51.277,81.634L35.51,81.634C34.767,81.634 34.165,82.249 34.165,83.006L34.165,125.202C34.165,125.959 34.767,126.575 35.51,126.575L51.277,126.575C52.02,126.575 52.623,125.959 52.623,125.202L52.623,83.006Z" style="fill:white;stroke:white;stroke-width:3.16px;"/>
    </g>
    <g transform="matrix(0.852813,0,0,0.835616,26.2859,40.0501)">
        <path d="M52.623,83.006C52.623,82.249 52.02,81.634 51.277,81.634L35.51,81.634C34.767,81.634 34.165,82.249 34.165,83.006L34.165,125.202C34.165,125.959 34.767,126.575 35.51,126.575L51.277,126.575C52.02,126.575 52.623,125.959 52.623,125.202L52.623,83.006Z" style="fill:white;stroke:white;stroke-width:3.16px;"/>
    </g>
    <g transform="matrix(0.745135,0,0,0.745135,26.092,34.7592)">
        <path d="M171.265,149.045C171.55,169.217 167.097,179.913 157.11,179.541L113.132,179.862" style="fill:none;stroke:white;stroke-width:9.62px;"/>
    </g>
    <g transform="matrix(0.745135,0,0,0.745135,27.288,36.7923)">
        <path d="M126.614,173.682C126.614,171.778 125.068,170.231 123.164,170.231L99.891,170.231C97.986,170.231 96.44,171.778 96.44,173.682L96.44,180.584C96.44,182.488 97.986,184.035 99.891,184.035L123.164,184.035C125.068,184.035 126.614,182.488 126.614,180.584L126.614,173.682Z" style="fill:white;stroke:white;stroke-width:1.79px;"/>
    </g>
    <g transform="matrix(0.745135,0,0,0.69784,26.092,58.639)">
        <path d="M49.925,81.634L49.925,47.286C57.075,10.925 165.947,13.424 171.278,47.286L171.278,81.634" style="fill:none;stroke:white;stroke-width:9.24px;"/>
    </g>
    <g transform="matrix(1.02377,0,0,0.782088,-6.09373,15.4355)">
        <path d="M213.208,19.386C213.208,18.466 212.638,17.72 211.935,17.72L11.931,17.72C11.228,17.72 10.657,18.466 10.657,19.386L10.657,218.604C10.657,219.524 11.228,220.27 11.931,220.27L211.935,220.27C212.638,220.27 213.208,219.524 213.208,218.604L213.208,19.386Z" style="fill:none;stroke:white;stroke-width:2.93px;"/>
    </g>
    <g transform="matrix(1.02377,0,0,0.128351,-6.09373,27.0194)">
        <path d="M213.208,19.386C213.208,18.466 213.115,17.72 212.999,17.72L10.866,17.72C10.751,17.72 10.657,18.466 10.657,19.386L10.657,218.604C10.657,219.524 10.751,220.27 10.866,220.27L212.999,220.27C213.115,220.27 213.208,219.524 213.208,218.604L213.208,19.386Z" style="fill:none;stroke:white;stroke-width:3.66px;"/>
    </g>
    <g transform="matrix(0.354187,0,0,0.128351,1.0423,27.0194)">
        <path d="M213.208,19.386C213.208,18.466 212.938,17.72 212.604,17.72L11.261,17.72C10.928,17.72 10.657,18.466 10.657,19.386L10.657,218.604C10.657,219.524 10.928,220.27 11.261,220.27L212.604,220.27C212.938,220.27 213.208,219.524 213.208,218.604L213.208,19.386Z" style="fill:white;stroke:white;stroke-width:10.01px;"/>
    </g>
    <g transform="matrix(0.354187,0,0,0.128351,72.7833,27.0194)">
        <path d="M213.208,19.386C213.208,18.466 212.938,17.72 212.604,17.72L11.261,17.72C10.928,17.72 10.657,18.466 10.657,19.386L10.657,218.604C10.657,219.524 10.928,220.27 11.261,220.27L212.604,220.27C212.938,220.27 213.208,219.524 213.208,218.604L213.208,19.386Z" style="fill:none;stroke:white;stroke-width:10.01px;"/>
    </g>
</svg>
