<?xml version="1.0" encoding="UTF-8" standalone="no"?>
<!-- Generator: Adobe Illustrator 16.0.0, SVG Export Plug-In . SVG Version: 6.00 Build 0)  -->

<svg
   xmlns:dc="http://purl.org/dc/elements/1.1/"
   xmlns:cc="http://creativecommons.org/ns#"
   xmlns:rdf="http://www.w3.org/1999/02/22-rdf-syntax-ns#"
   xmlns:svg="http://www.w3.org/2000/svg"
   xmlns="http://www.w3.org/2000/svg"
   xmlns:sodipodi="http://sodipodi.sourceforge.net/DTD/sodipodi-0.dtd"
   xmlns:inkscape="http://www.inkscape.org/namespaces/inkscape"
   version="1.1"
   id="Layer_2"
   x="0px"
   y="0px"
   width="100"
   height="100"
   viewBox="0 0 100 100"
   enable-background="new 0 0 960 960"
   xml:space="preserve"
   sodipodi:docname="DecreaseRange.svg"
   inkscape:version="0.92.3 (2405546, 2018-03-11)"
   inkscape:export-filename="DecreaseRange.png"
   inkscape:export-xdpi="96"
   inkscape:export-ydpi="96"><metadata
     id="metadata47"><rdf:RDF><cc:Work
         rdf:about=""><dc:format>image/svg+xml</dc:format><dc:type
           rdf:resource="http://purl.org/dc/dcmitype/StillImage" /><dc:title></dc:title></cc:Work></rdf:RDF></metadata><defs
     id="defs45" /><sodipodi:namedview
     pagecolor="#000000"
     bordercolor="#666666"
     borderopacity="1"
     objecttolerance="10"
     gridtolerance="10"
     guidetolerance="10"
     inkscape:pageopacity="0"
     inkscape:pageshadow="2"
     inkscape:window-width="1280"
     inkscape:window-height="657"
     id="namedview43"
     showgrid="false"
     inkscape:pagecheckerboard="true"
     inkscape:zoom="2.7068932"
     inkscape:cx="74.368789"
     inkscape:cy="57.386744"
     inkscape:window-x="-8"
     inkscape:window-y="-8"
     inkscape:window-maximized="1"
     inkscape:current-layer="Layer_2"
     fit-margin-top="0"
     fit-margin-left="0"
     fit-margin-right="0"
     fit-margin-bottom="0"
     showguides="false" /><g
     transform="translate(2.01,1.9995004)"
     id="g1353"
     style="fill:#ffffff"><g
       style="display:none;fill:#ffffff"
       display="none"
       id="g1255"><g
         style="display:inline;opacity:0.2;fill:#ffffff"
         display="inline"
         id="g1253"><g
           id="g1243"
           style="fill:#ffffff"><path
             style="fill:#ffffff;stroke:#ec2227;stroke-width:0.5;stroke-miterlimit:10"
             inkscape:connector-curvature="0"
             stroke-miterlimit="10"
             d="m 90.594,84.537 c 0,3.331 -2.727,6.058 -6.057,6.058 H 11.651 c -3.331,0 -6.057,-2.727 -6.057,-6.058 V 11.651 c 0,-3.331 2.726,-6.056 6.057,-6.056 h 72.886 c 3.33,0 6.057,2.725 6.057,6.056 z"
             id="path1237" /><path
             style="fill:#ffffff;stroke:#ec2227;stroke-width:0.5;stroke-miterlimit:10"
             inkscape:connector-curvature="0"
             stroke-miterlimit="10"
             d="m 20.738,94.594 c -3.073,0 -5.589,-2.564 -5.589,-5.703 V 7.296 c 0,-3.136 2.516,-5.702 5.589,-5.702 h 54.541 c 3.074,0 5.588,2.565 5.588,5.702 v 81.595 c 0,3.139 -2.514,5.703 -5.588,5.703 z"
             id="path1239" /><path
             style="fill:#ffffff;stroke:#ec2227;stroke-width:0.5;stroke-miterlimit:10"
             inkscape:connector-curvature="0"
             stroke-miterlimit="10"
             d="m 7.267,80.885 c -3.176,0 -5.774,-2.486 -5.774,-5.529 V 20.644 c 0,-3.041 2.599,-5.528 5.774,-5.528 h 81.448 c 3.176,0 5.773,2.488 5.773,5.528 v 54.712 c 0,3.043 -2.598,5.529 -5.773,5.529 z"
             id="path1241" /></g><circle
           style="fill:#ffffff;stroke:#ec2227;stroke-width:0.5;stroke-miterlimit:10"
           stroke-miterlimit="10"
           cx="48"
           cy="48"
           r="19.363001"
           id="circle1245" /><circle
           style="fill:#ffffff;stroke:#ec2227;stroke-width:0.5;stroke-miterlimit:10"
           stroke-miterlimit="10"
           cx="48"
           cy="48"
           r="46.5"
           id="circle1247" /><line
           style="fill:#ffffff;stroke:#ec2227;stroke-width:0.5;stroke-miterlimit:10"
           stroke-miterlimit="10"
           x1="0.0089999996"
           y1="0.0080000004"
           x2="95.991997"
           y2="95.992996"
           id="line1249" /><line
           style="fill:#ffffff;stroke:#ec2227;stroke-width:0.5;stroke-miterlimit:10"
           stroke-miterlimit="10"
           x1="95.991997"
           y1="0.0080000004"
           x2="0.0089999996"
           y2="95.992996"
           id="line1251" /></g></g><g
       id="g1303"
       style="fill:#ffffff"><g
         id="g1301"
         style="fill:#ffffff"><g
           id="g1259"
           style="fill:#ffffff"><path
             inkscape:connector-curvature="0"
             d="m 47.99,55.544 c -2.015,0 -3.909,-0.785 -5.334,-2.21 -1.425,-1.424 -2.21,-3.318 -2.21,-5.334 0,-2.015 0.785,-3.91 2.21,-5.334 1.425,-1.424 3.318,-2.209 5.334,-2.209 2.016,0 3.909,0.785 5.334,2.209 1.426,1.425 2.21,3.32 2.21,5.335 0,2.015 -0.785,3.909 -2.21,5.333 -1.425,1.424 -3.319,2.21 -5.334,2.21 z m 0,-13.587 c -1.614,0 -3.132,0.629 -4.273,1.77 -1.142,1.142 -1.771,2.66 -1.771,4.274 0,1.614 0.629,3.132 1.771,4.273 1.142,1.141 2.659,1.771 4.273,1.771 1.614,0 3.132,-0.629 4.273,-1.771 1.141,-1.142 1.771,-2.659 1.771,-4.273 0,-1.615 -0.629,-3.133 -1.771,-4.274 -1.141,-1.142 -2.659,-1.77 -4.273,-1.77 z"
             id="path1257"
             style="fill:#ffffff" /></g><g
           id="g1263"
           style="fill:#ffffff"><path
             inkscape:connector-curvature="0"
             d="M 31.427,64.564 C 27.002,60.139 24.565,54.257 24.565,48 24.566,41.743 27.003,35.861 31.426,31.437 l 1.061,1.061 c -4.141,4.141 -6.422,9.646 -6.422,15.502 0,5.856 2.281,11.362 6.422,15.504 z"
             id="path1261"
             style="fill:#ffffff" /></g><g
           id="g1267"
           style="fill:#ffffff"><path
             inkscape:connector-curvature="0"
             d="m 64.554,64.564 -1.061,-1.061 c 4.141,-4.142 6.422,-9.647 6.422,-15.504 0,-5.856 -2.281,-11.362 -6.422,-15.502 l 1.061,-1.061 c 4.424,4.424 6.86,10.306 6.861,16.563 0,6.258 -2.436,12.14 -6.861,16.565 z"
             id="path1265"
             style="fill:#ffffff" /></g><g
           id="g1271"
           style="fill:#ffffff"><path
             inkscape:connector-curvature="0"
             d="m 37.041,58.95 c -6.036,-6.037 -6.036,-15.861 0,-21.898 l 1.061,1.061 c -5.451,5.453 -5.451,14.324 0,19.777 z"
             id="path1269"
             style="fill:#ffffff" /></g><g
           id="g1275"
           style="fill:#ffffff"><path
             inkscape:connector-curvature="0"
             d="m 58.939,58.95 -1.061,-1.061 c 5.451,-5.453 5.451,-14.325 0,-19.777 l 1.061,-1.061 c 6.037,6.038 6.037,15.862 0,21.899 z"
             id="path1273"
             style="fill:#ffffff" /></g><g
           id="g1279"
           style="fill:#ffffff"><path
             inkscape:connector-curvature="0"
             d="M 25.812,70.179 C 13.583,57.95 13.583,38.051 25.812,25.822 l 1.061,1.061 c -11.645,11.645 -11.645,30.592 0,42.236 z"
             id="path1277"
             style="fill:#ffffff" /></g><g
           id="g1283"
           style="fill:#ffffff"><path
             inkscape:connector-curvature="0"
             d="m 70.169,70.179 -1.061,-1.061 c 11.645,-11.645 11.645,-30.591 0,-42.236 l 1.061,-1.061 c 12.229,12.23 12.229,32.129 0,44.358 z"
             id="path1281"
             style="fill:#ffffff" /></g><g
           id="g1287"
           style="fill:#ffffff"><path
             inkscape:connector-curvature="0"
             d="M 20.197,75.793 C 12.773,68.371 8.686,58.5 8.686,48 8.687,37.501 12.775,27.631 20.198,20.208 l 1.061,1.061 C 14.118,28.408 10.187,37.902 10.186,48 c 0,10.099 3.932,19.593 11.072,26.733 z"
             id="path1285"
             style="fill:#ffffff" /></g><g
           id="g1291"
           style="fill:#ffffff"><path
             inkscape:connector-curvature="0"
             d="M 75.783,75.793 74.722,74.732 C 81.863,67.592 85.796,58.099 85.795,48 85.795,37.901 81.862,28.408 74.723,21.268 l 1.061,-1.061 C 83.206,27.63 87.295,37.5 87.295,48 87.296,58.5 83.207,68.371 75.783,75.793 Z"
             id="path1289"
             style="fill:#ffffff" /></g><g
           id="g1295"
           style="fill:#ffffff"><path
             inkscape:connector-curvature="0"
             d="M 14.581,81.41 C 5.657,72.486 0.742,60.621 0.743,48 0.743,35.38 5.657,23.515 14.581,14.592 l 1.061,1.061 C 7.001,24.292 2.243,35.78 2.243,48 2.242,60.22 7.001,71.708 15.642,80.349 Z"
             id="path1293"
             style="fill:#ffffff" /></g><g
           id="g1299"
           style="fill:#ffffff"><path
             inkscape:connector-curvature="0"
             d="M 81.399,81.41 80.338,80.349 C 88.979,71.708 93.738,60.22 93.737,48 93.737,35.78 88.979,24.292 80.339,15.652 L 81.4,14.591 C 90.323,23.515 95.237,35.379 95.237,48 95.238,60.621 90.323,72.486 81.399,81.41 Z"
             id="path1297"
             style="fill:#ffffff" /></g></g></g></g><g
     style="display:none"
     display="none"
     id="g1102"
     transform="translate(-30.655059,-42.151051)"><rect
       style="display:inline;fill:#000000"
       x="-362.37399"
       y="-242.37399"
       display="inline"
       width="1426.3051"
       height="362.37399"
       id="rect1100" /></g><g
     transform="translate(32,61.829132)"
     id="g1235"
     style="fill:#ffffff"><g
       id="g1217"
       style="fill:#ffffff"><path
         inkscape:connector-curvature="0"
         d="M 27.084,21 H 8.916 C 7.308,21 6,19.691 6,18.084 V 17.916 C 6,16.309 7.308,15 8.916,15 H 27.084 C 28.692,15 30,16.309 30,17.916 v 0.168 C 30,19.691 28.692,21 27.084,21 Z"
         id="path1215"
         style="fill:#ffffff"
         sodipodi:nodetypes="sssssssss" /></g></g><g
     id="g12"
     transform="translate(-14,-846)" /><g
     id="g14"
     transform="translate(-14,-846)" /><g
     id="g16"
     transform="translate(-14,-846)" /><g
     id="g18"
     transform="translate(-14,-846)" /><g
     id="g20"
     transform="translate(-14,-846)" /><g
     id="g22"
     transform="translate(-14,-846)" /><g
     id="g24"
     transform="translate(-14,-846)" /><g
     id="g26"
     transform="translate(-14,-846)" /><g
     id="g28"
     transform="translate(-14,-846)" /><g
     id="g30"
     transform="translate(-14,-846)" /><g
     id="g32"
     transform="translate(-14,-846)" /><g
     id="g34"
     transform="translate(-14,-846)" /><g
     id="g36"
     transform="translate(-14,-846)" /><g
     id="g38"
     transform="translate(-14,-846)" /><g
     id="g40"
     transform="translate(-14,-846)" /><style
     id="style1606"
     type="text/css">
	.st0{fill:none;stroke:#000000;stroke-width:2;stroke-miterlimit:10;}
	.st1{fill:none;stroke:#000000;stroke-miterlimit:10;}
	.st2{fill:none;stroke:#000000;stroke-linecap:round;stroke-miterlimit:10;}
</style></svg>