<?xml version="1.0" encoding="UTF-8" standalone="no"?>
<!-- Created with Inkscape (http://www.inkscape.org/) -->

<svg
   xmlns:dc="http://purl.org/dc/elements/1.1/"
   xmlns:cc="http://creativecommons.org/ns#"
   xmlns:rdf="http://www.w3.org/1999/02/22-rdf-syntax-ns#"
   xmlns:svg="http://www.w3.org/2000/svg"
   xmlns="http://www.w3.org/2000/svg"
   xmlns:sodipodi="http://sodipodi.sourceforge.net/DTD/sodipodi-0.dtd"
   xmlns:inkscape="http://www.inkscape.org/namespaces/inkscape"
   width="64"
   height="64.000015"
   viewBox="0 0 16.933333 16.933338"
   version="1.1"
   id="svg121"
   inkscape:version="0.92.3 (2405546, 2018-03-11)"
   sodipodi:docname="DoubleChevrons.svg"
   inkscape:export-filename="DoubleChevrons.png"
   inkscape:export-xdpi="96"
   inkscape:export-ydpi="96">
  <defs
     id="defs115" />
  <sodipodi:namedview
     id="base"
     pagecolor="#000000"
     bordercolor="#666666"
     borderopacity="1.0"
     inkscape:pageopacity="0"
     inkscape:pageshadow="2"
     inkscape:zoom="2.8536341"
     inkscape:cx="71.100815"
     inkscape:cy="44.126614"
     inkscape:document-units="px"
     inkscape:current-layer="layer1"
     showgrid="false"
     fit-margin-top="0"
     fit-margin-left="0"
     fit-margin-right="0"
     fit-margin-bottom="0"
     inkscape:pagecheckerboard="true"
     units="px"
     inkscape:window-width="1280"
     inkscape:window-height="657"
     inkscape:window-x="-8"
     inkscape:window-y="-8"
     inkscape:window-maximized="1" />
  <metadata
     id="metadata118">
    <rdf:RDF>
      <cc:Work
         rdf:about="">
        <dc:format>image/svg+xml</dc:format>
        <dc:type
           rdf:resource="http://purl.org/dc/dcmitype/StillImage" />
        <dc:title></dc:title>
      </cc:Work>
    </rdf:RDF>
  </metadata>
  <g
     inkscape:label="Layer 1"
     inkscape:groupmode="layer"
     id="layer1"
     transform="translate(30.709885,-110.12857)">
    <g
       id="g205"
       transform="translate(-13.79477,3.5622706e-6)">
      <g
         style="display:inline;fill:#ffffff;stroke-width:1.53885829"
         transform="matrix(0.10569809,0,0,0.27967948,-9.5041031,104.53491)"
         id="g1273">
        <g
           style="display:none;fill:#ffffff;stroke-width:1.53885829"
           display="none"
           id="g1246">
          <rect
             style="display:inline;fill:#ffffff;stroke-width:1.53885829"
             x="0"
             y="0.015"
             display="inline"
             width="100"
             height="100"
             id="rect1244" />
        </g>
        <g
           style="fill:#ffffff;stroke-width:1.53885829"
           id="g1252">
          <path
             style="fill:#ffffff;stroke-width:1.53885829"
             inkscape:connector-curvature="0"
             d="M 53.946,78.832 78.275,54.503 c 0.027,-0.026 0.065,-0.034 0.091,-0.061 1.146,-1.146 1.715,-2.659 1.711,-4.17 0.004,-1.511 -0.564,-3.023 -1.711,-4.17 -0.027,-0.027 -0.064,-0.034 -0.091,-0.061 L 53.946,21.714 c -2.285,-2.285 -6.024,-2.285 -8.308,0 -2.285,2.285 -2.285,6.024 0,8.308 L 65.889,50.273 45.638,70.524 c -2.285,2.285 -2.285,6.024 0,8.308 2.285,2.285 6.024,2.285 8.308,0 z"
             id="path1248" />
          <path
             style="fill:#ffffff;stroke-width:1.53885829"
             inkscape:connector-curvature="0"
             d="M 30.022,78.832 54.351,54.503 c 0.027,-0.026 0.065,-0.034 0.091,-0.061 1.146,-1.146 1.715,-2.659 1.711,-4.17 0.004,-1.511 -0.564,-3.023 -1.711,-4.17 -0.027,-0.027 -0.064,-0.034 -0.091,-0.061 L 30.022,21.714 c -2.285,-2.285 -6.024,-2.285 -8.308,0 -2.284,2.285 -2.285,6.024 0,8.308 L 41.965,50.273 21.714,70.524 c -2.285,2.285 -2.285,6.024 0,8.308 2.284,2.285 6.023,2.285 8.308,0 z"
             id="path1250" />
        </g>
      </g>
    </g>
    <g
       id="g213"
       transform="translate(1.0583331)">
      <g
         style="display:inline;fill:#ffffff;stroke-width:1.53889644"
         transform="matrix(0.10569633,0,0,0.27967022,-32.823809,104.5351)"
         id="g1242">
        <g
           style="display:none;fill:#ffffff;stroke-width:1.53889644"
           display="none"
           id="g1215">
          <rect
             style="display:inline;fill:#ffffff;stroke-width:1.53889644"
             x="0"
             y="0.015"
             display="inline"
             width="100"
             height="100"
             id="rect1213" />
        </g>
        <g
           style="fill:#ffffff;stroke-width:1.53889644"
           id="g1221">
          <path
             style="fill:#ffffff;stroke-width:1.53889644"
             inkscape:connector-curvature="0"
             d="M 46.131,21.714 21.802,46.043 c -0.027,0.026 -0.065,0.034 -0.091,0.061 -1.146,1.146 -1.715,2.659 -1.711,4.17 -0.004,1.511 0.564,3.023 1.711,4.17 0.027,0.027 0.064,0.034 0.091,0.061 l 24.329,24.329 c 2.285,2.285 6.024,2.285 8.308,0 2.285,-2.285 2.285,-6.024 0,-8.308 L 34.189,50.273 54.44,30.022 c 2.285,-2.285 2.285,-6.024 0,-8.308 -2.285,-2.285 -6.024,-2.285 -8.309,0 z"
             id="path1217" />
          <path
             style="fill:#ffffff;stroke-width:1.53889644"
             inkscape:connector-curvature="0"
             d="M 70.056,21.714 45.727,46.043 c -0.027,0.026 -0.065,0.034 -0.091,0.061 -1.146,1.146 -1.715,2.659 -1.711,4.17 -0.004,1.511 0.564,3.023 1.711,4.17 0.027,0.027 0.064,0.034 0.091,0.061 l 24.329,24.329 c 2.285,2.285 6.024,2.285 8.308,0 2.285,-2.285 2.285,-6.024 0,-8.308 L 58.113,50.273 78.364,30.022 c 2.285,-2.285 2.285,-6.024 0,-8.308 -2.285,-2.285 -6.024,-2.285 -8.308,0 z"
             id="path1219" />
        </g>
      </g>
    </g>
  </g>
</svg>
