<?xml version="1.0" encoding="UTF-8" standalone="no"?>
<svg
   xmlns:dc="http://purl.org/dc/elements/1.1/"
   xmlns:cc="http://creativecommons.org/ns#"
   xmlns:rdf="http://www.w3.org/1999/02/22-rdf-syntax-ns#"
   xmlns:svg="http://www.w3.org/2000/svg"
   xmlns="http://www.w3.org/2000/svg"
   xmlns:sodipodi="http://sodipodi.sourceforge.net/DTD/sodipodi-0.dtd"
   xmlns:inkscape="http://www.inkscape.org/namespaces/inkscape"
   version="1.1"
   x="0px"
   y="0px"
   viewBox="0 0 100 100"
   xml:space="preserve"
   id="svg12"
   sodipodi:docname="DriveAssistOn.svg"
   width="100"
   height="100"
   inkscape:version="0.92.3 (2405546, 2018-03-11)"
   inkscape:export-filename="DriveAssistOn.png"
   inkscape:export-xdpi="96"
   inkscape:export-ydpi="96"><metadata
     id="metadata18"><rdf:RDF><cc:Work
         rdf:about=""><dc:format>image/svg+xml</dc:format><dc:type
           rdf:resource="http://purl.org/dc/dcmitype/StillImage" /><dc:title></dc:title></cc:Work></rdf:RDF></metadata><defs
     id="defs16" /><sodipodi:namedview
     pagecolor="#000000"
     bordercolor="#666666"
     borderopacity="1"
     objecttolerance="10"
     gridtolerance="10"
     guidetolerance="10"
     inkscape:pageopacity="0"
     inkscape:pageshadow="2"
     inkscape:window-width="1280"
     inkscape:window-height="657"
     id="namedview14"
     showgrid="false"
     fit-margin-top="0"
     fit-margin-left="0.6"
     fit-margin-right="0"
     fit-margin-bottom="0"
     inkscape:pagecheckerboard="true"
     inkscape:zoom="3.99375"
     inkscape:cx="-1.7276983"
     inkscape:cy="51.004695"
     inkscape:window-x="-8"
     inkscape:window-y="-8"
     inkscape:window-maximized="1"
     inkscape:current-layer="svg12" /><path
     style="opacity:1;fill:#ffffff;fill-opacity:1;stroke:none;stroke-width:1;stroke-miterlimit:4;stroke-dasharray:none;stroke-opacity:1"
     d="m 50,12.5 c -19.412882,0 -35.425312,14.826687 -37.3125,33.75 h 5.035156 C 19.582407,30.068376 33.319056,17.5 50,17.5 c 13.940992,0 25.828478,8.779624 30.443359,21.109375 0.08362,0.139749 0.136344,0.28822 0.160157,0.441406 0.820312,2.29125 1.386953,4.702907 1.673828,7.199219 H 87.3125 C 85.425312,27.326687 69.412179,12.5 50,12.5 Z M 24.113281,34.865234 c -0.677501,1.155377 -1.283437,2.356577 -1.804687,3.603516 l 14.61914,10.503906 c 0.254494,-3.277562 1.704719,-6.214374 3.925782,-8.375 L 24.261719,34.933594 c -0.0525,-0.01769 -0.10025,-0.04455 -0.148438,-0.06836 z m 51.884766,0.19336 -16.685547,5.695312 c 2.224761,2.240562 3.631898,5.282593 3.783203,8.652344 L 77.830078,38.818359 c -0.524256,-1.301312 -1.137462,-2.55614 -1.832031,-3.759765 z M 50,39.375 c -5.858751,0 -10.625,4.76625 -10.625,10.625 0,5.85875 4.766249,10.625 10.625,10.625 5.85875,0 10.625,-4.76625 10.625,-10.625 C 60.625,44.141249 55.85875,39.375 50,39.375 Z M 50,45 c 2.761249,0 5,2.238751 5,5 0,2.761249 -2.238751,5 -5,5 -2.761249,0 -5,-2.238751 -5,-5 0,-2.761249 2.238751,-5 5,-5 z m 0,2.5 c -1.37882,0 -2.5,1.121187 -2.5,2.5 0,1.378813 1.12118,2.5 2.5,2.5 1.378803,0 2.5,-1.121187 2.5,-2.5 0,-1.378813 -1.121197,-2.5 -2.5,-2.5 z M 12.53125,48.75 C 12.517813,49.165626 12.5,49.581314 12.5,50 c 0,0.419312 0.01781,0.83375 0.03125,1.25 h 5 C 17.515375,50.834374 17.5,50.419312 17.5,50 c 0,-0.419314 0.01538,-0.834937 0.03125,-1.25 z m 69.9375,0 C 82.484625,49.165063 82.5,49.580686 82.5,50 c 0,0.419312 -0.01538,0.834374 -0.03125,1.25 h 5 C 87.482187,50.83375 87.5,50.419312 87.5,50 c 0,-0.418686 -0.01781,-0.834374 -0.03125,-1.25 z m -69.78125,5 C 14.575313,72.673312 30.587742,87.5 50,87.5 69.411616,87.5 85.424688,72.673312 87.3125,53.75 H 82.277344 C 80.417038,69.931626 66.679054,82.5 50,82.5 33.319681,82.5 19.582976,69.931626 17.722656,53.75 Z m 32.105469,8.296875 2.857422,17.851563 C 48.426703,79.958813 49.207742,80 50,80 c 0.791616,0 1.573294,-0.04119 2.349609,-0.101562 L 55.207031,62.046875 C 53.610347,62.737812 51.850552,63.125 50,63.125 c -1.850572,0 -3.610345,-0.387188 -5.207031,-1.078125 z"
     id="rect9"
     inkscape:connector-curvature="0"
     sodipodi:nodetypes="sccsccccscccccccccccssssssssssssssscsccscccsccscccsccsccccsccsc" /></svg>