<?xml version="1.0" encoding="UTF-8" standalone="no"?>
<svg
   xmlns:dc="http://purl.org/dc/elements/1.1/"
   xmlns:cc="http://creativecommons.org/ns#"
   xmlns:rdf="http://www.w3.org/1999/02/22-rdf-syntax-ns#"
   xmlns:svg="http://www.w3.org/2000/svg"
   xmlns="http://www.w3.org/2000/svg"
   xmlns:sodipodi="http://sodipodi.sourceforge.net/DTD/sodipodi-0.dtd"
   xmlns:inkscape="http://www.inkscape.org/namespaces/inkscape"
   version="1.1"
   x="0px"
   y="0px"
   viewBox="0 0 100 100"
   xml:space="preserve"
   id="svg12"
   sodipodi:docname="DriveAssistOff.svg"
   width="100"
   height="100"
   inkscape:version="0.92.3 (2405546, 2018-03-11)"
   inkscape:export-filename="DriveAssistOff.png"
   inkscape:export-xdpi="96"
   inkscape:export-ydpi="96"><metadata
     id="metadata18"><rdf:RDF><cc:Work
         rdf:about=""><dc:format>image/svg+xml</dc:format><dc:type
           rdf:resource="http://purl.org/dc/dcmitype/StillImage" /><dc:title></dc:title></cc:Work></rdf:RDF></metadata><defs
     id="defs16" /><sodipodi:namedview
     pagecolor="#000000"
     bordercolor="#666666"
     borderopacity="1"
     objecttolerance="10"
     gridtolerance="10"
     guidetolerance="10"
     inkscape:pageopacity="0"
     inkscape:pageshadow="2"
     inkscape:window-width="1280"
     inkscape:window-height="657"
     id="namedview14"
     showgrid="false"
     fit-margin-top="0"
     fit-margin-left="0.6"
     fit-margin-right="0"
     fit-margin-bottom="0"
     inkscape:pagecheckerboard="true"
     inkscape:zoom="3.99375"
     inkscape:cx="-14.998434"
     inkscape:cy="48"
     inkscape:window-x="-8"
     inkscape:window-y="-8"
     inkscape:window-maximized="1"
     inkscape:current-layer="svg12" /><g
     id="g6"
     transform="matrix(0.625,0,0,0.625,10,10)"
     style="stroke-width:1.60000002;fill:#ffffff"><path
       d="M 64.001,0 C 30.292,0 2.6894886,26.0664 0.2020887,59.137699 0.0761887,59.400398 0,59.689499 0,60 0,60.200199 0.0380887,60.390598 0.0937887,60.5732 0.0331887,61.708 0,62.849602 0,63.999 0,65.149399 0.0331887,66.291 0.0937887,67.426804 0.0380887,67.609398 0,67.799797 0,68 0,68.310501 0.0761887,68.600601 0.2030887,68.862297 2.6903887,101.9346 30.292,128 64.001,128 99.345688,128 128,99.345703 128,63.999 128,28.654301 99.345688,0 64.001,0 Z M 84.952087,63.049801 C 84.709999,57.658199 82.459,52.791 78.899383,49.206101 L 105.59569,40.0928 c 1.11131,1.925801 2.09379,3.934502 2.9326,6.016602 z M 64,81 c -9.374001,0 -17,-7.626 -17,-17 0,-9.374 7.625999,-17 17,-17 9.374,0 17,7.625999 17,17 0,9.374 -7.626,17 -17,17 z M 75.183586,46.248001 C 71.94339,44.202099 68.116188,43 64,43 60.034187,43 56.338886,44.119099 53.174786,46.0303 L 24.804687,36.3447 C 33.504887,24.049801 47.826187,16 64.001,16 c 16.294883,0 30.709884,8.1689 39.39059,20.619099 z M 22.581089,39.784199 c 0.0771,0.0381 0.1523,0.0801 0.236299,0.108402 l 26.5488,9.0625 C 45.812488,52.412102 43.490189,57.1133 43.083,62.357399 L 19.692388,45.549801 c 0.834,-1.995102 1.804699,-3.917 2.888701,-5.765602 z M 18.261688,49.4463 43.305687,67.441399 c 0.8838,5.345703 3.775402,10.000999 7.887699,13.174804 L 56.108387,111.3398 C 33.383789,107.5635 16,87.778297 16,63.999 c 0,-5.0722 0.796888,-9.959899 2.261688,-14.5527 z m 41.9776,62.3926 -4.5694,-28.564501 C 58.224586,84.379898 61.039085,85 64,85 c 2.960884,0 5.775391,-0.620102 8.330086,-1.725601 L 67.760689,111.8389 C 66.518585,111.9355 65.267586,112 64.001,112 c -1.267613,0 -2.519612,-0.0645 -3.761712,-0.1611 z M 76.806587,80.616203 C 80.711883,77.602501 83.539085,73.259804 84.56839,68.25 L 109.92188,50.033199 C 111.26859,54.455101 112,59.142601 112,63.999 112,87.778297 94.616188,107.5645 71.891586,111.3398 Z M 115.94919,62 h 8 c 0.0215,0.665001 0.0508,1.329102 0.0508,1.999 0,0.670899 -0.0293,1.335 -0.0508,2.001 h -8 C 115.97459,65.334999 116,64.669899 116,63.999 116,63.328098 115.97459,62.664101 115.94919,62 Z M 64.001,4 c 31.059486,0 56.67869,23.7227 59.69819,54 h -8.0547 c -0.459,-3.994099 -1.3652,-7.851601 -2.6777,-11.517601 C 112.92869,46.237301 112.84279,46 112.709,45.776401 105.32519,26.048799 86.306587,12 64.001,12 37.311489,12 15.331089,32.109402 12.355488,58 H 4.3007884 C 7.3202887,27.7227 32.940388,4 64.001,4 Z M 4,63.999 C 4,63.329102 4.0292888,62.665001 4.0507884,62 H 12.050788 C 12.025389,62.664101 12,63.328098 12,63.999 12,64.669899 12.02539,65.334999 12.05079,66 H 4.0507889 C 4.0292888,65.334 4,64.669899 4,63.999 Z M 64.001,124 C 32.941387,124 7.3212891,100.2773 4.3007889,70 H 12.35549 c 2.976511,25.890602 24.957001,46 51.645511,46 26.686486,0 48.666999,-20.109398 51.643489,-46 h 8.0547 c -3.0205,30.2773 -28.639604,54 -59.69819,54 z"
       id="path2"
       inkscape:connector-curvature="0"
       style="stroke-width:1.60000002;fill:#ffffff" /><path
       d="m 64,56 c -4.417999,0 -8,3.582001 -8,8 0,4.417999 3.582001,8 8,8 4.417999,0 8,-3.582001 8,-8 0,-4.417999 -3.582001,-8 -8,-8 z m 0,12 c -2.206112,0 -4,-1.793899 -4,-4 0,-2.206101 1.793888,-4 4,-4 2.206085,0 4,1.7939 4,4 0,2.2061 -1.793915,4 -4,4 z"
       id="path4"
       inkscape:connector-curvature="0"
       style="stroke-width:1.60000002;fill:#ffffff" /></g></svg>