<?xml version="1.0" encoding="UTF-8" standalone="no"?>
<!-- Generator: Adobe Illustrator 16.0.0, SVG Export Plug-In . SVG Version: 6.00 Build 0)  -->

<svg
   xmlns:dc="http://purl.org/dc/elements/1.1/"
   xmlns:cc="http://creativecommons.org/ns#"
   xmlns:rdf="http://www.w3.org/1999/02/22-rdf-syntax-ns#"
   xmlns:svg="http://www.w3.org/2000/svg"
   xmlns="http://www.w3.org/2000/svg"
   xmlns:sodipodi="http://sodipodi.sourceforge.net/DTD/sodipodi-0.dtd"
   xmlns:inkscape="http://www.inkscape.org/namespaces/inkscape"
   version="1.1"
   id="Layer_1"
   x="0px"
   y="0px"
   width="100"
   height="100"
   viewBox="0 0 100 100"
   enable-background="new 0 0 768.666 768.588"
   xml:space="preserve"
   sodipodi:docname="EjectCargo.svg"
   inkscape:version="0.92.3 (2405546, 2018-03-11)"
   inkscape:export-filename="C:\Users\danie\OneDrive\Documents\Elite VR Cockpit Unity\Assets\Textures\Icons\EjectCargo.png"
   inkscape:export-xdpi="96"
   inkscape:export-ydpi="96"><metadata
   id="metadata25"><rdf:RDF><cc:Work
       rdf:about=""><dc:format>image/svg+xml</dc:format><dc:type
         rdf:resource="http://purl.org/dc/dcmitype/StillImage" /><dc:title></dc:title></cc:Work></rdf:RDF></metadata><defs
   id="defs23" /><sodipodi:namedview
   pagecolor="#000000"
   bordercolor="#666666"
   borderopacity="1"
   objecttolerance="10"
   gridtolerance="10"
   guidetolerance="10"
   inkscape:pageopacity="0"
   inkscape:pageshadow="2"
   inkscape:window-width="1280"
   inkscape:window-height="657"
   id="namedview21"
   showgrid="false"
   inkscape:pagecheckerboard="true"
   fit-margin-top="0"
   fit-margin-left="0"
   fit-margin-right="0"
   fit-margin-bottom="0"
   inkscape:zoom="1.9140625"
   inkscape:cx="42.27696"
   inkscape:cy="102.90443"
   inkscape:window-x="-8"
   inkscape:window-y="-8"
   inkscape:window-maximized="1"
   inkscape:current-layer="Layer_1" />


<g
   id="g4674"
   transform="rotate(-180,37.658794,22.876696)"><g
     id="g4653"
     style="fill:none;fill-rule:evenodd;stroke:none;stroke-width:1"><g
       id="g4651"
       transform="matrix(0.99999978,0,0,1.000008,-979.99978,-96.97789)"
       style="stroke:#000000;stroke-width:2.5"><g
         id="g4649"
         transform="translate(981.82833,93.910204)"><path
           id="path4645"
           transform="rotate(-90,23.489079,13.258028)"
           d="m 12.523648,35.19679 c -1.257299,1.079986 -2.276541,0.614806 -2.276541,-1.052186 V -7.6314964 c 0,-1.6610923 1.023084,-2.1288726 2.276541,-1.0521862 L 35.789516,11.301066 c 1.257299,1.079986 1.253458,2.834289 0,3.910975 l -7.225182,6.206235 z"
           inkscape:connector-curvature="0"
           sodipodi:nodetypes="sssssscs"
           style="stroke:#ffffff" /><rect
           id="rect4647"
           rx="3.5"
           height="7"
           width="45"
           y="33"
           x="1"
           transform="rotate(180,23.5,36.5)"
           style="stroke:#ffffff" /></g></g></g></g><path
   id="path4763"
   d="M 91.65411,45.355883 78.430044,41.812508 c -1.974635,-0.529102 -4.023145,0.653606 -4.552249,2.628246 l -3.655614,13.642928 c -0.5291,1.974631 0.653604,4.023153 2.628244,4.552248 l 13.224055,3.543383 c 1.97465,0.529097 4.02316,-0.653609 4.55227,-2.628248 l 3.65561,-13.642924 c 0.5291,-1.974643 -0.65361,-4.023154 -2.62825,-4.552258 z m -0.94052,2.313329 -7.982471,4.659268 -4.643225,-8.042307 z m -17.905512,10.337762 3.270815,-12.206839 4.468006,7.738818 z m 0.982867,2.315629 8.042299,-4.643213 4.643236,8.042289 z m 14.634695,1.869088 -4.468004,-7.73884 7.738824,-4.467999 z"
   inkscape:connector-curvature="0"
   style="fill:#ffffff;stroke-width:0.61948234" /><g
   id="g4809"
   transform="matrix(0.50333278,-0.13486761,0.13486761,0.50333278,-24.339979,53.823562)"
   style="fill:#ffffff"><path
     inkscape:connector-curvature="0"
     d="m 159.2656,41.778979 h -22.1 c -3.3,0 -6,2.7 -6,6 v 60.000001 c 0,3.3 2.7,6 6,6 h 22.1 c 3.3,0 6,-2.7 6,-6 V 47.778979 c 0,-3.3 -2.7,-6 -6,-6 z m 2,66.000001 c 0,1.1 -0.9,2 -2,2 h -22.1 c -1.1,0 -2,-0.9 -2,-2 V 47.778979 c 0,-1.1 0.9,-2 2,-2 h 9.1 v 4 c 0,1.1 0.9,2 2,2 1.1,0 2,-0.9 2,-2 v -4 h 9.1 c 1.1,0 2,0.9 2,2 v 60.000001 z"
     id="path4761"
     style="fill:#ffffff" /><path
     inkscape:connector-curvature="0"
     d="m 154.3656,93.678979 h -13.9 c -1.1,0 -2,0.9 -2,2 v 8.600001 c 0,1.1 0.9,2 2,2 h 13.9 c 1.1,0 2,-0.9 2,-2 v -8.600001 c 0,-1.1 -0.9,-2 -2,-2 z m -2,8.500001 h -9.9 v -4.600001 h 9.9 z"
     id="path4765"
     style="fill:#ffffff" /><path
     inkscape:connector-curvature="0"
     d="m 143.9656,69.978979 2.3,-2.3 v 12.5 c 0,1.1 0.9,2 2,2 1.1,0 2,-0.9 2,-2 v -12.5 l 2.3,2.3 c 0.8,0.8 2.1,0.7 2.8,0 0.8,-0.8 0.8,-2 0,-2.8 l -5.7,-5.7 c -0.8,-0.8 -2,-0.8 -2.8,0 l -5.7,5.7 c -0.8,0.8 -0.8,2 0,2.8 0.7,0.7 2,0.7 2.8,0 z"
     id="path4767"
     style="fill:#ffffff" /></g><path
   id="path4769"
   d="m 35.124066,67.811234 -12.49227,7.212416 c -1.865363,1.076967 -2.510412,3.484328 -1.433445,5.34969 l 7.375592,12.77489 c 1.076967,1.86536 3.484327,2.51041 5.34969,1.43345 l 12.49227,-7.21241 c 1.865362,-1.07697 2.510412,-3.484328 1.433444,-5.34969 l -7.375592,-12.7749 c -1.076967,-1.865362 -3.484327,-2.510413 -5.349689,-1.433446 z m 10.464236,15.513761 c 0.35899,0.621789 0.143973,1.424239 -0.477814,1.783229 l -12.49227,7.212406 c -0.621789,0.35899 -1.424241,0.14398 -1.783231,-0.47781 l -0.424259,-0.73484 0.791365,-0.4569 c 0.621788,-0.35899 0.836805,-1.16144 0.477816,-1.78323 -0.358989,-0.62178 -1.161443,-0.8368 -1.783231,-0.47781 l -0.791365,0.45689 -1.305415,-2.26104 3.052411,-1.762306 c 0.621787,-0.35898 0.836804,-1.161439 0.477815,-1.783225 -0.358989,-0.621788 -1.161443,-0.836805 -1.78323,-0.477816 l -3.052411,1.762311 -3.035088,-5.256929 c -0.358989,-0.621787 -0.143973,-1.42424 0.477816,-1.78323 l 5.143876,-2.969818 0.652707,1.130522 c 0.358989,0.621787 1.161442,0.836804 1.783229,0.477815 0.621787,-0.358989 0.836804,-1.161443 0.477815,-1.783229 l -0.652707,-1.130523 5.143875,-2.969818 c 0.621789,-0.358989 1.424242,-0.143972 1.783231,0.477815 l 7.375592,12.7749 z"
   inkscape:connector-curvature="0"
   style="fill:#ffffff;stroke-width:0.65270734" /><path
   style="fill:#ffffff;stroke-width:0.61948234"
   inkscape:connector-curvature="0"
   d="m 31.110745,50.119716 -11.856373,-6.84528 c -1.77041,-1.022147 -4.055227,-0.409931 -5.077376,1.360482 L 7.114901,56.866826 c -1.022145,1.770407 -0.409935,4.055231 1.360475,5.077376 l 11.856374,6.84528 c 1.770408,1.02215 4.055232,0.40993 5.077377,-1.36048 l 7.062095,-12.231907 c 1.022149,-1.770413 0.409931,-4.055233 -1.360477,-5.077379 z m -1.507209,1.991079 -8.916377,2.434489 -2.403508,-8.970028 z m -19.971,5.351219 6.318721,-10.944347 2.312817,8.631522 z m 0.350049,2.49111 8.970017,-2.403499 2.403517,8.970007 z m 13.652273,5.593138 -2.312804,-8.631547 8.631526,-2.312803 z"
   id="path4811" /></svg>