<?xml version="1.0" encoding="UTF-8" standalone="no"?>
<!-- Generator: Adobe Illustrator 16.0.0, SVG Export Plug-In . SVG Version: 6.00 Build 0)  -->

<svg
   xmlns:dc="http://purl.org/dc/elements/1.1/"
   xmlns:cc="http://creativecommons.org/ns#"
   xmlns:rdf="http://www.w3.org/1999/02/22-rdf-syntax-ns#"
   xmlns:svg="http://www.w3.org/2000/svg"
   xmlns="http://www.w3.org/2000/svg"
   xmlns:sodipodi="http://sodipodi.sourceforge.net/DTD/sodipodi-0.dtd"
   xmlns:inkscape="http://www.inkscape.org/namespaces/inkscape"
   version="1.1"
   id="Layer_2"
   x="0px"
   y="0px"
   width="100"
   height="100"
   viewBox="0 0 100 100"
   enable-background="new 0 0 960 960"
   xml:space="preserve"
   sodipodi:docname="FlightAssistOn.svg"
   inkscape:version="0.92.3 (2405546, 2018-03-11)"
   inkscape:export-filename="C:\Users\danie\OneDrive\Documents\Elite VR Cockpit Unity\Assets\Textures\Icons\FlightAssistOn.png"
   inkscape:export-xdpi="96"
   inkscape:export-ydpi="96"><metadata
     id="metadata47"><rdf:RDF><cc:Work
         rdf:about=""><dc:format>image/svg+xml</dc:format><dc:type
           rdf:resource="http://purl.org/dc/dcmitype/StillImage" /><dc:title></dc:title></cc:Work></rdf:RDF></metadata><defs
     id="defs45" /><sodipodi:namedview
     pagecolor="#000000"
     bordercolor="#666666"
     borderopacity="1"
     objecttolerance="10"
     gridtolerance="10"
     guidetolerance="10"
     inkscape:pageopacity="0"
     inkscape:pageshadow="2"
     inkscape:window-width="1280"
     inkscape:window-height="657"
     id="namedview43"
     showgrid="false"
     inkscape:pagecheckerboard="true"
     inkscape:zoom="3.828125"
     inkscape:cx="36.281368"
     inkscape:cy="64"
     inkscape:window-x="-8"
     inkscape:window-y="-8"
     inkscape:window-maximized="1"
     inkscape:current-layer="Layer_2"
     fit-margin-top="0"
     fit-margin-left="0"
     fit-margin-right="0"
     fit-margin-bottom="0"
     showguides="false" /><g
     id="g12"
     transform="translate(-14,-846)" /><g
     id="g14"
     transform="translate(-14,-846)" /><g
     id="g16"
     transform="translate(-14,-846)" /><g
     id="g18"
     transform="translate(-14,-846)" /><g
     id="g20"
     transform="translate(-14,-846)" /><g
     id="g22"
     transform="translate(-14,-846)" /><g
     id="g24"
     transform="translate(-14,-846)" /><g
     id="g26"
     transform="translate(-14,-846)" /><g
     id="g28"
     transform="translate(-14,-846)" /><g
     id="g30"
     transform="translate(-14,-846)" /><g
     id="g32"
     transform="translate(-14,-846)" /><g
     id="g34"
     transform="translate(-14,-846)" /><g
     id="g36"
     transform="translate(-14,-846)" /><g
     id="g38"
     transform="translate(-14,-846)" /><g
     id="g40"
     transform="translate(-14,-846)" /><g
     id="g1147"
     transform="translate(-22.189753,-41.995949)"><g
       id="g1102"
       display="none"
       style="display:none"><rect
         id="rect1100"
         height="362.37399"
         width="1426.3051"
         display="inline"
         y="-242.37399"
         x="-362.37399"
         style="display:inline;fill:#000000" /></g><g
       id="g1120"
       transform="translate(22.189849,41.995949)"
       style="fill:#ffffff"><g
         id="g1118"
         style="fill:#ffffff"><path
           id="path1104"
           d="m 37.243,71.376 c -1.41,-2.732 -3.801,-4.751 -6.731,-5.686 -1.145,-0.365 -2.326,-0.55 -3.51,-0.55 -1.84,0 -3.612,0.434 -5.269,1.29 -2.728,1.408 -4.745,3.799 -5.681,6.732 -0.936,2.933 -0.675,6.05 0.734,8.778 1.409,2.728 3.799,4.746 6.732,5.681 2.934,0.936 6.05,0.675 8.778,-0.734 2.732,-1.41 4.751,-3.8 5.686,-6.731 0.935,-2.93 0.672,-6.048 -0.739,-8.78 z"
           inkscape:connector-curvature="0"
           style="fill:#ffffff" /><path
           id="path1106"
           d="M 93.667,10.842 76.584,19.663 74.767,35.91 86.642,29.778 c 3.536,-1.825 6.163,-4.941 7.398,-8.773 1.058,-3.353 0.924,-6.951 -0.373,-10.163 z"
           inkscape:connector-curvature="0"
           style="fill:#ffffff" /><path
           id="path1108"
           d="m 31.359,63.038 c 1.165,0.372 2.302,0.911 3.382,1.602 1.564,1.002 2.895,2.279 3.959,3.797 L 62.432,56.183 63.705,44.762 29.81,62.641 c 0.084,0.016 0.167,0.033 0.251,0.052 0.47,0.103 0.895,0.216 1.298,0.345 z"
           inkscape:connector-curvature="0"
           style="fill:#ffffff" /><path
           id="path1110"
           d="m 14.312,83.217 c -3.616,-7.004 -0.86,-15.646 6.144,-19.262 0.959,-0.495 2.002,-0.885 3.1,-1.161 L 71.794,37.446 73.611,21.199 17.516,50.165 17.515,50.164 17.32,50.33 17.067,50.421 c -0.165,0.059 -0.32,0.14 -0.465,0.216 -4.996,2.58 -8.658,6.915 -10.352,12.226 -1.694,5.311 -1.218,10.965 1.341,15.922 2.623,5.079 7.092,8.755 12.501,10.373 -2.462,-1.353 -4.467,-3.399 -5.78,-5.941 z"
           inkscape:connector-curvature="0"
           style="fill:#ffffff" /><path
           id="path1112"
           d="m 41.104,74.229 c 0.39,2.248 0.228,4.589 -0.469,6.772 -0.782,2.453 -2.207,4.626 -4.11,6.316 3.469,-1.985 6.265,-4.888 8.12,-8.443 l 0.23,-0.405 9.858,-5.09 1.196,-10.706 -15.862,8.19 c 0.492,1.103 0.84,2.234 1.037,3.366 z"
           inkscape:connector-curvature="0"
           style="fill:#ffffff" /><path
           id="path1114"
           d="m 66.677,43.221 -1.273,11.426 9.688,-5.002 c 2.587,-1.335 4.504,-3.613 5.397,-6.414 0.751,-2.355 0.707,-4.795 -0.127,-7.076 z"
           inkscape:connector-curvature="0"
           style="fill:#ffffff" /><path
           id="path1116"
           d="m 58.902,61.138 -1.197,10.706 8.276,-4.274 c 2.442,-1.261 4.254,-3.417 5.101,-6.071 0.707,-2.185 0.673,-4.461 -0.094,-6.601 z"
           inkscape:connector-curvature="0"
           style="fill:#ffffff" /></g></g></g></svg>