<?xml version="1.0" encoding="UTF-8" standalone="no"?>
<!-- Generator: Adobe Illustrator 16.0.0, SVG Export Plug-In . SVG Version: 6.00 Build 0)  -->

<svg
   xmlns:dc="http://purl.org/dc/elements/1.1/"
   xmlns:cc="http://creativecommons.org/ns#"
   xmlns:rdf="http://www.w3.org/1999/02/22-rdf-syntax-ns#"
   xmlns:svg="http://www.w3.org/2000/svg"
   xmlns="http://www.w3.org/2000/svg"
   xmlns:sodipodi="http://sodipodi.sourceforge.net/DTD/sodipodi-0.dtd"
   xmlns:inkscape="http://www.inkscape.org/namespaces/inkscape"
   version="1.1"
   id="Layer_2"
   x="0px"
   y="0px"
   width="100"
   height="100"
   viewBox="0 0 100 100"
   enable-background="new 0 0 960 960"
   xml:space="preserve"
   sodipodi:docname="FlightAssistOff.svg"
   inkscape:version="0.92.3 (2405546, 2018-03-11)"
   inkscape:export-filename="FlightAssistOff.png"
   inkscape:export-xdpi="96"
   inkscape:export-ydpi="96"><metadata
     id="metadata47"><rdf:RDF><cc:Work
         rdf:about=""><dc:format>image/svg+xml</dc:format><dc:type
           rdf:resource="http://purl.org/dc/dcmitype/StillImage" /><dc:title></dc:title></cc:Work></rdf:RDF></metadata><defs
     id="defs45" /><sodipodi:namedview
     pagecolor="#000000"
     bordercolor="#666666"
     borderopacity="1"
     objecttolerance="10"
     gridtolerance="10"
     guidetolerance="10"
     inkscape:pageopacity="0"
     inkscape:pageshadow="2"
     inkscape:window-width="1280"
     inkscape:window-height="657"
     id="namedview43"
     showgrid="false"
     inkscape:pagecheckerboard="true"
     inkscape:zoom="3.828125"
     inkscape:cx="12.930613"
     inkscape:cy="64"
     inkscape:window-x="-8"
     inkscape:window-y="-8"
     inkscape:window-maximized="1"
     inkscape:current-layer="Layer_2"
     fit-margin-top="0"
     fit-margin-left="0"
     fit-margin-right="0"
     fit-margin-bottom="0"
     showguides="false" /><g
     id="g12"
     transform="translate(-14,-846)" /><g
     id="g14"
     transform="translate(-14,-846)" /><g
     id="g16"
     transform="translate(-14,-846)" /><g
     id="g18"
     transform="translate(-14,-846)" /><g
     id="g20"
     transform="translate(-14,-846)" /><g
     id="g22"
     transform="translate(-14,-846)" /><g
     id="g24"
     transform="translate(-14,-846)" /><g
     id="g26"
     transform="translate(-14,-846)" /><g
     id="g28"
     transform="translate(-14,-846)" /><g
     id="g30"
     transform="translate(-14,-846)" /><g
     id="g32"
     transform="translate(-14,-846)" /><g
     id="g34"
     transform="translate(-14,-846)" /><g
     id="g36"
     transform="translate(-14,-846)" /><g
     id="g38"
     transform="translate(-14,-846)" /><g
     id="g40"
     transform="translate(-14,-846)" /><g
     id="g1147"
     transform="translate(-22.189753,-41.995949)"><g
       id="g1102"
       display="none"
       style="display:none"><rect
         id="rect1100"
         height="362.37399"
         width="1426.3051"
         display="inline"
         y="-242.37399"
         x="-362.37399"
         style="display:inline;fill:#000000" /></g><g
       id="g1252"
       transform="translate(4.0501622,-10.050082)"
       style="fill:#ffffff"><g
         id="g1228"
         display="none"
         style="display:none;fill:#ffffff"><rect
           id="rect1226"
           height="362.37399"
           width="1426.3051"
           display="inline"
           y="-122.374"
           x="-362.37399"
           style="display:inline;fill:#ffffff" /></g><g
         id="g1232"
         transform="matrix(1.0779844,0,0,1.0779844,14.220184,48.998769)"
         style="fill:#ffffff;stroke-width:0.92765725"><path
           id="path1230"
           d="M 89.437,12.134 20.47,47.747 c -0.085,0.043 -0.199,0.109 -0.322,0.19 l -0.217,0.087 -0.023,0.024 c -0.146,0.066 -0.286,0.137 -0.42,0.207 -4.978,2.571 -8.657,6.924 -10.358,12.259 -1.702,5.335 -1.223,11.015 1.347,15.993 2.571,4.978 6.924,8.656 12.259,10.358 2.099,0.669 4.25,1.001 6.392,1.001 3.303,0 6.581,-0.79 9.601,-2.349 3.712,-1.917 6.711,-4.852 8.72,-8.494 l 17.776,-9.179 c 2.777,-1.435 4.835,-3.881 5.793,-6.884 0.811,-2.512 0.742,-5.161 -0.157,-7.603 l 2.34,-1.208 c 2.904,-1.5 5.054,-4.053 6.054,-7.188 0.849,-2.659 0.77,-5.454 -0.185,-8.014 l 4.244,-2.192 c 3.731,-1.927 6.502,-5.211 7.805,-9.255 1.277,-4.043 0.919,-8.325 -1.008,-12.058 z M 13.092,75.156 c -2.21,-4.279 -2.622,-9.162 -1.159,-13.748 1.462,-4.586 4.625,-8.329 8.906,-10.539 0.127,-0.066 0.262,-0.14 0.409,-0.193 l 0.322,-0.115 0.097,-0.1 48.699,-25.161 -1.522,13.615 -39.819,20.561 -3.922,2.025 0.029,0.055 c -0.376,0.151 -0.749,0.317 -1.116,0.507 -3.03,1.565 -5.27,4.217 -6.307,7.466 -1.036,3.25 -0.745,6.708 0.82,9.739 0.867,1.679 2.059,3.082 3.458,4.178 -3.836,-1.641 -6.956,-4.535 -8.895,-8.29 z M 47.611,62.051 40.176,65.89 C 38.299,63.316 35.58,61.596 32.6,60.942 L 61.693,45.92 60.645,55.321 Z M 34.382,82.14 c -2.333,1.205 -4.994,1.429 -7.494,0.631 -2.5,-0.797 -4.541,-2.521 -5.745,-4.854 -1.205,-2.332 -1.429,-4.994 -0.631,-7.494 0.798,-2.5 2.521,-4.541 4.854,-5.745 1.415,-0.73 2.95,-1.101 4.498,-1.101 1.004,0 2.013,0.156 2.997,0.47 2.5,0.797 4.541,2.521 5.745,4.854 2.485,4.814 0.591,10.753 -4.224,13.239 z m 19.524,-11.764 -9.499,4.905 0.309,0.598 c -1.237,2.153 -2.881,4.009 -4.858,5.473 2.831,-3.57 3.625,-8.51 1.771,-12.9 l 7.332,-3.786 v 0 l 5.924,-3.059 z M 68.217,60.06 c -0.721,2.259 -2.263,4.095 -4.342,5.168 l -6.826,3.525 0.98,-8.77 10.2,-5.267 c 0.555,1.73 0.557,3.581 -0.012,5.344 z m 8.235,-15.994 c -0.761,2.387 -2.395,4.329 -4.601,5.468 l -8.063,4.164 1.048,-9.401 11.603,-5.991 c 0.611,1.852 0.622,3.851 0.013,5.76 z M 88.316,24.605 c -1.06,3.291 -3.315,5.967 -6.352,7.535 l -9.978,5.152 1.522,-13.616 14.589,-7.538 c 1.024,2.697 1.107,5.654 0.219,8.467 z"
           inkscape:connector-curvature="0"
           style="fill:#ffffff;stroke-width:0.92765725" /></g></g></g></svg>