<?xml version="1.0" encoding="UTF-8" standalone="no"?>
<svg
   xmlns:dc="http://purl.org/dc/elements/1.1/"
   xmlns:cc="http://creativecommons.org/ns#"
   xmlns:rdf="http://www.w3.org/1999/02/22-rdf-syntax-ns#"
   xmlns:svg="http://www.w3.org/2000/svg"
   xmlns="http://www.w3.org/2000/svg"
   xmlns:sodipodi="http://sodipodi.sourceforge.net/DTD/sodipodi-0.dtd"
   xmlns:inkscape="http://www.inkscape.org/namespaces/inkscape"
   xml:space="preserve"
   style="clip-rule:evenodd;fill-rule:evenodd;image-rendering:optimizeQuality;shape-rendering:geometricPrecision;text-rendering:geometricPrecision"
   viewBox="0 0 99.999995 100"
   x="0px"
   y="0px"
   version="1.1"
   id="svg14"
   sodipodi:docname="FSSMode.svg"
   width="100"
   height="100"
   inkscape:version="0.92.3 (2405546, 2018-03-11)"
   inkscape:export-filename="FSSMode.png"
   inkscape:export-xdpi="192"
   inkscape:export-ydpi="192"><metadata
     id="metadata18"><rdf:RDF><cc:Work
         rdf:about=""><dc:format>image/svg+xml</dc:format><dc:type
           rdf:resource="http://purl.org/dc/dcmitype/StillImage" /><dc:title></dc:title></cc:Work></rdf:RDF></metadata><sodipodi:namedview
     pagecolor="#ffffff"
     bordercolor="#666666"
     borderopacity="1"
     objecttolerance="10"
     gridtolerance="10"
     guidetolerance="10"
     inkscape:pageopacity="0"
     inkscape:pageshadow="2"
     inkscape:window-width="2560"
     inkscape:window-height="1377"
     id="namedview16"
     showgrid="false"
     inkscape:pagecheckerboard="true"
     inkscape:zoom="5.9"
     inkscape:cx="45.690647"
     inkscape:cy="54.0803"
     inkscape:window-x="-8"
     inkscape:window-y="-8"
     inkscape:window-maximized="1"
     inkscape:current-layer="svg14" /><defs
     id="defs4"><style
       type="text/css"
       id="style2">
   
    .fil0 {fill:black;fill-rule:nonzero}
   
  </style></defs><g
     id="g8"
     transform="matrix(12.474722,0,0,13.099293,-2.8092406,-5.453892)"><path
       class="fil0"
       d="m 4.0517,0.6072 c 1.0012,0 1.9079,0.406 2.564,1.0622 0.6469,0.6468 1.0506,1.5373 1.0619,2.5215 H 8.041 V 4.2757 H 4.0517 V 4.1909 H 4.6103 C 4.6,4.053 4.5398,3.929 4.448,3.8372 4.3467,3.7359 4.2065,3.6732 4.0517,3.6732 3.897,3.6732 3.7568,3.7359 3.6555,3.8372 3.5543,3.9384 3.4916,4.0786 3.4916,4.2334 c 0,0.1548 0.0628,0.295 0.1639,0.3962 C 3.7567,4.7307 3.897,4.7935 4.0517,4.7935 4.2934,4.8116 4.4257,4.6851 4.568,4.5697 4.4284,4.7467 4.302,4.8446 4.0517,4.8659 3.8773,4.8659 3.719,4.795 3.6046,4.6806 l -1e-4,-10e-5 C 3.4901,4.5661 3.4192,4.4079 3.4192,4.2334 3.4192,4.0589 3.4901,3.9005 3.6045,3.7862 3.719,3.6716 3.8772,3.6008 4.0517,3.6008 c 0.1745,0 0.3328,0.0708 0.4473,0.1854 0.105,0.1049 0.1734,0.2471 0.1839,0.4047 H 5.3482 C 5.3372,3.8495 5.1944,3.5413 4.9691,3.316 4.7345,3.0814 4.4101,2.9362 4.0517,2.9362 3.6934,2.9362 3.369,3.0814 3.1344,3.316 2.8998,3.5506 2.7546,3.8751 2.7546,4.2334 c 0,0.3583 0.1452,0.6827 0.3798,0.9173 C 3.2133,5.2296 3.3025,5.2985 3.3996,5.355 3.428,5.2978 3.487,5.2585 3.5552,5.2585 c 0.0959,0 0.1736,0.0777 0.1736,0.1736 0,0.0194 -0.0032,0.0381 -0.0091,0.0556 C 3.8256,5.5156 3.937,5.5305 4.0517,5.5305 4.5993,5.5495 4.8903,5.3001 5.1704,4.9737 4.9127,5.3405 4.6388,5.6035 4.0517,5.6153 3.9195,5.6153 3.7915,5.5967 3.6704,5.562 3.6398,5.5892 3.5994,5.6057 3.5552,5.6057 3.4627,5.6057 3.3872,5.5334 3.3819,5.4423 3.2688,5.3795 3.1654,5.3013 3.0746,5.2105 2.8245,4.9604 2.6698,4.6148 2.6698,4.2334 2.6698,3.852 2.8246,3.5064 3.0746,3.2563 V 3.2562 C 3.3247,3.0061 3.6703,2.8514 4.0517,2.8514 c 0.3815,0 0.7271,0.1547 0.9772,0.4048 v 10e-5 c 0.2407,0.2408 0.393,0.57 0.4041,0.9346 H 6.0262 C 6.015,3.6623 5.7963,3.1847 5.4483,2.8367 v -1e-4 C 5.0912,2.4794 4.5972,2.2583 4.0517,2.2583 3.5835,2.2583 3.1533,2.4211 2.815,2.6931 2.8492,2.7311 2.87,2.7815 2.87,2.8367 2.87,2.9554 2.7738,3.0516 2.6551,3.0516 2.5999,3.0516 2.5496,3.0308 2.5116,2.9967 2.2395,3.3351 2.0767,3.7652 2.0767,4.2333 c 0,0.5455 0.2211,1.0395 0.5783,1.3966 l 1e-4,10e-5 C 3.0122,5.9872 3.5062,6.2083 4.0517,6.2083 4.7729,6.2528 5.3953,5.8993 5.7208,5.2897 5.365,5.9586 4.9382,6.2931 4.0517,6.2931 3.4831,6.2931 2.9681,6.0625 2.5954,5.6897 v -10e-5 h -1e-4 C 2.2225,5.3169 1.9919,4.8019 1.9919,4.2333 1.9919,3.7372 2.1676,3.282 2.4598,2.9264 2.4472,2.8991 2.4402,2.8687 2.4402,2.8367 c 0,-0.1187 0.0962,-0.2149 0.2149,-0.2149 0.0321,0 0.0625,0.007 0.0898,0.0196 0.3556,-0.2923 0.8107,-0.4679 1.3068,-0.4679 0.5686,0 1.0836,0.2307 1.4563,0.6035 l 10e-5,-1e-4 C 5.8715,3.1403 6.0998,3.639 6.111,4.1909 H 6.8202 C 6.809,3.443 6.5013,2.767 6.0096,2.2754 5.8855,2.1513 5.7496,2.0389 5.6038,1.94 5.5093,2.1149 5.3243,2.2337 5.1116,2.2337 4.8028,2.2337 4.5524,1.9833 4.5524,1.6745 4.5524,1.6187 4.5606,1.5648 4.5758,1.514 4.4061,1.4815 4.2309,1.4645 4.0517,1.4645 c -0.7647,0 -1.457,0.3099 -1.9579,0.8109 -0.501,0.5009 -0.8109,1.1932 -0.8109,1.9579 0,0.1373 0.0101,0.2723 0.0294,0.4043 0.0238,-0.0051 0.0484,-0.0077 0.0737,-0.0077 0.1959,0 0.3547,0.1588 0.3547,0.3547 0,0.1546 -0.0988,0.2861 -0.2367,0.3347 0.14,0.328 0.3414,0.6235 0.5898,0.8719 C 2.5947,6.6922 3.287,7.0021 4.0517,7.0021 5.0144,7.0257 5.8966,6.5371 6.3979,5.7043 5.911,6.574 5.2394,7.0473 4.0517,7.0869 3.2639,7.0869 2.5504,6.7675 2.034,6.251 1.7742,5.9913 1.5644,5.6816 1.4199,5.3378 1.4087,5.3389 1.3974,5.3394 1.386,5.3394 1.19,5.3394 1.0312,5.1806 1.0312,4.9846 1.0312,4.8444 1.1126,4.7232 1.2307,4.6656 1.2092,4.5247 1.1981,4.3803 1.1981,4.2333 1.1981,3.4455 1.5175,2.732 2.034,2.2156 2.5504,1.6991 3.2639,1.3797 4.0517,1.3797 c 0.1899,0 0.3755,0.0187 0.555,0.0541 0.09,-0.1883 0.2823,-0.3185 0.5049,-0.3185 0.3088,0 0.5592,0.2504 0.5592,0.5592 0,0.0656 -0.0114,0.1285 -0.0321,0.187 0.155,0.1039 0.2992,0.2226 0.4307,0.3541 0.5072,0.5071 0.8244,1.2043 0.8356,1.9753 H 7.5909 C 7.5796,3.2303 7.1857,2.3616 6.5546,1.7305 5.9142,1.0901 5.0292,0.6939 4.0517,0.6939 3.0743,0.6939 2.1893,1.0901 1.5489,1.7305 0.9085,2.3709 0.5123,3.2559 0.5123,4.2333 c 0,0.9775 0.3962,1.8625 1.0366,2.5029 C 2.1893,7.3766 3.0743,7.7728 4.0517,7.7728 5.3042,7.7651 6.3763,7.0956 7.0553,6.1069 6.3638,7.1536 5.5197,7.8069 4.0517,7.8595 3.0506,7.8595 2.1439,7.4535 1.4878,6.7973 0.8316,6.1412 0.4256,5.2345 0.4256,4.2333 0.4256,3.2323 0.8316,2.3255 1.4878,1.6694 2.1439,1.0132 3.0506,0.6072 4.0517,0.6072 Z"
       id="path6"
       inkscape:connector-curvature="0"
       style="fill:#ffffff;fill-rule:nonzero" /></g></svg>