<?xml version="1.0" encoding="UTF-8" standalone="no"?>
<!DOCTYPE svg PUBLIC "-//W3C//DTD SVG 1.1//EN" "http://www.w3.org/Graphics/SVG/1.1/DTD/svg11.dtd">
<svg width="100%" height="100%" viewBox="0 0 128 100" version="1.1" xmlns="http://www.w3.org/2000/svg" xmlns:xlink="http://www.w3.org/1999/xlink" xml:space="preserve" xmlns:serif="http://www.serif.com/" style="fill-rule:evenodd;clip-rule:evenodd;stroke-linejoin:round;stroke-miterlimit:2;">
    <g transform="matrix(0.187035,0,0,0.187035,4.15017,-0.386873)">
        <path d="M320,32C311.9,32 303.9,33.4 296.3,36.1L15.8,137.4C6.3,140.9 0,149.9 0,160C0,170.1 6.3,179.1 15.8,182.6L73.7,203.5C57.3,229.3 48,259.8 48,291.9L48,320C48,348.4 37.2,377.7 25.7,400.8C19.2,413.8 11.8,426.6 3.2,438.4C0,442.7 -0.9,448.3 0.9,453.4C2.7,458.5 6.9,462.3 12.1,463.6L76.1,479.6C80.3,480.7 84.8,479.9 88.5,477.6C92.2,475.3 94.8,471.5 95.6,467.2C104.2,424.4 99.9,386 93.5,358.5C90.3,344.3 86,329.8 80,316.5L80,291.9C80,261.7 90.2,233.2 107.9,210.4C120.8,194.9 137.5,182.4 157.1,174.7L314.1,113C322.3,109.8 331.6,113.8 334.8,122C338,130.2 334,139.5 325.8,142.7L168.8,204.4C156.4,209.3 145.5,216.8 136.6,226L296.2,283.6C303.8,286.3 311.8,287.7 319.9,287.7C328,287.7 336,286.3 343.6,283.6L624.2,182.6C633.7,179.2 640,170.1 640,160C640,149.9 633.7,140.9 624.2,137.4L343.7,36.1C336.1,33.4 328.1,32 320,32ZM128,408C128,443.3 214,480 320,480C426,480 512,443.3 512,408L496.7,262.6L354.5,314C343.4,318 331.7,320 320,320C308.3,320 296.5,318 285.5,314L143.3,262.6L128,408Z" style="fill:white;fill-opacity:0;fill-rule:nonzero;stroke:white;stroke-width:16.04px;"/>
    </g>
</svg>
