<?xml version="1.0" encoding="UTF-8" standalone="no"?>
<svg
   xmlns:dc="http://purl.org/dc/elements/1.1/"
   xmlns:cc="http://creativecommons.org/ns#"
   xmlns:rdf="http://www.w3.org/1999/02/22-rdf-syntax-ns#"
   xmlns:svg="http://www.w3.org/2000/svg"
   xmlns="http://www.w3.org/2000/svg"
   xmlns:sodipodi="http://sodipodi.sourceforge.net/DTD/sodipodi-0.dtd"
   xmlns:inkscape="http://www.inkscape.org/namespaces/inkscape"
   version="1.1"
   x="0px"
   y="0px"
   viewBox="0 0 24.799999 24.799999"
   xml:space="preserve"
   id="svg20"
   sodipodi:docname="Info.svg"
   width="24.799999"
   height="24.799999"
   inkscape:export-filename="C:\Users\danie\OneDrive\Documents\Elite VR Cockpit Unity\Assets\Textures\Icons\Info.png"
   inkscape:export-xdpi="247.74194"
   inkscape:export-ydpi="247.74194"
   inkscape:version="0.92.3 (2405546, 2018-03-11)"><metadata
     id="metadata26"><rdf:RDF><cc:Work
         rdf:about=""><dc:format>image/svg+xml</dc:format><dc:type
           rdf:resource="http://purl.org/dc/dcmitype/StillImage" /><dc:title></dc:title></cc:Work></rdf:RDF></metadata><defs
     id="defs24" /><sodipodi:namedview
     pagecolor="#000000"
     bordercolor="#666666"
     borderopacity="1"
     objecttolerance="10"
     gridtolerance="10"
     guidetolerance="10"
     inkscape:pageopacity="0"
     inkscape:pageshadow="2"
     inkscape:window-width="1280"
     inkscape:window-height="657"
     id="namedview22"
     showgrid="false"
     fit-margin-top="0"
     fit-margin-left="0"
     fit-margin-right="0"
     fit-margin-bottom="0"
     inkscape:pagecheckerboard="true"
     inkscape:zoom="7.6437247"
     inkscape:cx="12.675973"
     inkscape:cy="14.880599"
     inkscape:window-x="-8"
     inkscape:window-y="-8"
     inkscape:window-maximized="1"
     inkscape:current-layer="svg20" /><style
     type="text/css"
     id="style2">
	.st0{fill:#010101;}
</style><g
     id="g12"
     style="fill:#ffffff"><path
       class="st0"
       d="M 12.4,0 C 5.6,0 0,5.6 0,12.4 0,19.2 5.6,24.8 12.4,24.8 19.2,24.8 24.8,19.2 24.8,12.4 24.8,5.6 19.1,0 12.4,0 Z m 0,23.2 C 6.5,23.2 1.6,18.3 1.6,12.4 1.6,6.5 6.5,1.6 12.4,1.6 c 5.9,0 10.8,4.9 10.8,10.8 0,5.9 -4.9,10.8 -10.8,10.8 z"
       id="path4"
       inkscape:connector-curvature="0"
       style="fill:#ffffff" /><g
       id="g10"
       style="fill:#ffffff"><path
         class="st0"
         d="m 13.5,18.2 c 0,0.5 -0.4,1 -1,1 h -0.3 c -0.5,0 -1,-0.4 -1,-1 V 9.9 c 0,-0.5 0.4,-1 1,-1 h 0.3 c 0.5,0 1,0.4 1,1 z"
         id="path6"
         inkscape:connector-curvature="0"
         style="fill:#ffffff" /><circle
         class="st0"
         cx="12.4"
         cy="6.6999998"
         r="1.1"
         id="circle8"
         style="fill:#ffffff" /></g></g></svg>