<?xml version="1.0" encoding="UTF-8" standalone="no"?>
<svg
   xmlns:dc="http://purl.org/dc/elements/1.1/"
   xmlns:cc="http://creativecommons.org/ns#"
   xmlns:rdf="http://www.w3.org/1999/02/22-rdf-syntax-ns#"
   xmlns:svg="http://www.w3.org/2000/svg"
   xmlns="http://www.w3.org/2000/svg"
   xmlns:sodipodi="http://sodipodi.sourceforge.net/DTD/sodipodi-0.dtd"
   xmlns:inkscape="http://www.inkscape.org/namespaces/inkscape"
   version="1.1"
   x="0px"
   y="0px"
   viewBox="0 0 100 100"
   xml:space="preserve"
   id="svg8"
   sodipodi:docname="Joystick.svg"
   width="100"
   height="100"
   inkscape:version="0.92.3 (2405546, 2018-03-11)"
   inkscape:export-filename="Joystick.png"
   inkscape:export-xdpi="192"
   inkscape:export-ydpi="192"><metadata
     id="metadata14"><rdf:RDF><cc:Work
         rdf:about=""><dc:format>image/svg+xml</dc:format><dc:type
           rdf:resource="http://purl.org/dc/dcmitype/StillImage" /><dc:title></dc:title></cc:Work></rdf:RDF></metadata><defs
     id="defs12" /><sodipodi:namedview
     pagecolor="#000000"
     bordercolor="#666666"
     borderopacity="1"
     objecttolerance="10"
     gridtolerance="10"
     guidetolerance="10"
     inkscape:pageopacity="0"
     inkscape:pageshadow="2"
     inkscape:window-width="2560"
     inkscape:window-height="1377"
     id="namedview10"
     showgrid="false"
     inkscape:pagecheckerboard="true"
     fit-margin-top="0"
     fit-margin-left="0"
     fit-margin-right="0"
     fit-margin-bottom="0"
     inkscape:zoom="2.95"
     inkscape:cx="-44.79661"
     inkscape:cy="24"
     inkscape:window-x="-8"
     inkscape:window-y="-8"
     inkscape:window-maximized="1"
     inkscape:current-layer="svg8" /><path
     class="Graphic_x0020_Style_x0020_2"
     d="m 84.406745,100 h -68.81349 c -0.938365,0 -1.563942,-0.625573 -1.563942,-1.56394 0,-7.819716 6.255771,-14.075487 14.075487,-14.075487 h 9.383655 v -4.691829 c 0,-0.938365 0.625579,-1.563942 1.563946,-1.563942 h 4.691829 v -3.127885 c 0,-0.938367 0.625574,-1.563944 1.563941,-1.563944 0.938368,0 1.563943,0.625577 1.563943,1.563944 v 3.127885 h 6.255772 v -3.127885 c 0,-0.938367 0.625577,-1.563944 1.563944,-1.563944 0.938365,0 1.563942,0.625577 1.563942,1.563944 v 3.127885 H 60.9476 c 0.938365,0 1.563944,0.625577 1.563944,1.563942 v 4.691829 h 9.383657 c 7.819715,0 14.075486,6.255771 14.075486,14.075487 0,0.938367 -0.625577,1.56394 -1.563942,1.56394 z M 17.313593,96.872118 H 82.842802 C 82.060831,91.554711 77.525395,87.48846 72.051594,87.48846 H 51.563943 c -0.938364,0 -1.563942,-0.625578 -1.563942,-1.563943 0,-0.938366 0.625578,-1.563944 1.563942,-1.563944 h 7.819716 V 81.232688 H 40.616343 v 3.127885 h 3.127887 c 0.938364,0 1.563941,0.625578 1.563941,1.563944 0,0.938365 -0.625577,1.563943 -1.563941,1.563943 H 28.1048 c -5.473801,0 -10.009236,4.066251 -10.791207,9.383658 z M 70.331258,71.84903 H 28.1048 c -0.938366,0 -1.563944,-0.625577 -1.563944,-1.563942 v -4.691829 c 0,-0.625578 0.312789,-1.09476 0.938366,-1.407549 l 9.383658,-4.691829 c 2.189521,-1.09476 2.189521,-1.876731 2.189521,-3.28428 0,-1.407549 0,-2.18952 -2.189521,-3.28428 -0.625577,-0.312789 -0.938366,-0.781971 -0.938366,-1.407549 0,-0.625578 0.312789,-1.09476 0.938366,-1.407549 2.189521,-1.09476 2.189521,-1.876731 2.189521,-3.28428 0,-1.407548 0,-2.18952 -2.189521,-3.28428 -0.625577,-0.312788 -0.938366,-0.781972 -0.938366,-1.407548 0,-0.625577 0.312789,-1.09476 0.938366,-1.407548 2.189521,-1.09476 2.189521,-1.876732 2.189521,-3.28428 0,-1.251156 0,-2.033127 -1.876733,-3.127887 h -7.506926 c -0.938367,0 -1.563942,-0.625578 -1.563942,-1.563942 v -7.819716 c 0,-0.938365 0.625575,-1.563942 1.563942,-1.563942 0.938367,0 1.563943,0.625577 1.563943,1.563942 v 6.255771 h 4.691829 v -2.033124 c 0,-2.971492 -1.720338,-5.630196 -4.37904,-7.037744 l -3.127886,-1.563943 c -3.127886,-1.563943 -4.37904,-5.317405 -2.815097,-8.445292 l 2.033125,-4.066251 c 0.781973,-1.5639422 2.033126,-2.6587022 3.597069,-3.1278867 1.563944,-0.4691822 3.284279,-0.4691822 4.848224,0.3127889 L 56.88135,15.703479 c 2.033125,1.09476 3.597069,2.815098 4.222645,5.004618 0.781971,2.18952 0.625578,4.535434 -0.469182,6.56856 -0.312789,0.781972 -1.251154,1.09476 -2.033127,0.625576 -0.781971,-0.312788 -1.09476,-1.251153 -0.625576,-2.033125 0.625576,-1.251155 0.781971,-2.815097 0.312789,-4.222646 -0.469184,-1.407549 -1.407549,-2.502309 -2.658704,-3.127885 L 34.67336,8.040159 C 33.891389,7.7273701 33.109416,7.5709768 32.327444,7.8837645 c -0.78197,0.3127878 -1.407548,0.7819723 -1.87673,1.5639434 l -2.033126,4.0662511 c -0.781973,1.563942 -0.156394,3.440674 1.407548,4.222646 l 3.127887,1.563943 c 3.753462,1.876731 6.099378,5.630194 6.099378,9.852841 v 2.658702 c 2.815095,1.720338 3.127884,3.597069 3.127884,5.630196 0,1.563942 -0.156393,3.28428 -1.876731,4.691828 1.720338,1.407548 1.876731,3.127885 1.876731,4.691828 0,1.563944 -0.156393,3.28428 -1.876731,4.691829 1.720338,1.407549 1.876731,3.127886 1.876731,4.691829 0,2.18952 -0.312789,4.222647 -4.066251,6.099378 l -8.445292,4.222644 v 2.189521 h 39.098572 v -2.189521 l -5.004615,-2.502306 c -2.658704,-1.407549 -4.37904,-4.066254 -4.37904,-7.194138 V 36.50392 c 0,-1.720338 -0.938367,-3.440675 -2.658704,-4.222647 L 44.526201,26.181897 C 43.74423,25.869108 43.43144,24.930742 43.900622,24.148771 44.369804,23.3668 45.151775,23.054011 45.93375,23.523193 l 12.198753,6.099378 c 2.658702,1.407549 4.379041,4.066251 4.379041,7.037742 v 20.331259 c 0,1.876731 1.09476,3.440676 2.658701,4.37904 l 5.786589,2.971491 c 0.469185,0.312789 0.938367,0.781974 0.938367,1.407549 v 4.691829 c 0,0.781972 -0.625578,1.407549 -1.563943,1.407549 z M 53.127886,57.773543 c -0.156394,0 -0.469183,0 -0.625576,-0.156393 l -6.255772,-3.127887 c -0.781973,-0.312789 -1.094763,-1.251153 -0.625578,-2.033125 0.469182,-0.781971 1.251153,-1.09476 2.033124,-0.625577 l 6.255774,3.127886 c 0.781971,0.312787 1.09476,1.251154 0.625576,2.033125 -0.312789,0.469182 -0.781972,0.781971 -1.407548,0.781971 z m 0,-9.383656 c -0.156394,0 -0.469183,0 -0.625576,-0.156395 l -6.255772,-3.127885 c -0.781973,-0.312789 -1.094763,-1.251156 -0.625578,-2.033127 0.469182,-0.781971 1.251153,-1.09476 2.033124,-0.625577 l 6.255774,3.127886 c 0.781971,0.312789 1.09476,1.251154 0.625576,2.033126 -0.312789,0.469183 -0.781972,0.781972 -1.407548,0.781972 z m 0,-9.383658 c -0.156394,0 -0.469183,0 -0.625576,-0.156394 l -6.255772,-3.127886 c -0.781973,-0.312789 -1.094763,-1.251156 -0.625578,-2.033127 0.469182,-0.781971 1.251153,-1.09476 2.033124,-0.625577 l 6.255774,3.127886 c 0.781971,0.312789 1.09476,1.251156 0.625576,2.033127 -0.312789,0.469182 -0.781972,0.781971 -1.407548,0.781971 z m 1.563944,-26.58703 c -0.156396,0 -0.469184,0 -0.625578,-0.156394 -0.781971,-0.312788 -1.09476,-1.251155 -0.625577,-2.033126 L 54.379041,8.5093412 44.682594,3.661119 43.74423,5.3814568 C 43.431441,6.1634279 42.493074,6.4762168 41.711103,6.0070323 40.929132,5.6942434 40.616343,4.755879 41.085525,3.9739079 L 42.64947,0.84602122 c 0.312786,-0.78197111 1.251153,-1.09475989 2.033124,-0.62557778 L 57.194138,6.4762168 c 0.781971,0.3127866 1.094761,1.2511533 0.625577,2.0331244 l -1.563943,3.1278868 c -0.469182,0.469182 -0.938367,0.781971 -1.563942,0.781971 z"
     id="path2"
     inkscape:connector-curvature="0"
     style="fill:#ffffff;stroke-width:1.56394279" /></svg>