<?xml version="1.0" encoding="UTF-8" standalone="no"?>
<!-- Generator: Adobe Illustrator 16.0.0, SVG Export Plug-In . SVG Version: 6.00 Build 0)  -->

<svg
   xmlns:dc="http://purl.org/dc/elements/1.1/"
   xmlns:cc="http://creativecommons.org/ns#"
   xmlns:rdf="http://www.w3.org/1999/02/22-rdf-syntax-ns#"
   xmlns:svg="http://www.w3.org/2000/svg"
   xmlns="http://www.w3.org/2000/svg"
   xmlns:sodipodi="http://sodipodi.sourceforge.net/DTD/sodipodi-0.dtd"
   xmlns:inkscape="http://www.inkscape.org/namespaces/inkscape"
   version="1.1"
   id="Layer_2"
   x="0px"
   y="0px"
   width="128"
   height="128"
   viewBox="0 0 128 128"
   enable-background="new 0 0 960 960"
   xml:space="preserve"
   sodipodi:docname="LandingGear.svg"
   inkscape:version="0.92.2 5c3e80d, 2017-08-06"
   inkscape:export-filename="LandingGear.png"
   inkscape:export-xdpi="96"
   inkscape:export-ydpi="96"><metadata
     id="metadata47"><rdf:RDF><cc:Work
         rdf:about=""><dc:format>image/svg+xml</dc:format><dc:type
           rdf:resource="http://purl.org/dc/dcmitype/StillImage" /><dc:title></dc:title></cc:Work></rdf:RDF></metadata><defs
     id="defs45" /><sodipodi:namedview
     pagecolor="#000000"
     bordercolor="#666666"
     borderopacity="1"
     objecttolerance="10"
     gridtolerance="10"
     guidetolerance="10"
     inkscape:pageopacity="0"
     inkscape:pageshadow="2"
     inkscape:window-width="1440"
     inkscape:window-height="852"
     id="namedview43"
     showgrid="false"
     inkscape:pagecheckerboard="true"
     inkscape:zoom="3.828125"
     inkscape:cx="39.575511"
     inkscape:cy="84.897959"
     inkscape:window-x="0"
     inkscape:window-y="0"
     inkscape:window-maximized="1"
     inkscape:current-layer="g934"
     fit-margin-top="0"
     fit-margin-left="0"
     fit-margin-right="0"
     fit-margin-bottom="0"
     showguides="false" /><g
     id="g12"
     transform="translate(0,-832)" /><g
     id="g14"
     transform="translate(0,-832)" /><g
     id="g16"
     transform="translate(0,-832)" /><g
     id="g18"
     transform="translate(0,-832)" /><g
     id="g20"
     transform="translate(0,-832)" /><g
     id="g22"
     transform="translate(0,-832)" /><g
     id="g24"
     transform="translate(0,-832)" /><g
     id="g26"
     transform="translate(0,-832)" /><g
     id="g28"
     transform="translate(0,-832)" /><g
     id="g30"
     transform="translate(0,-832)" /><g
     id="g32"
     transform="translate(0,-832)" /><g
     id="g34"
     transform="translate(0,-832)" /><g
     id="g36"
     transform="translate(0,-832)" /><g
     id="g38"
     transform="translate(0,-832)" /><g
     id="g40"
     transform="translate(0,-832)" /><g
     id="g894"
     transform="translate(0,-2.6171875e-6)"><g
       inkscape:label="Layer 1"
       id="layer1"
       transform="translate(0,-924.36218)"><rect
         style="opacity:1;fill:none;fill-opacity:1;fill-rule:evenodd;stroke:#ffffff;stroke-width:2;stroke-miterlimit:4;stroke-dasharray:none;stroke-opacity:1"
         id="rect4138"
         width="126"
         height="126"
         x="1"
         y="925.36218"
         ry="15.75" /></g></g><g
     id="g953"
     transform="translate(-17.233829,-38.658622)"><g
       id="g934"
       transform="translate(-18.00714,-14.433563)"><g
         id="g944"
         transform="translate(48.511469,66.990072)"
         style="fill:#ffffff"><rect
           x="64.634003"
           y="9.4779997"
           transform="matrix(0.7948,0.6068,-0.6068,0.7948,28.9549,-39.5308)"
           width="16.605"
           height="27.153"
           id="rect896"
           style="fill:#ffffff" /><path
           inkscape:connector-curvature="0"
           d="M 47.653,62.985 66.086,38.828 59.349,33.682 41.701,56.8 c 2.383,1.635 4.393,3.752 5.952,6.185 z"
           id="path898"
           style="fill:#ffffff" /><path
           inkscape:connector-curvature="0"
           d="m 63.984,54.618 -2.143,-5.029 -2.64,3.453 1.408,3.294 c 1.07,-0.66 2.188,-1.251 3.375,-1.718 z"
           id="path900"
           style="fill:#ffffff" /><path
           inkscape:connector-curvature="0"
           d="m 42.851,50.338 2.775,-3.634 -1.783,-5.344 6.356,-0.65 3.151,-4.127 -12.243,1.255 c -0.571,0.06 -1.083,0.375 -1.393,0.857 -0.313,0.482 -0.39,1.079 -0.208,1.625 z"
           id="path902"
           style="fill:#ffffff" /><path
           inkscape:connector-curvature="0"
           d="m 29.618,63.438 c -6.095,0 -11.052,4.959 -11.052,11.052 0,6.093 4.957,11.052 11.052,11.052 6.094,0 11.051,-4.959 11.051,-11.052 0,-6.093 -4.957,-11.052 -11.051,-11.052 z"
           id="path904"
           style="fill:#ffffff" /><path
           inkscape:connector-curvature="0"
           d="m 29.618,55.996 c -10.214,0 -18.494,8.278 -18.494,18.493 0,10.215 8.279,18.493 18.494,18.493 10.211,0 18.493,-8.278 18.493,-18.493 0,-10.215 -8.281,-18.493 -18.493,-18.493 z m 0,33.327 c -8.181,0 -14.834,-6.653 -14.834,-14.834 0,-8.181 6.653,-14.834 14.834,-14.834 8.18,0 14.833,6.653 14.833,14.834 0,8.181 -6.653,14.834 -14.833,14.834 z"
           id="path906"
           style="fill:#ffffff" /><path
           inkscape:connector-curvature="0"
           d="m 71.844,63.738 c -5.924,0 -10.752,4.822 -10.752,10.751 0,5.929 4.828,10.752 10.752,10.752 5.924,0 10.751,-4.823 10.751,-10.752 0,-5.929 -4.827,-10.751 -10.751,-10.751 z"
           id="path908"
           style="fill:#ffffff" /><path
           inkscape:connector-curvature="0"
           d="m 71.844,55.996 c -10.215,0 -18.493,8.278 -18.493,18.493 0,10.215 8.278,18.493 18.493,18.493 10.209,0 18.491,-8.278 18.491,-18.493 0,-10.215 -8.282,-18.493 -18.491,-18.493 z m 0,33.026 c -8.014,0 -14.533,-6.52 -14.533,-14.533 0,-8.012 6.52,-14.533 14.533,-14.533 8.013,0 14.533,6.521 14.533,14.533 0,8.014 -6.52,14.533 -14.533,14.533 z"
           id="path910"
           style="fill:#ffffff" /></g></g></g></svg>