<?xml version="1.0" encoding="UTF-8" standalone="no"?>
<!DOCTYPE svg PUBLIC "-//W3C//DTD SVG 1.1//EN" "http://www.w3.org/Graphics/SVG/1.1/DTD/svg11.dtd">
<svg width="100%" height="100%" viewBox="0 0 217 217" version="1.1" xmlns="http://www.w3.org/2000/svg" xmlns:xlink="http://www.w3.org/1999/xlink" xml:space="preserve" xmlns:serif="http://www.serif.com/" style="fill-rule:evenodd;clip-rule:evenodd;stroke-linecap:round;stroke-linejoin:round;stroke-miterlimit:1.5;">
    <g transform="matrix(1.02377,0,0,0.782088,-6.09373,15.4355)">
        <path d="M213.208,19.386C213.208,18.466 212.638,17.72 211.935,17.72L11.931,17.72C11.228,17.72 10.657,18.466 10.657,19.386L10.657,218.604C10.657,219.524 11.228,220.27 11.931,220.27L211.935,220.27C212.638,220.27 213.208,219.524 213.208,218.604L213.208,19.386Z" style="fill:none;stroke:white;stroke-width:2.93px;"/>
    </g>
    <g transform="matrix(1.02377,0,0,0.128351,-6.09373,27.0194)">
        <path d="M213.208,19.386C213.208,18.466 213.115,17.72 212.999,17.72L10.866,17.72C10.751,17.72 10.657,18.466 10.657,19.386L10.657,218.604C10.657,219.524 10.751,220.27 10.866,220.27L212.999,220.27C213.115,220.27 213.208,219.524 213.208,218.604L213.208,19.386Z" style="fill:none;stroke:white;stroke-width:3.66px;"/>
    </g>
    <g transform="matrix(0.354187,0,0,0.128351,1.0423,27.0194)">
        <path d="M213.208,19.386C213.208,18.466 212.938,17.72 212.604,17.72L11.261,17.72C10.928,17.72 10.657,18.466 10.657,19.386L10.657,218.604C10.657,219.524 10.928,220.27 11.261,220.27L212.604,220.27C212.938,220.27 213.208,219.524 213.208,218.604L213.208,19.386Z" style="fill:white;stroke:white;stroke-width:10.01px;"/>
    </g>
    <g transform="matrix(0.354187,0,0,0.128351,72.7833,27.0194)">
        <path d="M213.208,19.386C213.208,18.466 212.938,17.72 212.604,17.72L11.261,17.72C10.928,17.72 10.657,18.466 10.657,19.386L10.657,218.604C10.657,219.524 10.928,220.27 11.261,220.27L212.604,220.27C212.938,220.27 213.208,219.524 213.208,218.604L213.208,19.386Z" style="fill:none;stroke:white;stroke-width:10.01px;"/>
    </g>
    <g transform="matrix(1,0,0,1,10.7067,149.208)">
        <text x="0px" y="0px" style="font-family:'ArialMT', 'Arial', sans-serif;font-size:80px;fill:white;">LEFT</text>
    </g>
</svg>
