<?xml version="1.0" encoding="UTF-8" standalone="no"?>
<svg
   xmlns:dc="http://purl.org/dc/elements/1.1/"
   xmlns:cc="http://creativecommons.org/ns#"
   xmlns:rdf="http://www.w3.org/1999/02/22-rdf-syntax-ns#"
   xmlns:svg="http://www.w3.org/2000/svg"
   xmlns="http://www.w3.org/2000/svg"
   xmlns:sodipodi="http://sodipodi.sourceforge.net/DTD/sodipodi-0.dtd"
   xmlns:inkscape="http://www.inkscape.org/namespaces/inkscape"
   version="1.1"
   x="0px"
   y="0px"
   viewBox="0 0 128 128"
   xml:space="preserve"
   id="svg8"
   sodipodi:docname="LightsOn.svg"
   width="128"
   height="128"
   inkscape:export-filename="C:\Users\danie\OneDrive\Documents\Elite VR Cockpit Unity\Assets\Textures\Icons\LightsOn.png"
   inkscape:export-xdpi="96"
   inkscape:export-ydpi="96"
   inkscape:version="0.92.3 (2405546, 2018-03-11)"><metadata
     id="metadata14"><rdf:RDF><cc:Work
         rdf:about=""><dc:format>image/svg+xml</dc:format><dc:type
           rdf:resource="http://purl.org/dc/dcmitype/StillImage" /><dc:title></dc:title></cc:Work></rdf:RDF></metadata><defs
     id="defs12" /><sodipodi:namedview
     pagecolor="#000000"
     bordercolor="#666666"
     borderopacity="1"
     objecttolerance="10"
     gridtolerance="10"
     guidetolerance="10"
     inkscape:pageopacity="0"
     inkscape:pageshadow="2"
     inkscape:window-width="1280"
     inkscape:window-height="657"
     id="namedview10"
     showgrid="false"
     inkscape:pagecheckerboard="true"
     fit-margin-top="0"
     fit-margin-left="0"
     fit-margin-right="0"
     fit-margin-bottom="0"
     inkscape:zoom="3.828125"
     inkscape:cx="34.612245"
     inkscape:cy="64"
     inkscape:window-x="-8"
     inkscape:window-y="-8"
     inkscape:window-maximized="1"
     inkscape:current-layer="svg8" /><g
     transform="translate(0,-924.36218)"
     id="layer1"
     inkscape:label="Layer 1"><rect
       ry="15.75"
       y="925.36218"
       x="1"
       height="126"
       width="126"
       id="rect4138"
       style="opacity:1;fill:none;fill-opacity:1;fill-rule:evenodd;stroke:#ffffff;stroke-width:2;stroke-miterlimit:4;stroke-dasharray:none;stroke-opacity:1" /></g><style
     id="style842"
     type="text/css">
	.st0{fill:#FFFFFF;stroke:#000000;stroke-width:8;stroke-linecap:round;stroke-linejoin:round;stroke-miterlimit:10;}
	.st1{fill:#FFFFFF;stroke:#000000;stroke-width:6;stroke-linecap:round;stroke-linejoin:round;stroke-miterlimit:10;}
	.st2{fill:none;stroke:#000000;stroke-width:3;stroke-miterlimit:10;}
	.st3{fill:none;stroke:#000000;stroke-width:3;stroke-linecap:round;stroke-miterlimit:10;}
	.st4{fill:none;stroke:#000000;stroke-width:3;stroke-linecap:round;stroke-linejoin:round;stroke-miterlimit:10;}
	.st5{stroke:#000000;stroke-width:3;stroke-linecap:round;stroke-linejoin:round;stroke-miterlimit:10;}
	.st6{fill:none;stroke:#000000;stroke-width:3;stroke-linecap:round;stroke-linejoin:round;}
	.st7{fill:none;stroke:#000000;stroke-width:3;stroke-linecap:round;stroke-linejoin:round;stroke-dasharray:3.5833,3.5833;}
	
		.st8{fill:none;stroke:#000000;stroke-width:3;stroke-linecap:round;stroke-linejoin:round;stroke-miterlimit:10;stroke-dasharray:3,4;}
	.st9{fill:none;stroke:#000000;stroke-width:2;stroke-linecap:round;stroke-linejoin:round;stroke-miterlimit:10;}
	.st10{fill:none;stroke:#000000;stroke-width:2;stroke-miterlimit:10;}
</style><g
     id="g880"
     transform="translate(14.026611,14.049649)"
     style="fill:#ffffff"><g
       id="g856"
       style="fill:#ffffff"><g
         id="g854"
         style="fill:#ffffff"><path
           id="path844"
           d="m 58.7,26.4 c -3.5,0 -6.8,0.6 -10,1.8 -3.4,1.3 -5.7,4.7 -5.7,8.4 v 26.7 c 0,3.7 2.3,7.1 5.7,8.4 3.2,1.2 6.5,1.8 10,1.8 C 73,73.6 84.6,63 84.6,50 84.6,37 73,26.4 58.7,26.4 Z m 0,41.5 c -2.8,0 -5.4,-0.5 -7.9,-1.4 C 49.6,66 48.7,64.8 48.7,63.4 V 36.7 c 0,-1.4 0.8,-2.6 2.1,-3.1 2.5,-1 5.2,-1.4 7.9,-1.4 11.1,0 20.1,8 20.1,17.9 0.1,9.8 -9,17.8 -20.1,17.8 z"
           inkscape:connector-curvature="0"
           style="fill:#ffffff" /><path
           id="path846"
           d="m 37.3,37.2 -19.7,4.2 c -1.5,0.3 -2.5,1.9 -2.2,3.4 0.3,1.3 1.5,2.3 2.8,2.3 0.2,0 0.4,0 0.6,-0.1 L 38.5,42.8 C 40,42.5 41,40.9 40.7,39.4 40.4,37.9 38.9,36.8 37.3,37.2 Z"
           inkscape:connector-curvature="0"
           style="fill:#ffffff" /><path
           id="path848"
           d="m 37.3,45.1 -19.7,4.2 c -1.5,0.3 -2.5,1.9 -2.2,3.4 0.3,1.3 1.5,2.3 2.8,2.3 0.2,0 0.4,0 0.6,-0.1 L 38.5,50.7 C 40,50.4 41,48.8 40.7,47.3 40.4,45.8 38.9,44.8 37.3,45.1 Z"
           inkscape:connector-curvature="0"
           style="fill:#ffffff" /><path
           id="path850"
           d="m 37.3,53 -19.7,4.2 c -1.5,0.3 -2.5,1.9 -2.2,3.4 0.3,1.3 1.5,2.3 2.8,2.3 0.2,0 0.4,0 0.6,-0.1 L 38.5,58.6 C 40,58.3 41,56.7 40.7,55.2 40.4,53.7 38.9,52.7 37.3,53 Z"
           inkscape:connector-curvature="0"
           style="fill:#ffffff" /><path
           id="path852"
           d="m 37.3,61 -19.7,4.2 c -1.5,0.3 -2.5,1.9 -2.2,3.4 0.3,1.3 1.5,2.3 2.8,2.3 0.2,0 0.4,0 0.6,-0.1 L 38.5,66.6 C 40,66.3 41,64.7 40.7,63.2 40.4,61.7 38.9,60.6 37.3,61 Z"
           inkscape:connector-curvature="0"
           style="fill:#ffffff" /></g></g></g></svg>