<?xml version="1.0" encoding="UTF-8" standalone="no"?>
<!DOCTYPE svg PUBLIC "-//W3C//DTD SVG 1.1//EN" "http://www.w3.org/Graphics/SVG/1.1/DTD/svg11.dtd">
<svg width="100%" height="100%" viewBox="0 0 217 217" version="1.1" xmlns="http://www.w3.org/2000/svg" xmlns:xlink="http://www.w3.org/1999/xlink" xml:space="preserve" xmlns:serif="http://www.serif.com/" style="fill-rule:evenodd;clip-rule:evenodd;stroke-linecap:round;stroke-linejoin:round;stroke-miterlimit:1.5;">
    <g transform="matrix(1,0,0,1,-9.24497,-7.83254)">
        <path d="M115.177,38.071C115.177,24.146 103.871,12.84 89.946,12.84L39.484,12.84C25.558,12.84 14.253,24.146 14.253,38.071L14.253,88.533C14.253,102.459 25.558,113.764 39.484,113.764L89.946,113.764C103.871,113.764 115.177,102.459 115.177,88.533L115.177,38.071Z"/>
    </g>
    <g transform="matrix(1,0,0,1,97.5858,-7.83254)">
        <path d="M115.177,38.071C115.177,24.146 103.871,12.84 89.946,12.84L39.484,12.84C25.558,12.84 14.253,24.146 14.253,38.071L14.253,88.533C14.253,102.459 25.558,113.764 39.484,113.764L89.946,113.764C103.871,113.764 115.177,102.459 115.177,88.533L115.177,38.071Z"/>
    </g>
    <g transform="matrix(1,0,0,1,-9.24497,97.971)">
        <path d="M115.177,38.071C115.177,24.146 103.871,12.84 89.946,12.84L39.484,12.84C25.558,12.84 14.253,24.146 14.253,38.071L14.253,88.533C14.253,102.459 25.558,113.764 39.484,113.764L89.946,113.764C103.871,113.764 115.177,102.459 115.177,88.533L115.177,38.071Z"/>
    </g>
    <g transform="matrix(1,0,0,1,97.5858,97.971)">
        <path d="M115.177,38.071C115.177,24.146 103.871,12.84 89.946,12.84L39.484,12.84C25.558,12.84 14.253,24.146 14.253,38.071L14.253,88.533C14.253,102.459 25.558,113.764 39.484,113.764L89.946,113.764C103.871,113.764 115.177,102.459 115.177,88.533L115.177,38.071Z" style="fill:none;stroke:black;stroke-width:2.67px;"/>
    </g>
</svg>
