<?xml version="1.0" encoding="UTF-8" standalone="no"?>
<!-- Generator: Adobe Illustrator 16.0.0, SVG Export Plug-In . SVG Version: 6.00 Build 0)  -->

<svg
   xmlns:dc="http://purl.org/dc/elements/1.1/"
   xmlns:cc="http://creativecommons.org/ns#"
   xmlns:rdf="http://www.w3.org/1999/02/22-rdf-syntax-ns#"
   xmlns:svg="http://www.w3.org/2000/svg"
   xmlns="http://www.w3.org/2000/svg"
   xmlns:sodipodi="http://sodipodi.sourceforge.net/DTD/sodipodi-0.dtd"
   xmlns:inkscape="http://www.inkscape.org/namespaces/inkscape"
   version="1.1"
   id="Layer_2"
   x="0px"
   y="0px"
   width="128"
   height="128"
   viewBox="0 0 128 128"
   enable-background="new 0 0 960 960"
   xml:space="preserve"
   sodipodi:docname="OrbitLines.svg"
   inkscape:version="0.92.2 5c3e80d, 2017-08-06"
   inkscape:export-filename="OrbitLines.png"
   inkscape:export-xdpi="96"
   inkscape:export-ydpi="96"><metadata
     id="metadata47"><rdf:RDF><cc:Work
         rdf:about=""><dc:format>image/svg+xml</dc:format><dc:type
           rdf:resource="http://purl.org/dc/dcmitype/StillImage" /><dc:title></dc:title></cc:Work></rdf:RDF></metadata><defs
     id="defs45" /><sodipodi:namedview
     pagecolor="#000000"
     bordercolor="#666666"
     borderopacity="1"
     objecttolerance="10"
     gridtolerance="10"
     guidetolerance="10"
     inkscape:pageopacity="0"
     inkscape:pageshadow="2"
     inkscape:window-width="1440"
     inkscape:window-height="852"
     id="namedview43"
     showgrid="false"
     inkscape:pagecheckerboard="true"
     inkscape:zoom="3.828125"
     inkscape:cx="55.379593"
     inkscape:cy="64"
     inkscape:window-x="0"
     inkscape:window-y="0"
     inkscape:window-maximized="1"
     inkscape:current-layer="g939"
     fit-margin-top="0"
     fit-margin-left="0"
     fit-margin-right="0"
     fit-margin-bottom="0"
     showguides="false" /><g
     id="g12"
     transform="translate(0,-832)" /><g
     id="g14"
     transform="translate(0,-832)" /><g
     id="g16"
     transform="translate(0,-832)" /><g
     id="g18"
     transform="translate(0,-832)" /><g
     id="g20"
     transform="translate(0,-832)" /><g
     id="g22"
     transform="translate(0,-832)" /><g
     id="g24"
     transform="translate(0,-832)" /><g
     id="g26"
     transform="translate(0,-832)" /><g
     id="g28"
     transform="translate(0,-832)" /><g
     id="g30"
     transform="translate(0,-832)" /><g
     id="g32"
     transform="translate(0,-832)" /><g
     id="g34"
     transform="translate(0,-832)" /><g
     id="g36"
     transform="translate(0,-832)" /><g
     id="g38"
     transform="translate(0,-832)" /><g
     id="g40"
     transform="translate(0,-832)" /><g
     id="g894"
     transform="translate(0,-2.6171875e-6)"><g
       inkscape:label="Layer 1"
       id="layer1"
       transform="translate(0,-924.36218)"><rect
         style="opacity:1;fill:none;fill-opacity:1;fill-rule:evenodd;stroke:#ffffff;stroke-width:2;stroke-miterlimit:4;stroke-dasharray:none;stroke-opacity:1"
         id="rect4138"
         width="126"
         height="126"
         x="1"
         y="925.36218"
         ry="15.75" /></g></g><g
     id="g1147"
     transform="translate(-8.1897532,-27.995949)"><g
       id="g1102"
       display="none"
       style="display:none"><rect
         id="rect1100"
         height="362.37399"
         width="1426.3051"
         display="inline"
         y="-242.37399"
         x="-362.37399"
         style="display:inline;fill:#000000" /></g><g
       id="g939"
       transform="translate(-72.598502,14.004673)"><path
         id="path922"
         d="m 131.28776,64.991276 c -14.6,0 -26.5,11.9 -26.5,26.5 0,14.600004 11.9,26.500004 26.5,26.500004 14.6,0 26.5,-11.9 26.5,-26.500004 0,-14.6 -11.9,-26.5 -26.5,-26.5 z m 17.4,10.7 c -2,1.9 -4.3,3.899 -5.3,4.3 -0.1,-0.6 0.1,-2 0.2,-2.6 0.1,-0.6 0.2,-1 0.2,-1.4 0,-1.4 -1.2,-3.6 -2.3,-4.7 -1.2,-1.2 -3,0 -4.4,0.9 -0.3,0.2 -0.8,0.5 -1.1,0.7 -0.6,-0.7 -1.6,-2.7 -2.6,-4.8 6,0.5 11.4,3.4 15.3,7.6 z m -23.9,-6.8 c -0.1,1.6 -0.4,3 -0.7,3.4 -0.2,0.2 -1.2,0.2 -1.8,0.2 -1.2,0 -2.4,0 -3.2,0.8 -0.7,0.7 -0.9,1.9 -1.2,3.2 -0.1,0.5 -0.2,1.1 -0.4,1.5 -0.7,-0.3 -2.3,-1.1 -3.8,-2 2.9,-3.3 6.7,-5.8 11.1,-7.1 z m 6.5,46.100004 c -1.2,0 -2.3,-0.1 -3.5,-0.3 0.1,-1.5 0.4,-2.7 0.7,-3 0.9,-0.9 2.6,-1.7 3.3,-1.7 2,0 2,-2.7 2,-4 0,-1.3 -1.4,-1.7 -2.6,-2 -0.6,-0.2 -1.4,-0.4 -1.7,-0.7 l -4,-4.000004 c -1.1,-1.1 -2.7,-0.7 -3.8,-0.5 -0.4,0.1 -0.7,0.2 -0.8,0.2 -0.9,-0.2 -4.6,-3.2 -5.1,-4.1 0.1,-0.7 0.9,-2.4 1.7,-3.2 0.3,-0.101 1,0.399 1.4,0.6 0.7,0.4 1.3,0.7 1.9,0.7 1.2,0 2.6,-1.2 4.7,-3.3 0.7,-0.7 1,-2.101 1.3,-3.5 0.2,-0.8 0.4,-2.2 0.7,-2.4 0.8,-0.3 4.9,1.101 5.6,1.9 0.4,0.6 0,3.8 -0.1,4.8 -0.1,0.7 -0.2,1.2 -0.2,1.5 0,0.1 0.6,7 3,7 1.6,0 4,-2.4 4,-4 0,-0.6 -0.4,-1.9 -1.1,-3.8 -0.3,-0.9 -0.7,-2.2 -0.9,-2.9 0.4,-0.1 1.3,-0.3 3.4,-0.3 0,0.4 0,1.1 0,1.6 0,1.7 0,3.301 0.8,4.101 0.3,0.3 0.8,0.5 1.2,0.399 0.9,-0.1 1.4,-1.1 1.9,-2.199 0.1,-0.101 0.2,-0.301 0.3,-0.5 0.6,1.699 1.3,5.699 1.3,6.599 0,0.4 0,1.3 4.5,5.900004 -4.1,6.6 -11.5,11.1 -19.9,11.1 z m 21,-13 c -1.7,-1.8 -3.3,-3.600004 -3.5,-4.100004 -0.1,-1.2 -1,-7.301 -2.3,-8.601 -0.3,-0.3 -0.8,-0.5 -1.2,-0.399 -0.9,0.1 -1.4,1.1 -1.9,2.2 0,0 0,0.101 -0.1,0.101 0,-0.5 0,-1.2 0,-1.601 0,-1.899 0,-3.6 -1.5,-3.6 -3.6,0 -6,0.3 -6,2 0,0.6 0.4,1.9 1.1,3.8 0.4,1.1 0.9,2.8 0.9,3.2 -0.1,0.5 -1.1,1.6 -1.8,1.9 -0.5,-0.9 -1.2,-4.1 -1.2,-4.9 0,-0.2 0.1,-0.7 0.1,-1.3 0.4,-3 0.6,-5.4 -0.4,-6.5 -1,-1 -6.7,-3.7 -8.4,-2 -0.7,0.7 -1,2.1 -1.3,3.5 -0.2,0.8 -0.4,2.2 -0.7,2.5 -2.2,2.2 -3,2.7 -3.3,2.7 -0.2,0 -0.7,-0.301 -1,-0.5 -1,-0.6 -2.6,-1.4 -3.8,-0.3 -1,1.3 -2.2,3.5 -2.2,4.9 0,1.7 5.7,6.000004 7,6.000004 0.4,0 0.9,-0.1 1.4,-0.2 0.7,-0.2 1.6,-0.399 1.9,-0.1 l 4,4 c 0.6,0.6 1.7,0.899 2.6,1.2 0.4,0.1 0.9,0.2 1.1,0.4 0,1.101 -0.1,1.5 -0.2,1.7 -1.4,0.1 -3.5,1.3 -4.5,2.3 -0.8,0.8 -1.1,2.601 -1.2,4.101 -10.4,-2.501 -18.1,-11.801 -18.1,-22.901004 0,-5.2 1.7,-10.1 4.6,-14 2.1,1.2 4.5,2.5 5.4,2.5 1.3,0 1.7,-1.5 2,-3.1 0.2,-0.7 0.4,-1.9 0.7,-2.2 0.2,-0.2 1.2,-0.2 1.8,-0.2 1.2,0 2.4,0 3.2,-0.8 1.1,-1.1 1.3,-3.9 1.3,-5.3 1.4,-0.3 2.9,-0.4 4.4,-0.4 3,7 4.1,7 4.7,7 0.7,0 1.3,-0.4 2.4,-1.1 0.5,-0.3 1.6,-1 2,-1.1 0.8,0.9 1.6,2.5 1.6,3.2 0,0.2 -0.1,0.6 -0.2,1 -0.3,1.6 -0.6,3.6 0.4,4.7 0.2,0.2 0.4,0.399 0.9,0.399 1,0 2.899,-0.899 6.899,-4.899 3,4 4.801,8.899 4.801,14.3 0.1,3.8 -0.8,7.4 -2.4,10.500004 z m 22.9,-41.000004 c 1.6,-1.7 2.6,-4 2.6,-6.5 0,-5.2 -4.3,-9.5 -9.5,-9.5 -2.5,0 -4.8,1 -6.5,2.6 -9,-6.3 -19.5,-9.6 -30.5,-9.6 -9,0 -17.9,2.3 -25.7,6.6 -0.7,0.4 -1,1.3 -0.6,2 0.4,0.7 1.3,1 2,0.6 7.4,-4.1 15.8,-6.2 24.3,-6.2 10.3,0 20.2,3.1 28.7,8.9 -0.7,1.4 -1.2,2.9 -1.2,4.6 0,5.2 4.3,9.5 9.5,9.5 1.7,0 3.2,-0.4 4.6,-1.2 5.8,8.4 8.9,18.3 8.9,28.7 0,8.5 -2.1,16.900004 -6.2,24.300004 -0.399,0.7 -0.1,1.601 0.601,2 0.849,0.429 1.58,0.099 2,-0.6 4.3,-7.8 6.6,-16.7 6.6,-25.700004 -0.001,-11 -3.301,-21.5 -9.601,-30.5 z m -13.4,-6.5 c 0,-3.6 2.9,-6.5 6.5,-6.5 3.6,0 6.5,2.9 6.5,6.5 0,3.6 -2.9,6.5 -6.5,6.5 -3.6,0 -6.5,-2.9 -6.5,-6.5 z"
         inkscape:connector-curvature="0"
         style="fill:#ffffff" /></g></g><style
     id="style1606"
     type="text/css">
	.st0{fill:none;stroke:#000000;stroke-width:2;stroke-miterlimit:10;}
	.st1{fill:none;stroke:#000000;stroke-miterlimit:10;}
	.st2{fill:none;stroke:#000000;stroke-linecap:round;stroke-miterlimit:10;}
</style></svg>