<?xml version="1.0" encoding="UTF-8" standalone="no"?>
<svg
   xmlns:dc="http://purl.org/dc/elements/1.1/"
   xmlns:cc="http://creativecommons.org/ns#"
   xmlns:rdf="http://www.w3.org/1999/02/22-rdf-syntax-ns#"
   xmlns:svg="http://www.w3.org/2000/svg"
   xmlns="http://www.w3.org/2000/svg"
   xmlns:sodipodi="http://sodipodi.sourceforge.net/DTD/sodipodi-0.dtd"
   xmlns:inkscape="http://www.inkscape.org/namespaces/inkscape"
   version="1.1"
   x="0px"
   y="0px"
   viewBox="0 0 200 100"
   id="svg10"
   sodipodi:docname="Pitch.svg"
   width="200"
   height="100"
   inkscape:version="0.92.3 (2405546, 2018-03-11)"
   inkscape:export-filename="Pitch.png"
   inkscape:export-xdpi="96"
   inkscape:export-ydpi="96">
  <metadata
     id="metadata16">
    <rdf:RDF>
      <cc:Work
         rdf:about="">
        <dc:format>image/svg+xml</dc:format>
        <dc:type
           rdf:resource="http://purl.org/dc/dcmitype/StillImage" />
        <dc:title></dc:title>
      </cc:Work>
    </rdf:RDF>
  </metadata>
  <defs
     id="defs14" />
  <sodipodi:namedview
     pagecolor="#000000"
     bordercolor="#666666"
     borderopacity="1"
     objecttolerance="10"
     gridtolerance="10"
     guidetolerance="10"
     inkscape:pageopacity="0"
     inkscape:pageshadow="2"
     inkscape:window-width="1280"
     inkscape:window-height="657"
     id="namedview12"
     showgrid="false"
     inkscape:pagecheckerboard="true"
     inkscape:zoom="1.888"
     inkscape:cx="128.125"
     inkscape:cy="54.025424"
     inkscape:window-x="-8"
     inkscape:window-y="-8"
     inkscape:window-maximized="1"
     inkscape:current-layer="svg10" />
  <g
     transform="matrix(-1,0,0,1,100,-952.36219)"
     id="g4"
     style="fill:#ffffff">
    <path
       style="color:#000000;text-indent:0;text-transform:none;direction:ltr;baseline-shift:baseline;display:inline;overflow:visible;visibility:visible;fill:#ffffff;fill-opacity:1;fill-rule:evenodd;stroke:none;enable-background:accumulate"
       d="m 34.604922,973.35247 a 2.000005,2.000005 0 0 1 1.3931,0.56156 l 57.39001,53.88997 a 2.000005,2.000005 0 0 1 -1.36625,3.4575 l -83.99996,0.11 a 2.000005,2.000005 0 1 1 -0.0054,-3.9993 l 41.5354,-0.054 c 0.4236,-9.8432 4.0482,-18.8546 9.8518,-25.9391 l -26.1434,-24.54904 a 2.000005,2.000005 0 0 1 1.3447,-3.47719 z m 27.7225,30.77183 c -5.1336,6.3537 -8.3563,14.3828 -8.7725,23.1882 l 33.4203,-0.044 -24.6478,-23.1444 z"
       marker="none"
       visibility="visible"
       display="inline"
       overflow="visible"
       id="path2"
       inkscape:connector-curvature="0" />
  </g>
  <g
     style="fill:#ffffff"
     id="g20"
     transform="rotate(-180,100.00024,526.18109)">
    <path
       inkscape:connector-curvature="0"
       id="path18"
       overflow="visible"
       display="inline"
       visibility="visible"
       marker="none"
       d="m 34.604922,973.35247 a 2.000005,2.000005 0 0 1 1.3931,0.56156 l 57.39001,53.88997 a 2.000005,2.000005 0 0 1 -1.36625,3.4575 l -83.99996,0.11 a 2.000005,2.000005 0 1 1 -0.0054,-3.9993 l 41.5354,-0.054 c 0.4236,-9.8432 4.0482,-18.8546 9.8518,-25.9391 l -26.1434,-24.54904 a 2.000005,2.000005 0 0 1 1.3447,-3.47719 z m 27.7225,30.77183 c -5.1336,6.3537 -8.3563,14.3828 -8.7725,23.1882 l 33.4203,-0.044 -24.6478,-23.1444 z"
       style="color:#000000;text-indent:0;text-transform:none;direction:ltr;baseline-shift:baseline;display:inline;overflow:visible;visibility:visible;fill:#ffffff;fill-opacity:1;fill-rule:evenodd;stroke:none;enable-background:accumulate" />
  </g>
</svg>
