<?xml version="1.0" encoding="UTF-8" standalone="no"?>
<!-- Created with Inkscape (http://www.inkscape.org/) -->

<svg
   xmlns:dc="http://purl.org/dc/elements/1.1/"
   xmlns:cc="http://creativecommons.org/ns#"
   xmlns:rdf="http://www.w3.org/1999/02/22-rdf-syntax-ns#"
   xmlns:svg="http://www.w3.org/2000/svg"
   xmlns="http://www.w3.org/2000/svg"
   xmlns:sodipodi="http://sodipodi.sourceforge.net/DTD/sodipodi-0.dtd"
   xmlns:inkscape="http://www.inkscape.org/namespaces/inkscape"
   width="100"
   height="100"
   viewBox="0 0 26.458333 26.458333"
   version="1.1"
   id="svg8"
   inkscape:version="0.92.3 (2405546, 2018-03-11)"
   sodipodi:docname="PowerWeapons.svg"
   inkscape:export-filename="PowerWeapons.png"
   inkscape:export-xdpi="96"
   inkscape:export-ydpi="96">
  <defs
     id="defs2" />
  <sodipodi:namedview
     id="base"
     pagecolor="#000000"
     bordercolor="#666666"
     borderopacity="1.0"
     inkscape:pageopacity="0"
     inkscape:pageshadow="2"
     inkscape:zoom="4.6"
     inkscape:cx="50"
     inkscape:cy="50"
     inkscape:document-units="mm"
     inkscape:current-layer="g1168"
     showgrid="false"
     units="px"
     inkscape:pagecheckerboard="true"
     inkscape:window-width="1280"
     inkscape:window-height="657"
     inkscape:window-x="-8"
     inkscape:window-y="-8"
     inkscape:window-maximized="1" />
  <metadata
     id="metadata5">
    <rdf:RDF>
      <cc:Work
         rdf:about="">
        <dc:format>image/svg+xml</dc:format>
        <dc:type
           rdf:resource="http://purl.org/dc/dcmitype/StillImage" />
        <dc:title></dc:title>
      </cc:Work>
    </rdf:RDF>
  </metadata>
  <g
     inkscape:label="Layer 1"
     inkscape:groupmode="layer"
     id="layer1"
     transform="translate(0,-270.54167)">
    <g
       id="g1168"
       transform="matrix(0.26458333,0,0,0.26458333,8.3327754,267.83012)">
      <g
         id="g1145"
         transform="translate(-13.493954,28.24838)"
         style="fill:#ffffff">
        <path
           id="path1133"
           d="m 32.000744,28.019663 c -2.163281,0 -3.916063,1.753523 -3.916063,3.916059 0,2.163281 1.752782,3.916062 3.916063,3.916062 2.162537,0 3.916061,-1.752781 3.916061,-3.916062 0,-2.162536 -1.753525,-3.916059 -3.916061,-3.916059 z m 0,5.972994 c -1.13481,0 -2.056938,-0.922123 -2.056938,-2.056935 0,-1.134067 0.922128,-2.056194 2.056938,-2.056194 1.134067,0 2.056934,0.922127 2.056934,2.056194 0,1.134812 -0.922867,2.056935 -2.056934,2.056935 z"
           inkscape:connector-curvature="0"
           style="fill:#ffffff" />
        <polygon
           id="polygon1135"
           points="29.844158,1.3194524 34.15733,1.3194524 34.15733,21.419577 32.000004,24.394178 29.844158,21.419577 "
           style="fill:#ffffff" />
        <polygon
           id="polygon1137"
           points="32.000744,39.605827 34.15733,42.506062 34.15733,62.680546 29.844158,62.680546 29.844158,42.506062 "
           style="fill:#ffffff" />
        <polygon
           id="polygon1139"
           points="24.330641,31.936462 21.356039,34.092308 1.255919,34.092308 1.255919,29.779137 21.356039,29.779137 "
           style="fill:#ffffff" />
        <polygon
           id="polygon1141"
           points="62.74408,29.779137 62.74408,34.092308 42.643959,34.092308 39.669361,31.936462 42.643959,29.779137 "
           style="fill:#ffffff" />
        <path
           id="path1143"
           d="m 50.821815,36.315964 c -0.804367,3.485569 -2.570652,6.686496 -5.162914,9.278755 -2.592258,2.592251 -5.791916,4.357277 -9.277481,5.16037 v 4.540256 c 9.611683,-1.790432 17.18895,-9.367698 18.979382,-18.979381 z m -37.641093,0 H 8.641736 c 1.789167,9.611683 9.365163,17.188949 18.978108,18.979381 V 50.755089 C 24.134276,49.951996 20.934621,48.18697 18.342368,45.594719 15.75011,43.00246 13.985086,39.801533 13.180722,36.315964 Z M 36.38142,8.5762806 v 4.5402584 c 3.485565,0.803092 6.685223,2.568115 9.277481,5.160368 2.592263,2.592258 4.358547,5.793188 5.162914,9.278755 h 4.538987 C 53.57037,17.943979 45.993103,10.366712 36.38142,8.5762806 Z M 8.641736,27.555662 h 4.538986 c 0.804364,-3.485567 2.569388,-6.686497 5.161647,-9.278755 2.592253,-2.592253 5.791908,-4.357276 9.277475,-5.160368 V 8.5762806 C 18.006899,10.366712 10.430903,17.943979 8.641736,27.555662 Z"
           inkscape:connector-curvature="0"
           style="fill:#ffffff" />
      </g>
    </g>
  </g>
</svg>
