<?xml version="1.0" encoding="UTF-8" standalone="no"?>
<!-- Created with Inkscape (http://www.inkscape.org/) -->

<svg
   xmlns:dc="http://purl.org/dc/elements/1.1/"
   xmlns:cc="http://creativecommons.org/ns#"
   xmlns:rdf="http://www.w3.org/1999/02/22-rdf-syntax-ns#"
   xmlns:svg="http://www.w3.org/2000/svg"
   xmlns="http://www.w3.org/2000/svg"
   xmlns:sodipodi="http://sodipodi.sourceforge.net/DTD/sodipodi-0.dtd"
   xmlns:inkscape="http://www.inkscape.org/namespaces/inkscape"
   width="100"
   height="100"
   viewBox="0 0 26.458333 26.458333"
   version="1.1"
   id="svg8"
   inkscape:version="0.92.2 5c3e80d, 2017-08-06"
   sodipodi:docname="PowerBalance.svg"
   inkscape:export-filename="PowerBalance.png"
   inkscape:export-xdpi="96"
   inkscape:export-ydpi="96">
  <defs
     id="defs2" />
  <sodipodi:namedview
     id="base"
     pagecolor="#000000"
     bordercolor="#666666"
     borderopacity="1.0"
     inkscape:pageopacity="0"
     inkscape:pageshadow="2"
     inkscape:zoom="6.39"
     inkscape:cx="45.070422"
     inkscape:cy="43.740219"
     inkscape:document-units="mm"
     inkscape:current-layer="g1168"
     showgrid="false"
     units="px"
     inkscape:pagecheckerboard="true"
     inkscape:window-width="1440"
     inkscape:window-height="852"
     inkscape:window-x="0"
     inkscape:window-y="0"
     inkscape:window-maximized="1" />
  <metadata
     id="metadata5">
    <rdf:RDF>
      <cc:Work
         rdf:about="">
        <dc:format>image/svg+xml</dc:format>
        <dc:type
           rdf:resource="http://purl.org/dc/dcmitype/StillImage" />
        <dc:title></dc:title>
      </cc:Work>
    </rdf:RDF>
  </metadata>
  <g
     inkscape:label="Layer 1"
     inkscape:groupmode="layer"
     id="layer1"
     transform="translate(0,-270.54167)">
    <g
       id="g1168"
       transform="matrix(0.26458333,0,0,0.26458333,8.3327754,267.83012)">
      <rect
         style="opacity:1;fill:#ffffff;fill-opacity:1;fill-rule:evenodd;stroke:none;stroke-width:0;stroke-miterlimit:4;stroke-dasharray:none;stroke-opacity:1"
         id="rect1170"
         width="22.677166"
         height="7.5590553"
         x="-25.425049"
         y="83.369865" />
      <rect
         y="71.369865"
         x="-25.425049"
         height="7.5590553"
         width="22.677166"
         id="rect1172"
         style="opacity:1;fill:#ffffff;fill-opacity:1;fill-rule:evenodd;stroke:none;stroke-width:0;stroke-miterlimit:4;stroke-dasharray:none;stroke-opacity:1" />
      <rect
         style="opacity:1;fill:#ffffff;fill-opacity:1;fill-rule:evenodd;stroke:none;stroke-width:0;stroke-miterlimit:4;stroke-dasharray:none;stroke-opacity:1"
         id="rect1174"
         width="22.677166"
         height="7.5590553"
         x="-25.425049"
         y="59.369865" />
      <rect
         y="47.369865"
         x="-25.425049"
         height="7.5590553"
         width="22.677166"
         id="rect1176"
         style="opacity:1;fill:#ffffff;fill-opacity:1;fill-rule:evenodd;stroke:none;stroke-width:0;stroke-miterlimit:4;stroke-dasharray:none;stroke-opacity:1" />
      <g
         id="g1580"
         transform="translate(-33.297553,-29.393558)">
        <g
           id="g1603"
           transform="matrix(0.6591897,0,0,0.6591897,32.031128,56.682452)"
           style="stroke-width:1.51701403">
          <path
             style="fill:#ffffff;stroke-width:1.51701403"
             inkscape:connector-curvature="0"
             d="m 94.979,53.6 c 0,-0.228 -0.043,-0.455 -0.177,-0.66 l -16.8,-25.5 C 77.779,27.104 77.391,26.935 77,26.935 V 26.9 H 52.4 v -6.066 c 1.428,-0.832 2.398,-2.362 2.398,-4.134 0,-2.651 -2.148,-4.8 -4.8,-4.8 -2.651,0 -4.8,2.148 -4.8,4.8 0,1.771 0.971,3.303 2.4,4.134 V 26.9 H 23 v 0.034 c -0.39,0 -0.78,0.169 -1.002,0.505 l -16.8,25.5 c -0.135,0.205 -0.177,0.434 -0.176,0.66 H 5 c 0,9.112 8.059,16.5 18,16.5 9.941,0 18,-7.388 18,-16.5 h -0.022 c 10e-4,-0.228 -0.041,-0.455 -0.176,-0.66 L 25.228,29.3 H 47.6 v 49.2 h -7.8 c -0.994,0 -1.8,0.807 -1.8,1.8 v 1.8 c 0,0.332 0.269,0.602 0.6,0.602 h 22.8 c 0.33,0 0.6,-0.27 0.6,-0.602 v -1.8 c 0,-0.993 -0.807,-1.8 -1.8,-1.8 H 52.4 V 29.3 H 74.771 L 59.198,52.94 c -0.134,0.205 -0.177,0.434 -0.177,0.66 H 59 c 0,9.113 8.059,16.5 18,16.5 9.941,0 18,-7.387 18,-16.5 z m -56.616,0 H 7.637 L 23,30.282 Z m 23.276,0 L 77,30.282 92.361,53.6 Z"
             id="path1560" />
          <path
             style="fill:#ffffff;stroke-width:1.51701403"
             inkscape:connector-curvature="0"
             d="M 64.7,83.9 H 35.3 c -0.994,0 -1.8,0.806 -1.8,1.8 v 1.8 c 0,0.332 0.269,0.6 0.6,0.6 h 31.8 c 0.33,0 0.6,-0.268 0.6,-0.6 v -1.8 c 0,-0.994 -0.807,-1.8 -1.8,-1.8 z"
             id="path1562" />
        </g>
      </g>
    </g>
  </g>
</svg>
