<?xml version="1.0" encoding="UTF-8" standalone="no"?>
<!-- Created with Inkscape (http://www.inkscape.org/) -->

<svg
   xmlns:dc="http://purl.org/dc/elements/1.1/"
   xmlns:cc="http://creativecommons.org/ns#"
   xmlns:rdf="http://www.w3.org/1999/02/22-rdf-syntax-ns#"
   xmlns:svg="http://www.w3.org/2000/svg"
   xmlns="http://www.w3.org/2000/svg"
   xmlns:sodipodi="http://sodipodi.sourceforge.net/DTD/sodipodi-0.dtd"
   xmlns:inkscape="http://www.inkscape.org/namespaces/inkscape"
   width="100"
   height="100"
   viewBox="0 0 26.458333 26.458333"
   version="1.1"
   id="svg8"
   inkscape:version="0.92.2 5c3e80d, 2017-08-06"
   sodipodi:docname="PowerToEngines.svg"
   inkscape:export-filename="PowerToEngines.png"
   inkscape:export-xdpi="96"
   inkscape:export-ydpi="96">
  <defs
     id="defs2" />
  <sodipodi:namedview
     id="base"
     pagecolor="#000000"
     bordercolor="#666666"
     borderopacity="1.0"
     inkscape:pageopacity="0"
     inkscape:pageshadow="2"
     inkscape:zoom="6.39"
     inkscape:cx="55.790297"
     inkscape:cy="50"
     inkscape:document-units="mm"
     inkscape:current-layer="g1168"
     showgrid="false"
     units="px"
     inkscape:pagecheckerboard="true"
     inkscape:window-width="1440"
     inkscape:window-height="852"
     inkscape:window-x="0"
     inkscape:window-y="0"
     inkscape:window-maximized="1" />
  <metadata
     id="metadata5">
    <rdf:RDF>
      <cc:Work
         rdf:about="">
        <dc:format>image/svg+xml</dc:format>
        <dc:type
           rdf:resource="http://purl.org/dc/dcmitype/StillImage" />
        <dc:title></dc:title>
      </cc:Work>
    </rdf:RDF>
  </metadata>
  <g
     inkscape:label="Layer 1"
     inkscape:groupmode="layer"
     id="layer1"
     transform="translate(0,-270.54167)">
    <g
       id="g1168"
       transform="matrix(0.26458333,0,0,0.26458333,8.3327754,267.83012)">
      <rect
         style="opacity:1;fill:#ffffff;fill-opacity:1;fill-rule:evenodd;stroke:none;stroke-width:0;stroke-miterlimit:4;stroke-dasharray:none;stroke-opacity:1"
         id="rect1170"
         width="22.677166"
         height="7.5590553"
         x="-25.425049"
         y="83.369865" />
      <rect
         y="71.369865"
         x="-25.425049"
         height="7.5590553"
         width="22.677166"
         id="rect1172"
         style="opacity:1;fill:#ffffff;fill-opacity:1;fill-rule:evenodd;stroke:none;stroke-width:0;stroke-miterlimit:4;stroke-dasharray:none;stroke-opacity:1" />
      <rect
         style="opacity:1;fill:#ffffff;fill-opacity:1;fill-rule:evenodd;stroke:none;stroke-width:0;stroke-miterlimit:4;stroke-dasharray:none;stroke-opacity:1"
         id="rect1174"
         width="22.677166"
         height="7.5590553"
         x="-25.425049"
         y="59.369865" />
      <rect
         y="47.369865"
         x="-25.425049"
         height="7.5590553"
         width="22.677166"
         id="rect1176"
         style="opacity:1;fill:#ffffff;fill-opacity:1;fill-rule:evenodd;stroke:none;stroke-width:0;stroke-miterlimit:4;stroke-dasharray:none;stroke-opacity:1" />
      <g
         id="g965"
         transform="matrix(1.4238047,0,0,1.4238047,-37.500975,-53.892201)"
         style="stroke-width:0.70234352">
        <path
           id="path948"
           d="m 55.542731,93.715264 c 0.28,-0.281 0.438,-0.663 0.438,-1.062 l 0.001,-9.313 7.776,-7.776 c 4.436,-4.434 4.415,-13.115 4.413,-13.482 -0.007,-0.819 -0.669,-1.48 -1.487,-1.487 -0.368,-0.003 -9.049,-0.024 -13.485,4.409 l -7.778,7.779 h -9.312 c -0.397,0 -0.779,0.158 -1.061,0.438 l -5.583,5.583 c -0.378,0.378 -0.526,0.927 -0.39,1.443 0.068,0.261 0.205,0.494 0.39,0.679 0.181,0.18 0.406,0.314 0.661,0.384 l 7.397,2.048 7.88,7.88 2.05,7.399 c 0.07,0.254 0.205,0.479 0.386,0.659 0.184,0.185 0.418,0.321 0.679,0.391 0.516,0.136 1.065,-0.013 1.442,-0.391 z m -17.679,-13.375 -4.457,-1.233 3.324,-3.324 h 5.69 z m 8.881,7.996 -6.316,-6.317 1.387,-1.385 6.315,6.316 z m 3.506,-3.507 -6.315,-6.316 11.385,-11.387 c 2.565,-2.563 7.32,-3.267 9.779,-3.46 -0.193,2.459 -0.897,7.213 -3.462,9.776 z m -1.827,6.07 2.881,-2.881 c 0.002,-0.003 0.006,-0.005 0.008,-0.007 0.002,-0.002 0.004,-0.005 0.006,-0.008 l 1.664,-1.663 v 5.691 l -3.323,3.324 z m -7.057,-0.389 c -0.828,-0.024 -1.518,0.628 -1.541,1.457 -0.021,0.683 -0.466,1.61 -1.062,2.206 -1.073,1.074 -3.503,1.034 -5.022,0.846 -0.19,-1.517 -0.231,-3.937 0.849,-5.017 0.597,-0.597 1.525,-1.043 2.207,-1.062 0.827,-0.021 1.48,-0.712 1.458,-1.54 -0.022,-0.827 -0.712,-1.48 -1.54,-1.458 -1.44,0.039 -3.107,0.8 -4.246,1.938 -2.764,2.764 -1.627,8.166 -1.488,8.773 0.064,0.28 0.206,0.53 0.402,0.726 0.195,0.196 0.445,0.338 0.727,0.402 0.606,0.139 6.01,1.277 8.775,-1.488 1.137,-1.137 1.898,-2.802 1.938,-4.243 0.024,-0.828 -0.629,-1.518 -1.457,-1.54 z"
           inkscape:connector-curvature="0"
           style="fill:#ffffff;stroke-width:0.70234352" />
      </g>
    </g>
  </g>
</svg>
