<?xml version="1.0" encoding="UTF-8" standalone="no"?>
<!-- Created with Inkscape (http://www.inkscape.org/) -->

<svg
   xmlns:dc="http://purl.org/dc/elements/1.1/"
   xmlns:cc="http://creativecommons.org/ns#"
   xmlns:rdf="http://www.w3.org/1999/02/22-rdf-syntax-ns#"
   xmlns:svg="http://www.w3.org/2000/svg"
   xmlns="http://www.w3.org/2000/svg"
   xmlns:sodipodi="http://sodipodi.sourceforge.net/DTD/sodipodi-0.dtd"
   xmlns:inkscape="http://www.inkscape.org/namespaces/inkscape"
   width="100"
   height="100"
   viewBox="0 0 26.458333 26.458333"
   version="1.1"
   id="svg8"
   inkscape:version="0.92.3 (2405546, 2018-03-11)"
   sodipodi:docname="PowerSystems.svg"
   inkscape:export-filename="PowerSystems.png"
   inkscape:export-xdpi="96"
   inkscape:export-ydpi="96">
  <defs
     id="defs2" />
  <sodipodi:namedview
     id="base"
     pagecolor="#000000"
     bordercolor="#666666"
     borderopacity="1.0"
     inkscape:pageopacity="0"
     inkscape:pageshadow="2"
     inkscape:zoom="4.6"
     inkscape:cx="50"
     inkscape:cy="50"
     inkscape:document-units="mm"
     inkscape:current-layer="g1168"
     showgrid="false"
     units="px"
     inkscape:pagecheckerboard="true"
     inkscape:window-width="1280"
     inkscape:window-height="657"
     inkscape:window-x="-8"
     inkscape:window-y="-8"
     inkscape:window-maximized="1"
     inkscape:snap-object-midpoints="true"
     inkscape:snap-nodes="true" />
  <metadata
     id="metadata5">
    <rdf:RDF>
      <cc:Work
         rdf:about="">
        <dc:format>image/svg+xml</dc:format>
        <dc:type
           rdf:resource="http://purl.org/dc/dcmitype/StillImage" />
        <dc:title></dc:title>
      </cc:Work>
    </rdf:RDF>
  </metadata>
  <g
     inkscape:label="Layer 1"
     inkscape:groupmode="layer"
     id="layer1"
     transform="translate(0,-270.54167)">
    <g
       id="g1168"
       transform="matrix(0.26458333,0,0,0.26458333,8.3327754,267.83012)">
      <g
         id="g1344"
         transform="matrix(0.70092158,0,0,0.70092158,-26.352935,15.389398)"
         style="stroke-width:1.42669308">
        <g
           transform="translate(0,-832)"
           id="g12"
           style="stroke-width:1.42669308" />
        <g
           transform="translate(0,-832)"
           id="g14"
           style="stroke-width:1.42669308" />
        <g
           transform="translate(0,-832)"
           id="g16"
           style="stroke-width:1.42669308" />
        <g
           transform="translate(0,-832)"
           id="g18"
           style="stroke-width:1.42669308" />
        <g
           transform="translate(0,-832)"
           id="g20"
           style="stroke-width:1.42669308" />
        <g
           transform="translate(0,-832)"
           id="g22"
           style="stroke-width:1.42669308" />
        <g
           transform="translate(0,-832)"
           id="g24"
           style="stroke-width:1.42669308" />
        <g
           transform="translate(0,-832)"
           id="g26"
           style="stroke-width:1.42669308" />
        <g
           transform="translate(0,-832)"
           id="g28"
           style="stroke-width:1.42669308" />
        <g
           transform="translate(0,-832)"
           id="g30"
           style="stroke-width:1.42669308" />
        <g
           transform="translate(0,-832)"
           id="g32"
           style="stroke-width:1.42669308" />
        <g
           transform="translate(0,-832)"
           id="g34"
           style="stroke-width:1.42669308" />
        <g
           transform="translate(0,-832)"
           id="g36"
           style="stroke-width:1.42669308" />
        <g
           transform="translate(0,-832)"
           id="g38"
           style="stroke-width:1.42669308" />
        <g
           transform="translate(0,-832)"
           id="g40"
           style="stroke-width:1.42669308" />
        <g
           transform="translate(0,-2.6171875e-6)"
           id="g894"
           style="stroke-width:1.42669308">
          <g
             transform="translate(0,-924.36218)"
             id="layer1-7"
             inkscape:label="Layer 1"
             style="stroke-width:1.42669308" />
        </g>
        <g
           transform="translate(-17.233829,-38.658622)"
           id="g953"
           style="stroke-width:1.42669308">
          <g
             style="fill:#ffffff;stroke-width:1.42669308"
             transform="translate(31.242805,52.658622)"
             id="g932">
            <path
               style="fill:#ffffff;stroke-width:1.42669308"
               inkscape:connector-curvature="0"
               d="m 50,11 c 2.8,2.4 7.7,5.6 15.9,8.6 9.6,3.5 17.3,4.3 21.5,4.3 0.1,6.6 -1,21.4 -10,38 C 67.5,79.9 54.4,88.1 50,90.5 45.5,88.1 32.5,79.9 22.6,61.8 13.6,45.4 12.5,30.5 12.6,23.8 16.7,23.7 24.5,23 34.1,19.5 42.3,16.5 47.2,13.4 50,11 m 0,-6 c 0,0 -2.5,5.4 -17.3,10.8 -9.5,3.5 -16.9,4.1 -20.9,4.1 -2,0 -3,-0.1 -3,-0.1 0,0 -2.7,20.4 10.3,44 C 32.1,87.4 50,95 50,95 c 0,0 18,-7.6 30.9,-31.2 12.9,-23.6 10.3,-44 10.3,-44 0,0 -1.1,0.1 -3,0.1 -3.9,0 -11.3,-0.6 -20.9,-4.1 C 52.5,10.4 50,5 50,5 Z"
               id="path930" />
          </g>
          <polygon
             style="fill:#ffffff;stroke-width:1.42669308"
             transform="translate(31.242805,52.658622)"
             points="50.8,45.9 57.5,23.6 41.3,51.4 49.4,50.1 43,74.6 58.7,44.7 "
             id="polygon934" />
        </g>
      </g>
    </g>
  </g>
</svg>
