<?xml version="1.0" encoding="UTF-8" standalone="no"?>
<svg
   xmlns:dc="http://purl.org/dc/elements/1.1/"
   xmlns:cc="http://creativecommons.org/ns#"
   xmlns:rdf="http://www.w3.org/1999/02/22-rdf-syntax-ns#"
   xmlns:svg="http://www.w3.org/2000/svg"
   xmlns="http://www.w3.org/2000/svg"
   xmlns:sodipodi="http://sodipodi.sourceforge.net/DTD/sodipodi-0.dtd"
   xmlns:inkscape="http://www.inkscape.org/namespaces/inkscape"
   viewBox="0 0 100 100"
   x="0px"
   y="0px"
   version="1.1"
   id="svg8"
   sodipodi:docname="RecallShip.svg"
   width="100"
   height="100"
   inkscape:version="0.92.3 (2405546, 2018-03-11)"
   inkscape:export-filename="RecallShip.png"
   inkscape:export-xdpi="96"
   inkscape:export-ydpi="96">
  <metadata
     id="metadata14">
    <rdf:RDF>
      <cc:Work
         rdf:about="">
        <dc:format>image/svg+xml</dc:format>
        <dc:type
           rdf:resource="http://purl.org/dc/dcmitype/StillImage" />
        <dc:title></dc:title>
      </cc:Work>
    </rdf:RDF>
  </metadata>
  <defs
     id="defs12" />
  <sodipodi:namedview
     pagecolor="#000000"
     bordercolor="#666666"
     borderopacity="1"
     objecttolerance="10"
     gridtolerance="10"
     guidetolerance="10"
     inkscape:pageopacity="0"
     inkscape:pageshadow="2"
     inkscape:window-width="1280"
     inkscape:window-height="657"
     id="namedview10"
     showgrid="false"
     fit-margin-top="0"
     fit-margin-left="0"
     fit-margin-right="0"
     fit-margin-bottom="0"
     inkscape:pagecheckerboard="true"
     inkscape:zoom="2.8606061"
     inkscape:cx="-23.522233"
     inkscape:cy="24.750254"
     inkscape:window-x="-8"
     inkscape:window-y="-8"
     inkscape:window-maximized="1"
     inkscape:current-layer="svg8" />
  <path
     d="m 45.000011,28.999873 h -9 c -0.55228,0 -1,-0.44772 -1,-1 v -10 c 0,-0.55228 0.44772,-1 1,-1 h 28 c 0.55228,0 1,0.44772 1,1 v 10 c 0,0.55228 -0.44772,1 -1,1 h -9 v 16.63795 l 14.76822,17.72187 c 0.21017,0.2522 0.28316,0.5915 0.1953,0.90782 l -5,18 c -0.14782,0.53214 -0.69903,0.843692 -1.23116,0.69588 -0.53214,-0.14782 -0.84369,-0.69903 -0.69588,-1.23116 l 4.8597,-17.4949 -14.36455,-17.23746 h -2.53163 v 35 c 0,0.55228 -0.44772,1 -1,1 -0.55228,0 -1,-0.44772 -1,-1 v -35 h -2.53163 l -14.36455,17.23746 4.8597,17.4949 c 0.14781,0.53213 -0.16374,1.08334 -0.69588,1.23116 -0.53213,0.147812 -1.08334,-0.16374 -1.23116,-0.69588 l -5,-18 c -0.0879,-0.31632 -0.0149,-0.65562 0.1953,-0.90782 l 14.76822,-17.72187 z m 2,0 v 16 h 6 v -16 z m -10,-10 v 8 h 26 v -8 z"
     id="path2"
     inkscape:connector-curvature="0"
     style="fill:#ffffff;fill-rule:evenodd" />
</svg>
