<?xml version="1.0" encoding="UTF-8" standalone="no"?>
<svg
   xmlns:dc="http://purl.org/dc/elements/1.1/"
   xmlns:cc="http://creativecommons.org/ns#"
   xmlns:rdf="http://www.w3.org/1999/02/22-rdf-syntax-ns#"
   xmlns:svg="http://www.w3.org/2000/svg"
   xmlns="http://www.w3.org/2000/svg"
   xmlns:sodipodi="http://sodipodi.sourceforge.net/DTD/sodipodi-0.dtd"
   xmlns:inkscape="http://www.inkscape.org/namespaces/inkscape"
   data-name="Layer 1"
   viewBox="0 0 100 100"
   x="0px"
   y="0px"
   version="1.1"
   id="svg10"
   sodipodi:docname="RotationLocked.svg"
   width="100"
   height="100"
   inkscape:version="0.92.2 5c3e80d, 2017-08-06"
   inkscape:export-filename="RotationLocked.png"
   inkscape:export-xdpi="96"
   inkscape:export-ydpi="96">
  <metadata
     id="metadata16">
    <rdf:RDF>
      <cc:Work
         rdf:about="">
        <dc:format>image/svg+xml</dc:format>
        <dc:type
           rdf:resource="http://purl.org/dc/dcmitype/StillImage" />
        <dc:title>outlined</dc:title>
      </cc:Work>
    </rdf:RDF>
  </metadata>
  <defs
     id="defs14" />
  <sodipodi:namedview
     pagecolor="#000000"
     bordercolor="#666666"
     borderopacity="1"
     objecttolerance="10"
     gridtolerance="10"
     guidetolerance="10"
     inkscape:pageopacity="0"
     inkscape:pageshadow="2"
     inkscape:window-width="1440"
     inkscape:window-height="852"
     id="namedview12"
     showgrid="false"
     fit-margin-top="0"
     fit-margin-left="0"
     fit-margin-right="0"
     fit-margin-bottom="0"
     inkscape:pagecheckerboard="true"
     inkscape:zoom="6.39"
     inkscape:cx="20.657277"
     inkscape:cy="50"
     inkscape:window-x="0"
     inkscape:window-y="0"
     inkscape:window-maximized="1"
     inkscape:current-layer="svg10" />
  <title
     id="title2">outlined</title>
  <path
     d="m 93.633334,49.997975 a 44.166667,44.166667 0 0 1 -87.2041673,9.975 2.5,2.5 0 1 1 4.8708333,-1.125 39.191667,39.191667 0 1 0 2.695833,-25.454168 h 13.308334 a 2.5,2.5 0 1 1 0,5 H 8.8666667 a 2.5,2.5 0 0 1 -2.5,-2.5 V 17.45214 a 2.5000002,2.5000002 0 0 1 5.0000003,0 v 10.25 A 44.166667,44.166667 0 0 1 93.633334,49.997975 Z M 58.9875,35.697974 v 4.3625 a 11.754167,11.754167 0 0 1 8.954167,11.383335 v 7.1375 A 11.770833,11.770833 0 0 1 56.183334,70.335476 H 43.816667 A 11.770833,11.770833 0 0 1 32.058334,58.581309 V 51.447975 A 11.754167,11.754167 0 0 1 41.0125,40.060474 v -4.3625 a 8.9875001,8.9875001 0 1 1 17.975,0 z m -12.975,3.9875 h 7.975 v -3.9875 a 3.9875,3.9875 0 1 0 -7.975,0 z m 10.170834,5.000001 H 43.816667 a 6.7708334,6.7708334 0 0 0 -6.758333,6.7625 v 7.1375 a 6.7666667,6.7666667 0 0 0 6.758333,6.758334 H 56.1875 a 6.7666667,6.7666667 0 0 0 6.758334,-6.758334 v -7.1375 a 6.7708334,6.7708334 0 0 0 -6.7625,-6.7625 z M 50,50.385475 a 4.6291667,4.6291667 0 1 0 4.629167,4.6125 A 4.6291667,4.6291667 0 0 0 50,50.385475 Z"
     id="path4"
     inkscape:connector-curvature="0"
     style="stroke-width:1;fill:#ffffff" />
</svg>
