<?xml version="1.0" encoding="UTF-8" standalone="no"?>
<!-- Generator: Adobe Illustrator 16.0.0, SVG Export Plug-In . SVG Version: 6.00 Build 0)  -->

<svg
   xmlns:dc="http://purl.org/dc/elements/1.1/"
   xmlns:cc="http://creativecommons.org/ns#"
   xmlns:rdf="http://www.w3.org/1999/02/22-rdf-syntax-ns#"
   xmlns:svg="http://www.w3.org/2000/svg"
   xmlns="http://www.w3.org/2000/svg"
   xmlns:sodipodi="http://sodipodi.sourceforge.net/DTD/sodipodi-0.dtd"
   xmlns:inkscape="http://www.inkscape.org/namespaces/inkscape"
   version="1.1"
   id="Layer_2"
   x="0px"
   y="0px"
   width="100"
   height="100"
   viewBox="0 0 100 100"
   enable-background="new 0 0 960 960"
   xml:space="preserve"
   sodipodi:docname="ShieldCellBank.svg"
   inkscape:version="0.92.3 (2405546, 2018-03-11)"
   inkscape:export-filename="ShieldCellBank.png"
   inkscape:export-xdpi="96"
   inkscape:export-ydpi="96"><metadata
     id="metadata47"><rdf:RDF><cc:Work
         rdf:about=""><dc:format>image/svg+xml</dc:format><dc:type
           rdf:resource="http://purl.org/dc/dcmitype/StillImage" /><dc:title></dc:title></cc:Work></rdf:RDF></metadata><defs
     id="defs45" /><sodipodi:namedview
     pagecolor="#000000"
     bordercolor="#666666"
     borderopacity="1"
     objecttolerance="10"
     gridtolerance="10"
     guidetolerance="10"
     inkscape:pageopacity="0"
     inkscape:pageshadow="2"
     inkscape:window-width="1280"
     inkscape:window-height="657"
     id="namedview43"
     showgrid="false"
     inkscape:pagecheckerboard="true"
     inkscape:zoom="2.7068931"
     inkscape:cx="11.762407"
     inkscape:cy="90.632703"
     inkscape:window-x="-8"
     inkscape:window-y="-8"
     inkscape:window-maximized="1"
     inkscape:current-layer="Layer_2"
     fit-margin-top="0"
     fit-margin-left="0"
     fit-margin-right="0"
     fit-margin-bottom="0"
     showguides="false" /><g
     id="g12"
     transform="translate(-14,-846)" /><g
     id="g14"
     transform="translate(-14,-846)" /><g
     id="g16"
     transform="translate(-14,-846)" /><g
     id="g18"
     transform="translate(-14,-846)" /><g
     id="g20"
     transform="translate(-14,-846)" /><g
     id="g22"
     transform="translate(-14,-846)" /><g
     id="g24"
     transform="translate(-14,-846)" /><g
     id="g26"
     transform="translate(-14,-846)" /><g
     id="g28"
     transform="translate(-14,-846)" /><g
     id="g30"
     transform="translate(-14,-846)" /><g
     id="g32"
     transform="translate(-14,-846)" /><g
     id="g34"
     transform="translate(-14,-846)" /><g
     id="g36"
     transform="translate(-14,-846)" /><g
     id="g38"
     transform="translate(-14,-846)" /><g
     id="g40"
     transform="translate(-14,-846)" /><g
     id="g953"
     transform="translate(-17.233829,-66.658622)"><g
       id="g932"
       transform="translate(17.242805,66.658622)"
       style="fill:#ffffff"><path
         id="path930"
         d="m 50,11 c 2.8,2.4 7.7,5.6 15.9,8.6 9.6,3.5 17.3,4.3 21.5,4.3 0.1,6.6 -1,21.4 -10,38 C 67.5,79.9 54.4,88.1 50,90.5 45.5,88.1 32.5,79.9 22.6,61.8 13.6,45.4 12.5,30.5 12.6,23.8 16.7,23.7 24.5,23 34.1,19.5 42.3,16.5 47.2,13.4 50,11 m 0,-6 c 0,0 -2.5,5.4 -17.3,10.8 -9.5,3.5 -16.9,4.1 -20.9,4.1 -2,0 -3,-0.1 -3,-0.1 0,0 -2.7,20.4 10.3,44 C 32.1,87.4 50,95 50,95 c 0,0 18,-7.6 30.9,-31.2 12.9,-23.6 10.3,-44 10.3,-44 0,0 -1.1,0.1 -3,0.1 -3.9,0 -11.3,-0.6 -20.9,-4.1 C 52.5,10.4 50,5 50,5 Z"
         inkscape:connector-curvature="0"
         style="fill:#ffffff" /></g><polygon
       id="polygon934"
       points="50.8,45.9 57.5,23.6 41.3,51.4 49.4,50.1 43,74.6 58.7,44.7 "
       transform="translate(17.242805,66.658622)"
       style="fill:#ffffff" /></g></svg>