<?xml version="1.0" encoding="UTF-8" standalone="no"?>
<!-- Created with Inkscape (http://www.inkscape.org/) -->

<svg
   xmlns:dc="http://purl.org/dc/elements/1.1/"
   xmlns:cc="http://creativecommons.org/ns#"
   xmlns:rdf="http://www.w3.org/1999/02/22-rdf-syntax-ns#"
   xmlns:svg="http://www.w3.org/2000/svg"
   xmlns="http://www.w3.org/2000/svg"
   xmlns:sodipodi="http://sodipodi.sourceforge.net/DTD/sodipodi-0.dtd"
   xmlns:inkscape="http://www.inkscape.org/namespaces/inkscape"
   width="128"
   height="128"
   viewBox="0 0 33.866666 33.866666"
   version="1.1"
   id="svg6207"
   inkscape:version="0.92.2 5c3e80d, 2017-08-06"
   sodipodi:docname="Supercruise.svg"
   inkscape:export-filename="/Users/daniel/Sync/Icons/new/Supercruise.png"
   inkscape:export-xdpi="96"
   inkscape:export-ydpi="96">
  <defs
     id="defs6201">
    <inkscape:path-effect
       effect="simplify"
       id="path-effect6841"
       is_visible="true"
       steps="1"
       threshold="0.002"
       smooth_angles="20"
       helper_size="5"
       simplify_individual_paths="false"
       simplify_just_coalesce="false" />
    <inkscape:perspective
       sodipodi:type="inkscape:persp3d"
       inkscape:vp_x="0 : 16.933333 : 1"
       inkscape:vp_y="0 : 1000 : 0"
       inkscape:vp_z="33.866666 : 16.933333 : 1"
       inkscape:persp3d-origin="16.933333 : 11.288889 : 1"
       id="perspective6756" />
  </defs>
  <sodipodi:namedview
     id="base"
     pagecolor="#000000"
     bordercolor="#666666"
     borderopacity="1.0"
     inkscape:pageopacity="0"
     inkscape:pageshadow="2"
     inkscape:zoom="5.6568543"
     inkscape:cx="17.691781"
     inkscape:cy="80.125587"
     inkscape:document-units="px"
     inkscape:current-layer="layer5"
     showgrid="false"
     units="px"
     inkscape:window-width="1365"
     inkscape:window-height="855"
     inkscape:window-x="-2"
     inkscape:window-y="0"
     inkscape:window-maximized="0"
     inkscape:snap-intersection-paths="true"
     inkscape:object-paths="true"
     inkscape:snap-bbox="true"
     inkscape:bbox-nodes="true"
     inkscape:snap-page="true"
     inkscape:snap-object-midpoints="true"
     inkscape:snap-nodes="true"
     inkscape:object-nodes="false"
     inkscape:pagecheckerboard="true"
     fit-margin-top="0"
     fit-margin-left="0"
     fit-margin-right="0"
     fit-margin-bottom="0" />
  <metadata
     id="metadata6204">
    <rdf:RDF>
      <cc:Work
         rdf:about="">
        <dc:format>image/svg+xml</dc:format>
        <dc:type
           rdf:resource="http://purl.org/dc/dcmitype/StillImage" />
        <dc:title></dc:title>
      </cc:Work>
    </rdf:RDF>
  </metadata>
  <g
     inkscape:groupmode="layer"
     id="layer5"
     inkscape:label="Border"
     style="display:inline">
    <g
       style="display:inline"
       id="g1809"
       transform="matrix(0.26458333,0,0,0.26458333,-8.6078873,-0.55945999)">
      <g
         transform="translate(0,-832)"
         id="g12" />
      <g
         transform="translate(0,-832)"
         id="g14" />
      <g
         transform="translate(0,-832)"
         id="g16" />
      <g
         transform="translate(0,-832)"
         id="g18" />
      <g
         transform="translate(0,-832)"
         id="g20" />
      <g
         transform="translate(0,-832)"
         id="g22" />
      <g
         transform="translate(0,-832)"
         id="g24" />
      <g
         transform="translate(0,-832)"
         id="g26" />
      <g
         transform="translate(0,-832)"
         id="g28" />
      <g
         transform="translate(0,-832)"
         id="g30" />
      <g
         transform="translate(0,-832)"
         id="g32" />
      <g
         transform="translate(0,-832)"
         id="g34" />
      <g
         transform="translate(0,-832)"
         id="g36" />
      <g
         transform="translate(0,-832)"
         id="g38" />
      <g
         transform="translate(0,-832)"
         id="g40" />
      <g
         transform="translate(32.533747,2.1144914)"
         id="g894">
        <g
           transform="translate(0,-924.36218)"
           id="layer1-7"
           inkscape:label="Layer 1">
          <rect
             ry="15.75"
             y="925.36218"
             x="1"
             height="126"
             width="126"
             id="rect4138"
             style="opacity:1;fill:none;fill-opacity:1;fill-rule:evenodd;stroke:#ffffff;stroke-width:2;stroke-miterlimit:4;stroke-dasharray:none;stroke-opacity:1" />
        </g>
      </g>
    </g>
    <rect
       style="opacity:1;fill:#ffffff;fill-opacity:1;fill-rule:evenodd;stroke:#ffffff;stroke-width:0;stroke-miterlimit:4;stroke-dasharray:none;stroke-opacity:1"
       id="rect1838"
       width="0.54783261"
       height="6.349999"
       x="3.8348358"
       y="11.477154"
       transform="matrix(0.96592583,-0.25881905,0,1,0,0)" />
    <rect
       y="11.477154"
       x="6.0261703"
       height="6.349999"
       width="0.54783261"
       id="rect1846"
       style="opacity:1;fill:#ffffff;fill-opacity:1;fill-rule:evenodd;stroke:#ffffff;stroke-width:0;stroke-miterlimit:4;stroke-dasharray:none;stroke-opacity:1"
       transform="matrix(0.96592583,-0.25881905,0,1,0,0)" />
    <rect
       y="11.477154"
       x="8.2175045"
       height="6.349999"
       width="0.54783261"
       id="rect1864"
       style="opacity:1;fill:#ffffff;fill-opacity:1;fill-rule:evenodd;stroke:#ffffff;stroke-width:0;stroke-miterlimit:4;stroke-dasharray:none;stroke-opacity:1"
       transform="matrix(0.96592583,-0.25881905,0,1,0,0)" />
    <rect
       y="11.477154"
       x="10.408839"
       height="6.349999"
       width="0.54783261"
       id="rect1868"
       style="opacity:1;fill:#ffffff;fill-opacity:1;fill-rule:evenodd;stroke:#ffffff;stroke-width:0;stroke-miterlimit:4;stroke-dasharray:none;stroke-opacity:1"
       transform="matrix(0.96592583,-0.25881905,0,1,0,0)" />
    <rect
       style="opacity:1;fill:#ffffff;fill-opacity:1;fill-rule:evenodd;stroke:#ffffff;stroke-width:0;stroke-miterlimit:4;stroke-dasharray:none;stroke-opacity:1"
       id="rect1874"
       width="0.54783261"
       height="6.349999"
       x="12.600174"
       y="11.477154"
       transform="matrix(0.96592583,-0.25881905,0,1,0,0)" />
    <rect
       transform="matrix(-0.96592583,-0.25881905,0,1,0,0)"
       y="2.4026082"
       x="-31.226517"
       height="6.349999"
       width="0.54783261"
       id="rect1886"
       style="opacity:1;fill:#ffffff;fill-opacity:1;fill-rule:evenodd;stroke:#ffffff;stroke-width:0;stroke-miterlimit:4;stroke-dasharray:none;stroke-opacity:1" />
    <rect
       transform="matrix(-0.96592583,-0.25881905,0,1,0,0)"
       style="opacity:1;fill:#ffffff;fill-opacity:1;fill-rule:evenodd;stroke:#ffffff;stroke-width:0;stroke-miterlimit:4;stroke-dasharray:none;stroke-opacity:1"
       id="rect1888"
       width="0.54783261"
       height="6.349999"
       x="-29.035181"
       y="2.4026082" />
    <rect
       transform="matrix(-0.96592583,-0.25881905,0,1,0,0)"
       style="opacity:1;fill:#ffffff;fill-opacity:1;fill-rule:evenodd;stroke:#ffffff;stroke-width:0;stroke-miterlimit:4;stroke-dasharray:none;stroke-opacity:1"
       id="rect1890"
       width="0.54783261"
       height="6.349999"
       x="-26.843847"
       y="2.4026082" />
    <rect
       transform="matrix(-0.96592583,-0.25881905,0,1,0,0)"
       style="opacity:1;fill:#ffffff;fill-opacity:1;fill-rule:evenodd;stroke:#ffffff;stroke-width:0;stroke-miterlimit:4;stroke-dasharray:none;stroke-opacity:1"
       id="rect1892"
       width="0.54783261"
       height="6.349999"
       x="-24.652512"
       y="2.4026082" />
    <rect
       transform="matrix(-0.96592583,-0.25881905,0,1,0,0)"
       y="2.4026082"
       x="-22.461178"
       height="6.349999"
       width="0.54783261"
       id="rect1894"
       style="opacity:1;fill:#ffffff;fill-opacity:1;fill-rule:evenodd;stroke:#ffffff;stroke-width:0;stroke-miterlimit:4;stroke-dasharray:none;stroke-opacity:1" />
  </g>
  <g
     inkscape:label="Sidewinder"
     inkscape:groupmode="layer"
     id="layer1"
     transform="translate(3.7041667,-266.8375)"
     style="display:inline">
    <path
       style="opacity:1;fill:#ffffff;fill-opacity:1;fill-rule:evenodd;stroke:#ffffff;stroke-width:0;stroke-miterlimit:4;stroke-dasharray:none;stroke-opacity:1"
       d="m 16.486328,70.501953 c -0.118463,-0.0072 -0.14921,0.03611 -0.06641,0.171875 v 0.002 L 30.414062,89.761719 30.291016,100 H 50 69.708984 L 69.585938,89.761719 83.580078,70.675781 v -0.002 c 0.08281,-0.134173 0.05204,-0.179434 -0.06641,-0.171875 H 50 Z M 14.4375,72.384766 c -0.0667,0.0044 -0.12427,0.05727 -0.171875,0.175781 L 0.15234375,99.705078 c -8.0455e-4,0.0014 7.9076e-4,0.0025 0,0.0039 C 0.06575506,99.859491 0.06092359,99.997126 0.296875,100 H 28 L 27.917969,90.580078 14.660156,72.5 l -0.002,-0.002 C 14.579269,72.424485 14.50357,72.380388 14.4375,72.384766 Z m 71.222656,0 c -0.06607,-0.0042 -0.141824,0.03958 -0.220703,0.113281 L 85.4375,72.5 72.179688,90.580078 72.097656,100 h 27.703125 c 0.235959,-0.003 0.231119,-0.14059 0.144531,-0.291016 -7.89e-4,-0.0013 8.06e-4,-0.0025 0,-0.0039 L 85.832031,72.560547 c -0.04758,-0.118299 -0.105166,-0.172002 -0.171875,-0.175781 z M 49,75 h 2 c 2.216,0 4,1.784 4,4 v 3 c 0,2.216 -1.784,4 -4,4 h -2 c -2.216,0 -4,-1.784 -4,-4 v -3 c 0,-2.216 1.784,-4 4,-4 z"
       transform="matrix(0.26458333,0,0,0.26458333,0,270.54167)"
       id="rect6793"
       inkscape:connector-curvature="0" />
  </g>
  <g
     inkscape:groupmode="layer"
     id="layer2"
     inkscape:label="Supercruise"
     style="display:inline" />
</svg>
