<?xml version="1.0" encoding="UTF-8" standalone="no"?>
<!-- Created with Inkscape (http://www.inkscape.org/) -->

<svg
   xmlns:dc="http://purl.org/dc/elements/1.1/"
   xmlns:cc="http://creativecommons.org/ns#"
   xmlns:rdf="http://www.w3.org/1999/02/22-rdf-syntax-ns#"
   xmlns:svg="http://www.w3.org/2000/svg"
   xmlns="http://www.w3.org/2000/svg"
   xmlns:sodipodi="http://sodipodi.sourceforge.net/DTD/sodipodi-0.dtd"
   xmlns:inkscape="http://www.inkscape.org/namespaces/inkscape"
   width="100"
   height="100"
   viewBox="0 0 26.458333 26.458333"
   version="1.1"
   id="svg6207"
   inkscape:version="0.92.3 (2405546, 2018-03-11)"
   sodipodi:docname="Supercruise.svg"
   inkscape:export-filename="Supercruise.png"
   inkscape:export-xdpi="96"
   inkscape:export-ydpi="96">
  <defs
     id="defs6201">
    <inkscape:path-effect
       effect="simplify"
       id="path-effect6841"
       is_visible="true"
       steps="1"
       threshold="0.002"
       smooth_angles="20"
       helper_size="5"
       simplify_individual_paths="false"
       simplify_just_coalesce="false" />
    <inkscape:perspective
       sodipodi:type="inkscape:persp3d"
       inkscape:vp_x="0 : 16.933333 : 1"
       inkscape:vp_y="0 : 1000 : 0"
       inkscape:vp_z="33.866666 : 16.933333 : 1"
       inkscape:persp3d-origin="16.933333 : 11.288889 : 1"
       id="perspective6756" />
  </defs>
  <sodipodi:namedview
     id="base"
     pagecolor="#000000"
     bordercolor="#666666"
     borderopacity="1.0"
     inkscape:pageopacity="0"
     inkscape:pageshadow="2"
     inkscape:zoom="2.8284272"
     inkscape:cx="10.211773"
     inkscape:cy="89.220602"
     inkscape:document-units="px"
     inkscape:current-layer="layer5"
     showgrid="false"
     units="px"
     inkscape:window-width="1280"
     inkscape:window-height="720"
     inkscape:window-x="-2"
     inkscape:window-y="0"
     inkscape:window-maximized="0"
     inkscape:snap-intersection-paths="true"
     inkscape:object-paths="true"
     inkscape:snap-bbox="true"
     inkscape:bbox-nodes="true"
     inkscape:snap-page="true"
     inkscape:snap-object-midpoints="true"
     inkscape:snap-nodes="true"
     inkscape:object-nodes="false"
     inkscape:pagecheckerboard="true"
     fit-margin-top="0"
     fit-margin-left="0"
     fit-margin-right="0"
     fit-margin-bottom="0" />
  <metadata
     id="metadata6204">
    <rdf:RDF>
      <cc:Work
         rdf:about="">
        <dc:format>image/svg+xml</dc:format>
        <dc:type
           rdf:resource="http://purl.org/dc/dcmitype/StillImage" />
        <dc:title></dc:title>
      </cc:Work>
    </rdf:RDF>
  </metadata>
  <g
     inkscape:groupmode="layer"
     id="layer5"
     inkscape:label="Border"
     style="display:inline"
     transform="translate(0,-7.4083332)">
    <rect
       style="opacity:1;fill:#ffffff;fill-opacity:1;fill-rule:evenodd;stroke:#ffffff;stroke-width:0;stroke-miterlimit:4;stroke-dasharray:none;stroke-opacity:1"
       id="rect1838"
       width="0.54783261"
       height="6.349999"
       x="4.8167612e-007"
       y="14.188792"
       transform="matrix(0.96592583,-0.25881905,0,1,0,0)" />
    <rect
       y="14.188792"
       x="2.191335"
       height="6.349999"
       width="0.54783261"
       id="rect1846"
       style="opacity:1;fill:#ffffff;fill-opacity:1;fill-rule:evenodd;stroke:#ffffff;stroke-width:0;stroke-miterlimit:4;stroke-dasharray:none;stroke-opacity:1"
       transform="matrix(0.96592583,-0.25881905,0,1,0,0)" />
    <rect
       y="14.188792"
       x="4.3826694"
       height="6.349999"
       width="0.54783261"
       id="rect1864"
       style="opacity:1;fill:#ffffff;fill-opacity:1;fill-rule:evenodd;stroke:#ffffff;stroke-width:0;stroke-miterlimit:4;stroke-dasharray:none;stroke-opacity:1"
       transform="matrix(0.96592583,-0.25881905,0,1,0,0)" />
    <rect
       y="14.188792"
       x="6.5740042"
       height="6.349999"
       width="0.54783261"
       id="rect1868"
       style="opacity:1;fill:#ffffff;fill-opacity:1;fill-rule:evenodd;stroke:#ffffff;stroke-width:0;stroke-miterlimit:4;stroke-dasharray:none;stroke-opacity:1"
       transform="matrix(0.96592583,-0.25881905,0,1,0,0)" />
    <rect
       style="opacity:1;fill:#ffffff;fill-opacity:1;fill-rule:evenodd;stroke:#ffffff;stroke-width:0;stroke-miterlimit:4;stroke-dasharray:none;stroke-opacity:1"
       id="rect1874"
       width="0.54783261"
       height="6.349999"
       x="8.7653389"
       y="14.188792"
       transform="matrix(0.96592583,-0.25881905,0,1,0,0)" />
    <rect
       transform="matrix(-0.96592583,-0.25881905,0,1,0,0)"
       y="7.0993032"
       x="-27.391682"
       height="6.349999"
       width="0.54783261"
       id="rect1886"
       style="opacity:1;fill:#ffffff;fill-opacity:1;fill-rule:evenodd;stroke:#ffffff;stroke-width:0;stroke-miterlimit:4;stroke-dasharray:none;stroke-opacity:1" />
    <rect
       transform="matrix(-0.96592583,-0.25881905,0,1,0,0)"
       style="opacity:1;fill:#ffffff;fill-opacity:1;fill-rule:evenodd;stroke:#ffffff;stroke-width:0;stroke-miterlimit:4;stroke-dasharray:none;stroke-opacity:1"
       id="rect1888"
       width="0.54783261"
       height="6.349999"
       x="-25.200346"
       y="7.0993032" />
    <rect
       transform="matrix(-0.96592583,-0.25881905,0,1,0,0)"
       style="opacity:1;fill:#ffffff;fill-opacity:1;fill-rule:evenodd;stroke:#ffffff;stroke-width:0;stroke-miterlimit:4;stroke-dasharray:none;stroke-opacity:1"
       id="rect1890"
       width="0.54783261"
       height="6.349999"
       x="-23.009012"
       y="7.0993032" />
    <rect
       transform="matrix(-0.96592583,-0.25881905,0,1,0,0)"
       style="opacity:1;fill:#ffffff;fill-opacity:1;fill-rule:evenodd;stroke:#ffffff;stroke-width:0;stroke-miterlimit:4;stroke-dasharray:none;stroke-opacity:1"
       id="rect1892"
       width="0.54783261"
       height="6.349999"
       x="-20.817677"
       y="7.0993032" />
    <rect
       transform="matrix(-0.96592583,-0.25881905,0,1,0,0)"
       y="7.0993032"
       x="-18.626343"
       height="6.349999"
       width="0.54783261"
       id="rect1894"
       style="opacity:1;fill:#ffffff;fill-opacity:1;fill-rule:evenodd;stroke:#ffffff;stroke-width:0;stroke-miterlimit:4;stroke-dasharray:none;stroke-opacity:1" />
  </g>
  <g
     inkscape:label="Sidewinder"
     inkscape:groupmode="layer"
     id="layer1"
     transform="translate(3.7041667,-274.24583)"
     style="display:inline">
    <path
       style="opacity:1;fill:#ffffff;fill-opacity:1;fill-rule:evenodd;stroke:#ffffff;stroke-width:0;stroke-miterlimit:4;stroke-dasharray:none;stroke-opacity:1"
       d="m 0.65784112,292.89948 c -0.0313433,-0.002 -0.0394785,0.01 -0.017571,0.0455 v 5.3e-4 l 3.70261728,5.04978 -0.032556,2.70888 h 5.2146687 5.2146689 l -0.03256,-2.70888 3.702616,-5.04982 v -5.3e-4 c 0.02191,-0.0355 0.01377,-0.0475 -0.01757,-0.0455 H 9.5250001 Z m -0.54208573,0.49816 c -0.01764771,10e-4 -0.03287977,0.0152 -0.04547526,0.0465 l -3.73413893,7.18199 c -2.129e-4,3.7e-4 2.092e-4,6.6e-4 0,0.001 -0.02291,0.0398 -0.024188,0.0762 0.03824,0.077 h 7.3297851 l -0.021704,-2.49235 -3.50779635,-4.78369 -5.2916e-4,-5.3e-4 c -0.0208722,-0.0195 -0.0409009,-0.0311 -0.0583819,-0.03 z m 18.84432761,0 c -0.01748,-0.001 -0.03752,0.0105 -0.05839,0.03 l -5.17e-4,5.2e-4 -3.507796,4.78369 -0.02171,2.49232 h 7.329786 c 0.06243,-7.9e-4 0.06115,-0.0372 0.03824,-0.077 -2.09e-4,-3.5e-4 2.13e-4,-6.7e-4 0,-10e-4 l -3.734139,-7.18199 c -0.01259,-0.0313 -0.02782,-0.0455 -0.04547,-0.0465 z m -9.6996663,0.69195 h 0.5291667 c 0.5863166,0 1.0583336,0.47202 1.0583336,1.05833 v 0.79375 c 0,0.58632 -0.472017,1.05834 -1.0583336,1.05834 H 9.2604167 c -0.5863166,0 -1.0583333,-0.47202 -1.0583333,-1.05834 v -0.79375 c 0,-0.58631 0.4720167,-1.05833 1.0583333,-1.05833 z"
       id="rect6793"
       inkscape:connector-curvature="0" />
  </g>
  <g
     inkscape:groupmode="layer"
     id="layer2"
     inkscape:label="Supercruise"
     style="display:inline"
     transform="translate(0,-7.4083332)" />
</svg>
