<?xml version="1.0" encoding="UTF-8" standalone="no"?>
<!-- Generator: Adobe Illustrator 16.0.0, SVG Export Plug-In . SVG Version: 6.00 Build 0)  -->

<svg
   xmlns:dc="http://purl.org/dc/elements/1.1/"
   xmlns:cc="http://creativecommons.org/ns#"
   xmlns:rdf="http://www.w3.org/1999/02/22-rdf-syntax-ns#"
   xmlns:svg="http://www.w3.org/2000/svg"
   xmlns="http://www.w3.org/2000/svg"
   xmlns:sodipodi="http://sodipodi.sourceforge.net/DTD/sodipodi-0.dtd"
   xmlns:inkscape="http://www.inkscape.org/namespaces/inkscape"
   version="1.1"
   id="Layer_1"
   x="0px"
   y="0px"
   width="128"
   height="128"
   viewBox="0 0 128 128"
   enable-background="new 0 0 768.666 768.588"
   xml:space="preserve"
   sodipodi:docname="SystemMap.svg"
   inkscape:version="0.92.3 (2405546, 2018-03-11)"
   inkscape:export-filename="C:\Users\danie\OneDrive\Documents\Elite VR Cockpit Unity\Assets\Textures\Icons\SystemMap.png"
   inkscape:export-xdpi="96"
   inkscape:export-ydpi="96"><metadata
   id="metadata25"><rdf:RDF><cc:Work
       rdf:about=""><dc:format>image/svg+xml</dc:format><dc:type
         rdf:resource="http://purl.org/dc/dcmitype/StillImage" /><dc:title></dc:title></cc:Work></rdf:RDF></metadata><defs
   id="defs23" /><sodipodi:namedview
   pagecolor="#000000"
   bordercolor="#666666"
   borderopacity="1"
   objecttolerance="10"
   gridtolerance="10"
   guidetolerance="10"
   inkscape:pageopacity="0"
   inkscape:pageshadow="2"
   inkscape:window-width="1280"
   inkscape:window-height="657"
   id="namedview21"
   showgrid="false"
   inkscape:pagecheckerboard="true"
   fit-margin-top="0"
   fit-margin-left="0"
   fit-margin-right="0"
   fit-margin-bottom="0"
   inkscape:zoom="3.828125"
   inkscape:cx="80.326531"
   inkscape:cy="64"
   inkscape:window-x="-8"
   inkscape:window-y="-8"
   inkscape:window-maximized="1"
   inkscape:current-layer="Layer_1" />

<g
   id="g910"
   transform="matrix(0.12359074,0,0,0.12359074,16.5,16.5)"><g
     id="Layer_3">
	<circle
   id="circle2"
   r="94.085999"
   cy="384.33301"
   cx="384.33301"
   style="fill:#ffffff" />
	<circle
   id="circle4"
   r="42"
   cy="614"
   cx="86"
   style="fill:#ffffff" />
	<circle
   id="circle6"
   r="60"
   cy="594.66699"
   cx="444.66599"
   style="fill:#ffffff" />
	<circle
   id="circle8"
   r="40"
   cy="153.33299"
   cx="682.66699"
   style="fill:#ffffff" />
	<circle
   id="circle10"
   r="42.805"
   cy="183.76801"
   cx="447.862"
   style="fill:#ffffff" />
</g><g
     id="Layer_5">
	<circle
   id="circle13"
   r="210.334"
   cy="384.33301"
   cx="384.33301"
   stroke-miterlimit="10"
   style="fill:none;stroke:#ffffff;stroke-width:24;stroke-miterlimit:10" />
	<g
   id="g17">
		<path
   id="path15"
   d="m 384.333,24.84 c 48.542,0 95.619,9.501 139.924,28.241 42.806,18.105 81.253,44.029 114.276,77.053 33.022,33.023 58.947,71.471 77.053,114.277 18.738,44.304 28.24,91.381 28.24,139.923 0,48.542 -9.502,95.619 -28.24,139.924 -18.104,42.806 -44.029,81.253 -77.053,114.276 -33.024,33.022 -71.473,58.947 -114.276,77.053 -44.305,18.738 -91.382,28.24 -139.924,28.24 -48.542,0 -95.619,-9.502 -139.923,-28.24 C 201.604,697.483 163.156,671.558 130.133,638.534 97.11,605.51 71.186,567.062 53.081,524.257 34.341,479.952 24.84,432.875 24.84,384.333 24.84,335.791 34.341,288.714 53.081,244.41 71.186,201.604 97.11,163.157 130.134,130.133 163.158,97.109 201.605,71.185 244.411,53.08 288.714,34.341 335.791,24.84 384.333,24.84 m 0,-24.84 C 172.072,0 0,172.072 0,384.333 0,596.595 172.072,768.666 384.333,768.666 596.595,768.666 768.666,596.595 768.666,384.333 768.666,172.072 596.595,0 384.333,0 Z"
   inkscape:connector-curvature="0"
   style="fill:#ffffff" />
	</g>
</g></g>
<g
   id="g886"><g
     transform="translate(0,-832)"
     id="g12">
</g><g
     transform="translate(0,-832)"
     id="g14">
</g><g
     transform="translate(0,-832)"
     id="g16">
</g><g
     transform="translate(0,-832)"
     id="g18">
</g><g
     transform="translate(0,-832)"
     id="g20">
</g><g
     transform="translate(0,-832)"
     id="g22">
</g><g
     transform="translate(0,-832)"
     id="g24">
</g><g
     transform="translate(0,-832)"
     id="g26">
</g><g
     transform="translate(0,-832)"
     id="g28">
</g><g
     transform="translate(0,-832)"
     id="g30">
</g><g
     transform="translate(0,-832)"
     id="g32">
</g><g
     transform="translate(0,-832)"
     id="g34">
</g><g
     transform="translate(0,-832)"
     id="g36">
</g><g
     transform="translate(0,-832)"
     id="g38">
</g><g
     transform="translate(0,-832)"
     id="g40">
</g><g
     transform="translate(0,-2.6171875e-6)"
     id="g894"><g
       transform="translate(0,-924.36218)"
       id="layer1"
       inkscape:label="Layer 1"><rect
         ry="15.75"
         y="925.36218"
         x="1"
         height="126"
         width="126"
         id="rect4138"
         style="opacity:1;fill:none;fill-opacity:1;fill-rule:evenodd;stroke:#ffffff;stroke-width:2;stroke-miterlimit:4;stroke-dasharray:none;stroke-opacity:1" /></g></g></g></svg>