<?xml version="1.0" encoding="UTF-8" standalone="no"?>
<!-- Generator: Adobe Illustrator 16.0.0, SVG Export Plug-In . SVG Version: 6.00 Build 0)  -->

<svg
   xmlns:dc="http://purl.org/dc/elements/1.1/"
   xmlns:cc="http://creativecommons.org/ns#"
   xmlns:rdf="http://www.w3.org/1999/02/22-rdf-syntax-ns#"
   xmlns:svg="http://www.w3.org/2000/svg"
   xmlns="http://www.w3.org/2000/svg"
   xmlns:sodipodi="http://sodipodi.sourceforge.net/DTD/sodipodi-0.dtd"
   xmlns:inkscape="http://www.inkscape.org/namespaces/inkscape"
   version="1.1"
   id="Layer_2"
   x="0px"
   y="0px"
   width="110"
   height="110"
   viewBox="0 0 110 110"
   enable-background="new 0 0 960 960"
   xml:space="preserve"
   sodipodi:docname="TargetNextSystemInRoute.svg"
   inkscape:version="0.92.3 (2405546, 2018-03-11)"
   inkscape:export-filename="TargetNextSystemInRoute.png"
   inkscape:export-xdpi="96"
   inkscape:export-ydpi="96"><metadata
     id="metadata47"><rdf:RDF><cc:Work
         rdf:about=""><dc:format>image/svg+xml</dc:format><dc:type
           rdf:resource="http://purl.org/dc/dcmitype/StillImage" /><dc:title></dc:title></cc:Work></rdf:RDF></metadata><defs
     id="defs45" /><sodipodi:namedview
     pagecolor="#000000"
     bordercolor="#666666"
     borderopacity="1"
     objecttolerance="10"
     gridtolerance="10"
     guidetolerance="10"
     inkscape:pageopacity="0"
     inkscape:pageshadow="2"
     inkscape:window-width="1280"
     inkscape:window-height="657"
     id="namedview43"
     showgrid="false"
     inkscape:pagecheckerboard="true"
     inkscape:zoom="3.4648232"
     inkscape:cx="38.239053"
     inkscape:cy="53.620432"
     inkscape:window-x="-8"
     inkscape:window-y="-8"
     inkscape:window-maximized="1"
     inkscape:current-layer="Layer_2"
     fit-margin-top="0"
     fit-margin-left="0"
     fit-margin-right="0"
     fit-margin-bottom="0"
     showguides="true"
     inkscape:snap-object-midpoints="true"
     inkscape:lockguides="false"
     inkscape:guide-bbox="true" /><g
     id="g12"
     transform="translate(-9.0000005,-841)" /><g
     id="g14"
     transform="translate(-9.0000005,-841)" /><g
     id="g16"
     transform="translate(-9.0000005,-841)" /><g
     id="g18"
     transform="translate(-9.0000005,-841)" /><g
     id="g20"
     transform="translate(-9.0000005,-841)" /><g
     id="g22"
     transform="translate(-9.0000005,-841)" /><g
     id="g24"
     transform="translate(-9.0000005,-841)" /><g
     id="g26"
     transform="translate(-9.0000005,-841)" /><g
     id="g28"
     transform="translate(-9.0000005,-841)" /><g
     id="g30"
     transform="translate(-9.0000005,-841)" /><g
     id="g32"
     transform="translate(-9.0000005,-841)" /><g
     id="g34"
     transform="translate(-9.0000005,-841)" /><g
     id="g36"
     transform="translate(-9.0000005,-841)" /><g
     id="g38"
     transform="translate(-9.0000005,-841)" /><g
     id="g40"
     transform="translate(-9.0000005,-841)" /><g
     id="g912"
     transform="matrix(0.58100465,0,0,0.58100465,95.132869,-175.19913)"
     style="stroke-width:1.7211566"><g
       transform="matrix(0.13333333,0,0,0.13333333,-134.23729,331.66102)"
       id="g901"
       style="stroke-width:1.7211566"><circle
         style="fill:#ffffff;stroke-width:1.7211566"
         cx="281.73901"
         cy="681.86902"
         r="157.608"
         id="circle2" /><circle
         style="fill:#ffffff;stroke-width:1.7211566"
         cx="568.73999"
         cy="217.869"
         r="89.129997"
         id="circle4" /><circle
         style="fill:#ffffff;stroke-width:1.7211566"
         cx="808.73901"
         cy="431.86899"
         r="44.564999"
         id="circle6" /><polygon
         style="fill:#ffffff;stroke-width:1.7211566"
         points="639.1,248.452 790.36,406.175 774.75,418.75 604.45,281.867 "
         id="polygon8" /><polygon
         style="fill:#ffffff;stroke-width:1.7211566"
         points="513.261,278.609 538.706,290.016 301.606,690.544 248.797,660.119 "
         id="polygon10" /></g></g><path
     style="opacity:1;fill:#ffffff;fill-opacity:1;fill-rule:evenodd;stroke:#ffffff;stroke-width:0;stroke-miterlimit:4;stroke-dasharray:none;stroke-opacity:1"
     d="M 66.999999,4.4277322 V 6.5371068 A 50,50 0 0 1 103.48633,42.999998 h 2.05078 A 52.000004,51.999996 0 0 0 66.999999,4.4277322 Z m -24,0.04883 A 52.000004,51.999996 0 0 0 4.4648435,42.999998 h 2.058594 A 50,50 0 0 1 42.999999,6.5097638 Z M 4.4628905,66.999998 A 52.000004,51.999996 0 0 0 42.999999,105.57227 v -2.10938 A 50,50 0 0 1 6.5136715,66.999998 Z m 99.0136695,0 A 50,50 0 0 1 66.999999,103.49023 v 2.03321 A 52.000004,51.999996 0 0 0 105.53516,66.999998 Z"
     id="path5363"
     inkscape:connector-curvature="0" /><circle
     style="opacity:1;fill:#ffffff;fill-opacity:1;fill-rule:evenodd;stroke:#ffffff;stroke-width:0;stroke-miterlimit:4;stroke-dasharray:none;stroke-opacity:1"
     id="path5392"
     cx="55"
     cy="54.999996"
     r="1.4999999" /></svg>