<?xml version="1.0" encoding="UTF-8" standalone="no"?>
<!-- Generator: Adobe Illustrator 16.0.0, SVG Export Plug-In . SVG Version: 6.00 Build 0)  -->

<svg
   xmlns:dc="http://purl.org/dc/elements/1.1/"
   xmlns:cc="http://creativecommons.org/ns#"
   xmlns:rdf="http://www.w3.org/1999/02/22-rdf-syntax-ns#"
   xmlns:svg="http://www.w3.org/2000/svg"
   xmlns="http://www.w3.org/2000/svg"
   xmlns:sodipodi="http://sodipodi.sourceforge.net/DTD/sodipodi-0.dtd"
   xmlns:inkscape="http://www.inkscape.org/namespaces/inkscape"
   version="1.1"
   id="Layer_2"
   x="0px"
   y="0px"
   width="128"
   height="128"
   viewBox="0 0 128 128"
   enable-background="new 0 0 960 960"
   xml:space="preserve"
   sodipodi:docname="TargetNextSystemInRoute.svg"
   inkscape:version="0.92.2 5c3e80d, 2017-08-06"
   inkscape:export-filename="TargetNextSystemInRoute.png"
   inkscape:export-xdpi="96"
   inkscape:export-ydpi="96"><metadata
     id="metadata47"><rdf:RDF><cc:Work
         rdf:about=""><dc:format>image/svg+xml</dc:format><dc:type
           rdf:resource="http://purl.org/dc/dcmitype/StillImage" /><dc:title></dc:title></cc:Work></rdf:RDF></metadata><defs
     id="defs45" /><sodipodi:namedview
     pagecolor="#000000"
     bordercolor="#666666"
     borderopacity="1"
     objecttolerance="10"
     gridtolerance="10"
     guidetolerance="10"
     inkscape:pageopacity="0"
     inkscape:pageshadow="2"
     inkscape:window-width="1301"
     inkscape:window-height="853"
     id="namedview43"
     showgrid="false"
     inkscape:pagecheckerboard="true"
     inkscape:zoom="3.828125"
     inkscape:cx="-18.155101"
     inkscape:cy="43.102041"
     inkscape:window-x="141"
     inkscape:window-y="0"
     inkscape:window-maximized="0"
     inkscape:current-layer="Layer_2"
     fit-margin-top="0"
     fit-margin-left="0"
     fit-margin-right="0"
     fit-margin-bottom="0"
     showguides="true"
     inkscape:snap-object-midpoints="true"
     inkscape:lockguides="false"
     inkscape:guide-bbox="true"><sodipodi:guide
       position="68.702041,129.30612"
       orientation="0,1"
       id="guide5394"
       inkscape:locked="false" /></sodipodi:namedview><g
     id="g12"
     transform="translate(0,-832)" /><g
     id="g14"
     transform="translate(0,-832)" /><g
     id="g16"
     transform="translate(0,-832)" /><g
     id="g18"
     transform="translate(0,-832)" /><g
     id="g20"
     transform="translate(0,-832)" /><g
     id="g22"
     transform="translate(0,-832)" /><g
     id="g24"
     transform="translate(0,-832)" /><g
     id="g26"
     transform="translate(0,-832)" /><g
     id="g28"
     transform="translate(0,-832)" /><g
     id="g30"
     transform="translate(0,-832)" /><g
     id="g32"
     transform="translate(0,-832)" /><g
     id="g34"
     transform="translate(0,-832)" /><g
     id="g36"
     transform="translate(0,-832)" /><g
     id="g38"
     transform="translate(0,-832)" /><g
     id="g40"
     transform="translate(0,-832)" /><g
     id="g894"
     transform="translate(0,-2.6171875e-6)"><g
       inkscape:label="Layer 1"
       id="layer1"
       transform="translate(0,-924.36218)"><rect
         style="opacity:1;fill:none;fill-opacity:1;fill-rule:evenodd;stroke:#ffffff;stroke-width:2;stroke-miterlimit:4;stroke-dasharray:none;stroke-opacity:1"
         id="rect4138"
         width="126"
         height="126"
         x="1"
         y="925.36218"
         ry="15.75" /></g></g><g
     id="g912"
     transform="matrix(0.58100465,0,0,0.58100465,104.13287,-166.19913)"
     style="stroke-width:1.7211566"><g
       transform="matrix(0.13333333,0,0,0.13333333,-134.23729,331.66102)"
       id="g901"
       style="stroke-width:1.7211566"><circle
         style="fill:#ffffff;stroke-width:1.7211566"
         cx="281.73901"
         cy="681.86902"
         r="157.608"
         id="circle2" /><circle
         style="fill:#ffffff;stroke-width:1.7211566"
         cx="568.73999"
         cy="217.869"
         r="89.129997"
         id="circle4" /><circle
         style="fill:#ffffff;stroke-width:1.7211566"
         cx="808.73901"
         cy="431.86899"
         r="44.564999"
         id="circle6" /><polygon
         style="fill:#ffffff;stroke-width:1.7211566"
         points="639.1,248.452 790.36,406.175 774.75,418.75 604.45,281.867 "
         id="polygon8" /><polygon
         style="fill:#ffffff;stroke-width:1.7211566"
         points="513.261,278.609 538.706,290.016 301.606,690.544 248.797,660.119 "
         id="polygon10" /></g></g><g
     id="g929"
     transform="translate(-598.37439,-581.39842)"><g
       id="g911"
       transform="translate(-6629.3732,7414.9595)" /><text
       id="text913"
       font-weight="bold"
       font-size="5px"
       y="1252.5"
       x="0"
       style="font-weight:bold;font-size:5px;font-family:'Helvetica Neue', Helvetica, Arial-Unicode, Arial, Sans-serif;fill:#000000">Created by Hector</text>
<text
       id="text915"
       font-weight="bold"
       font-size="5px"
       y="1257.5"
       x="0"
       style="font-weight:bold;font-size:5px;font-family:'Helvetica Neue', Helvetica, Arial-Unicode, Arial, Sans-serif;fill:#000000">from the Noun Project</text>
</g><path
     style="opacity:1;fill:#ffffff;fill-opacity:1;fill-rule:evenodd;stroke:#ffffff;stroke-width:0;stroke-miterlimit:4;stroke-dasharray:none;stroke-opacity:1"
     d="M 76 13.427734 L 76 15.537109 A 50 50 0 0 1 112.48633 52 L 114.53711 52 A 52.000004 51.999996 0 0 0 76 13.427734 z M 52 13.476562 A 52.000004 51.999996 0 0 0 13.464844 52 L 15.523438 52 A 50 50 0 0 1 52 15.509766 L 52 13.476562 z M 13.462891 76 A 52.000004 51.999996 0 0 0 52 114.57227 L 52 112.46289 A 50 50 0 0 1 15.513672 76 L 13.462891 76 z M 112.47656 76 A 50 50 0 0 1 76 112.49023 L 76 114.52344 A 52.000004 51.999996 0 0 0 114.53516 76 L 112.47656 76 z "
     id="path5363" /><circle
     style="opacity:1;fill:#ffffff;fill-opacity:1;fill-rule:evenodd;stroke:#ffffff;stroke-width:0;stroke-miterlimit:4;stroke-dasharray:none;stroke-opacity:1"
     id="path5392"
     cx="64"
     cy="64"
     r="1.4999999" /></svg>