<?xml version="1.0" encoding="UTF-8" standalone="no"?>
<!-- Generator: Adobe Illustrator 16.0.0, SVG Export Plug-In . SVG Version: 6.00 Build 0)  -->

<svg
   xmlns:dc="http://purl.org/dc/elements/1.1/"
   xmlns:cc="http://creativecommons.org/ns#"
   xmlns:rdf="http://www.w3.org/1999/02/22-rdf-syntax-ns#"
   xmlns:svg="http://www.w3.org/2000/svg"
   xmlns="http://www.w3.org/2000/svg"
   xmlns:sodipodi="http://sodipodi.sourceforge.net/DTD/sodipodi-0.dtd"
   xmlns:inkscape="http://www.inkscape.org/namespaces/inkscape"
   version="1.1"
   id="Layer_2"
   x="0px"
   y="0px"
   width="500"
   height="100"
   viewBox="0 0 500 100"
   enable-background="new 0 0 960 960"
   xml:space="preserve"
   sodipodi:docname="TargetMeta.svg"
   inkscape:version="0.92.3 (2405546, 2018-03-11)"
   inkscape:export-filename="TargetMeta.png"
   inkscape:export-xdpi="96"
   inkscape:export-ydpi="96"><metadata
     id="metadata47"><rdf:RDF><cc:Work
         rdf:about=""><dc:format>image/svg+xml</dc:format><dc:type
           rdf:resource="http://purl.org/dc/dcmitype/StillImage" /><dc:title></dc:title></cc:Work></rdf:RDF></metadata><defs
     id="defs45" /><sodipodi:namedview
     pagecolor="#000000"
     bordercolor="#666666"
     borderopacity="1"
     objecttolerance="10"
     gridtolerance="10"
     guidetolerance="10"
     inkscape:pageopacity="0"
     inkscape:pageshadow="2"
     inkscape:window-width="1280"
     inkscape:window-height="657"
     id="namedview43"
     showgrid="false"
     inkscape:pagecheckerboard="true"
     inkscape:zoom="1.2480469"
     inkscape:cx="128.80747"
     inkscape:cy="1.6422205"
     inkscape:window-x="-8"
     inkscape:window-y="-8"
     inkscape:window-maximized="1"
     inkscape:current-layer="layer6"
     fit-margin-top="0"
     fit-margin-left="0"
     fit-margin-right="0"
     fit-margin-bottom="0"
     showguides="true"
     scale-x="1.1"
     inkscape:guide-bbox="true"><sodipodi:guide
       position="100,0"
       orientation="1,0"
       id="guide217"
       inkscape:locked="false"
       inkscape:label=""
       inkscape:color="rgb(0,0,255)" /><sodipodi:guide
       position="200,0"
       orientation="1,0"
       id="guide219"
       inkscape:locked="false"
       inkscape:label=""
       inkscape:color="rgb(0,0,255)" /><sodipodi:guide
       position="300,0"
       orientation="1,0"
       id="guide221"
       inkscape:locked="false"
       inkscape:label=""
       inkscape:color="rgb(0,0,255)" /><sodipodi:guide
       position="400,0"
       orientation="1,0"
       id="guide223"
       inkscape:locked="false"
       inkscape:label=""
       inkscape:color="rgb(0,0,255)" /></sodipodi:namedview><g
     style="display:none"
     display="none"
     id="g1102"
     transform="translate(-30.655059,-42.151051)"><rect
       style="display:inline;fill:#000000"
       x="-362.37399"
       y="-242.37399"
       display="inline"
       width="1426.3051"
       height="362.37399"
       id="rect1100" /></g><g
     id="g12"
     transform="translate(-14,-846)" /><g
     id="g14"
     transform="translate(-14,-846)" /><g
     id="g16"
     transform="translate(-14,-846)" /><g
     id="g18"
     transform="translate(-14,-846)" /><g
     id="g20"
     transform="translate(-14,-846)" /><g
     id="g22"
     transform="translate(-14,-846)" /><g
     id="g24"
     transform="translate(-14,-846)" /><g
     id="g26"
     transform="translate(-14,-846)" /><g
     id="g28"
     transform="translate(-14,-846)" /><g
     id="g30"
     transform="translate(-14,-846)" /><g
     id="g32"
     transform="translate(-14,-846)" /><g
     id="g34"
     transform="translate(-14,-846)" /><g
     id="g36"
     transform="translate(-14,-846)" /><g
     id="g38"
     transform="translate(-14,-846)" /><g
     id="g40"
     transform="translate(-14,-846)" /><style
     id="style1606"
     type="text/css">
	.st0{fill:none;stroke:#000000;stroke-width:2;stroke-miterlimit:10;}
	.st1{fill:none;stroke:#000000;stroke-miterlimit:10;}
	.st2{fill:none;stroke:#000000;stroke-linecap:round;stroke-miterlimit:10;}
</style><g
     inkscape:groupmode="layer"
     id="layer6"
     inkscape:label="Single target"
     style="display:inline"
     transform="translate(0,-28)"><g
       id="g1180"
       transform="translate(18,46.000001)"
       style="fill:#ffffff"><g
         id="g1157"
         style="fill:#ffffff"><path
           id="path1145"
           d="m 32.000744,28.019663 c -2.163281,0 -3.916063,1.753523 -3.916063,3.916059 0,2.163281 1.752782,3.916062 3.916063,3.916062 2.162537,0 3.916061,-1.752781 3.916061,-3.916062 0,-2.162536 -1.753525,-3.916059 -3.916061,-3.916059 z m 0,5.972994 c -1.13481,0 -2.056938,-0.922123 -2.056938,-2.056935 0,-1.134067 0.922128,-2.056194 2.056938,-2.056194 1.134067,0 2.056934,0.922127 2.056934,2.056194 0,1.134812 -0.922867,2.056935 -2.056934,2.056935 z"
           inkscape:connector-curvature="0"
           style="fill:#ffffff" /><polygon
           id="polygon1147"
           points="29.844158,21.419577 29.844158,1.3194524 34.15733,1.3194524 34.15733,21.419577 32.000004,24.394178 "
           style="fill:#ffffff" /><polygon
           id="polygon1149"
           points="29.844158,42.506062 32.000744,39.605827 34.15733,42.506062 34.15733,62.680546 29.844158,62.680546 "
           style="fill:#ffffff" /><polygon
           id="polygon1151"
           points="21.356039,29.779137 24.330641,31.936462 21.356039,34.092308 1.255919,34.092308 1.255919,29.779137 "
           style="fill:#ffffff" /><polygon
           id="polygon1153"
           points="42.643959,29.779137 62.74408,29.779137 62.74408,34.092308 42.643959,34.092308 39.669361,31.936462 "
           style="fill:#ffffff" /><path
           id="path1155"
           d="m 50.821815,36.315964 c -0.804367,3.485569 -2.570652,6.686496 -5.162914,9.278755 -2.592258,2.592251 -5.791916,4.357277 -9.277481,5.16037 v 4.540256 c 9.611683,-1.790432 17.18895,-9.367698 18.979382,-18.979381 z m -37.641093,0 H 8.641736 c 1.789167,9.611683 9.365163,17.188949 18.978108,18.979381 V 50.755089 C 24.134276,49.951996 20.934621,48.18697 18.342368,45.594719 15.75011,43.00246 13.985086,39.801533 13.180722,36.315964 Z M 36.38142,8.5762806 v 4.5402584 c 3.485565,0.803092 6.685223,2.568115 9.277481,5.160368 2.592263,2.592258 4.358547,5.793188 5.162914,9.278755 h 4.538987 C 53.57037,17.943979 45.993103,10.366712 36.38142,8.5762806 Z M 8.641736,27.555662 h 4.538986 c 0.804364,-3.485567 2.569388,-6.686497 5.161647,-9.278755 2.592253,-2.592253 5.791908,-4.357276 9.277475,-5.160368 V 8.5762806 C 18.006899,10.366712 10.430903,17.943979 8.641736,27.555662 Z"
           inkscape:connector-curvature="0"
           style="fill:#ffffff" /></g></g></g><g
     inkscape:groupmode="layer"
     id="layer3"
     inkscape:label="Target"
     style="display:inline"
     transform="translate(0,-28)"><path
       style="display:inline;opacity:1;fill:#ffffff;fill-opacity:1;fill-rule:evenodd;stroke:#ffffff;stroke-width:0;stroke-miterlimit:4;stroke-dasharray:none;stroke-opacity:1"
       d="M 143,46.802734 A 32,32 0 0 0 118.81445,71 h 2.0586 A 30,30 0 0 1 143,48.863281 Z m 14,0.01367 v 2.046875 A 30,30 0 0 1 179.16211,71 h 2.02734 A 32,32 0 0 0 157,46.816406 Z M 118.81055,85 A 32,32 0 0 0 143,109.18359 v -2.04687 A 30,30 0 0 1 120.83789,85 Z m 60.3164,0 A 30,30 0 0 1 157,107.13672 v 2.06055 A 32,32 0 0 0 181.18555,85 Z"
       id="path1349"
       inkscape:connector-curvature="0" /></g><g
     inkscape:groupmode="layer"
     id="layer4"
     inkscape:label="Subsystem"
     style="display:inline"
     transform="translate(0,-28)"><g
       id="g1326"
       transform="translate(234.5,61.5)"
       style="fill:#ffffff"><g
         id="g1308"
         transform="translate(0,-1020.3622)"
         style="fill:#ffffff"><path
           id="path1306"
           transform="translate(0,1020.3622)"
           d="M 9,3 V 8 H 8.5 C 7.6776483,8 7,8.6777 7,9.5 V 10 H 2 v 1 h 5 v 3 H 2 v 1 h 5 v 3 H 2 v 1 h 5 v 3 H 2 v 1 h 5 v 0.5 C 7,24.3224 7.6776483,25 8.5,25 H 9 v 5 h 1 v -5 h 3 v 5 h 1 v -5 h 3 v 5 h 1 v -5 h 3 v 5 h 1 v -5 h 0.5 C 23.322352,25 24,24.3224 24,23.5 V 23 h 5 v -1 h -5 v -3 h 5 v -1 h -5 v -3 h 5 v -1 h -5 v -3 h 5 V 10 H 24 V 9.5 C 24,8.6777 23.322352,8 22.5,8 H 22 V 3 H 21 V 8 H 18 V 3 H 17 V 8 H 14 V 3 H 13 V 8 H 10 V 3 Z M 8.5,9 H 21 22 22.5 C 22.78565,9 23,9.2144 23,9.5 v 0.5 1 3 1 3 1 3 1 0.5 C 23,23.7857 22.78565,24 22.5,24 H 8.5 C 8.2143505,24 8,23.7857 8,23.5 V 9.5 C 8,9.2144 8.2143505,9 8.5,9 Z m 4.375,4 C 12.398979,13 12,13.3989 12,13.875 v 5.25 C 12,19.6011 12.398818,20 12.875,20 h 5.25 C 18.601181,20 19,19.6011 19,19.125 v -5.25 C 19,13.3989 18.601021,13 18.125,13 Z M 13,14 h 5 v 5 h -5 z"
           style="color:#000000;font-style:normal;font-variant:normal;font-weight:normal;font-stretch:normal;font-size:medium;line-height:normal;font-family:sans-serif;text-indent:0;text-align:start;text-decoration:none;text-decoration-line:none;text-decoration-style:solid;text-decoration-color:#000000;letter-spacing:normal;word-spacing:normal;text-transform:none;writing-mode:lr-tb;direction:ltr;baseline-shift:baseline;text-anchor:start;white-space:normal;clip-rule:nonzero;display:inline;overflow:visible;visibility:visible;opacity:1;isolation:auto;mix-blend-mode:normal;color-interpolation:sRGB;color-interpolation-filters:linearRGB;solid-color:#000000;solid-opacity:1;fill:#ffffff;fill-opacity:1;fill-rule:nonzero;stroke:none;stroke-width:0.99999994;stroke-linecap:round;stroke-linejoin:round;stroke-miterlimit:4;stroke-dasharray:none;stroke-dashoffset:1.39999998;stroke-opacity:1;color-rendering:auto;image-rendering:auto;shape-rendering:auto;text-rendering:auto;enable-background:accumulate"
           inkscape:connector-curvature="0" /></g></g></g><g
     inkscape:groupmode="layer"
     id="layer5"
     inkscape:label="Hostile"
     style="display:inline"
     transform="translate(0,-28)"><g
       id="g1304"
       transform="matrix(0.383036,0,0,0.383036,331.05332,58.8482)"
       style="fill:#ffffff;stroke-width:2.61072063"><g
         id="g1283"
         style="fill:#ffffff;stroke-width:2.61072063"><path
           id="path1275"
           d="M 94.716,45.251 C 94.716,20.299 74.415,0 49.463,0 24.512,0 4.213,20.299 4.213,45.251 v 18.996 c 0,9.24 7.519,16.759 16.759,16.759 3.851,0 6.984,3.133 6.984,6.984 v 9.496 c 0,1.389 1.125,2.514 2.513,2.514 h 37.989 c 1.389,0 2.514,-1.125 2.514,-2.514 V 87.99 c 0,-3.852 3.133,-6.984 6.984,-6.984 9.241,0 16.76,-7.519 16.76,-16.761 z M 77.957,75.979 c -6.623,0 -12.012,5.391 -12.012,12.012 v 6.982 h -4.47 V 87.99 c 0,-1.388 -1.125,-2.513 -2.514,-2.513 -1.389,0 -2.514,1.125 -2.514,2.513 v 6.982 H 51.976 V 87.99 c 0,-1.388 -1.125,-2.513 -2.513,-2.513 -1.388,0 -2.513,1.125 -2.513,2.513 v 6.982 H 42.48 V 87.99 c 0,-1.388 -1.125,-2.513 -2.513,-2.513 -1.388,0 -2.513,1.125 -2.513,2.513 v 6.982 H 32.982 V 87.99 c 0,-6.621 -5.388,-12.012 -12.01,-12.012 -6.47,0 -11.733,-5.262 -11.733,-11.731 L 9.238,45.251 c 0,-22.181 18.045,-40.226 40.225,-40.226 22.182,0 40.226,18.045 40.226,40.226 l 0.002,18.994 c -0.001,6.47 -5.264,11.734 -11.734,11.734 z"
           inkscape:connector-curvature="0"
           style="fill:#ffffff;stroke-width:2.61072063" /><path
           id="path1277"
           d="m 51.848,62.034 c -0.342,-1.026 -1.302,-1.719 -2.383,-1.719 -1.081,0 -2.042,0.692 -2.384,1.719 L 42.332,76.28 c -0.255,0.767 -0.127,1.609 0.345,2.265 0.473,0.654 1.231,1.044 2.039,1.044 h 9.497 c 0.808,0 1.566,-0.39 2.039,-1.044 0.472,-0.655 0.6,-1.498 0.345,-2.265 z"
           inkscape:connector-curvature="0"
           style="fill:#ffffff;stroke-width:2.61072063" /><path
           id="path1279"
           d="m 29.052,43.234 c -6.623,0 -12.011,5.389 -12.011,12.013 0,6.622 5.388,12.01 12.011,12.01 6.623,0 12.01,-5.388 12.01,-12.01 0.001,-6.624 -5.387,-12.013 -12.01,-12.013 z"
           inkscape:connector-curvature="0"
           style="fill:#ffffff;stroke-width:2.61072063" /><path
           id="path1281"
           d="m 69.876,43.234 c -6.622,0 -12.011,5.389 -12.011,12.013 0,6.622 5.389,12.01 12.011,12.01 6.623,0 12.012,-5.388 12.012,-12.01 0,-6.624 -5.389,-12.013 -12.012,-12.013 z"
           inkscape:connector-curvature="0"
           style="fill:#ffffff;stroke-width:2.61072063" /></g></g></g><g
     inkscape:groupmode="layer"
     id="layer9"
     inkscape:label="Highest threat"
     style="display:inline"
     transform="translate(0,-28)"><g
       id="g231"
       transform="translate(400)"><g
         transform="matrix(0.49456009,0,0,0.48716043,25.271996,53.641005)"
         id="g1211"
         style="stroke:#ffffff;stroke-width:2.03729773"><circle
           style="fill:none;stroke:#ffffff;stroke-width:4.07459545;stroke-linecap:round;stroke-linejoin:round;stroke-miterlimit:10"
           stroke-miterlimit="10"
           cx="50"
           cy="50.001999"
           r="25"
           id="circle1182" /><path
           style="fill:none;stroke:#ffffff;stroke-width:4.07459545;stroke-linecap:round;stroke-linejoin:round;stroke-miterlimit:10"
           inkscape:connector-curvature="0"
           stroke-miterlimit="10"
           d="M 22.979,68.055 C 19.522,62.891 17.5,56.682 17.5,50.002 c 0,-6.684 2.022,-12.89 5.479,-18.056 L 16.742,27.778 C 12.486,34.135 10,41.778 10,50.002 c 0,8.224 2.485,15.865 6.741,22.222 z"
           id="path1184" /><path
           style="fill:none;stroke:#ffffff;stroke-width:4.07459545;stroke-linecap:round;stroke-linejoin:round;stroke-miterlimit:10"
           inkscape:connector-curvature="0"
           stroke-miterlimit="10"
           d="m 77.021,31.946 c 3.457,5.166 5.479,11.372 5.479,18.056 0,6.684 -2.023,12.893 -5.48,18.057 l 6.238,4.168 C 87.514,65.871 90,58.226 90,50.002 90,41.778 87.516,34.135 83.26,27.777 Z"
           id="path1186" /><polygon
           style="fill:none;stroke:#ffffff;stroke-width:4.07459545;stroke-linecap:round;stroke-linejoin:round;stroke-miterlimit:10"
           stroke-miterlimit="10"
           points="53.75,52.5 46.249,52.5 45,32.5 55,32.5 "
           id="polygon1188" /><rect
           style="fill:none;stroke:#ffffff;stroke-width:4.07459545;stroke-linecap:round;stroke-linejoin:round;stroke-miterlimit:10"
           x="46.249001"
           y="59.999001"
           stroke-miterlimit="10"
           width="7.5009999"
           height="7.5009999"
           id="rect1190" /></g></g></g></svg>