<?xml version="1.0" encoding="UTF-8" standalone="no"?>
<svg
   xmlns:dc="http://purl.org/dc/elements/1.1/"
   xmlns:cc="http://creativecommons.org/ns#"
   xmlns:rdf="http://www.w3.org/1999/02/22-rdf-syntax-ns#"
   xmlns:svg="http://www.w3.org/2000/svg"
   xmlns="http://www.w3.org/2000/svg"
   xmlns:sodipodi="http://sodipodi.sourceforge.net/DTD/sodipodi-0.dtd"
   xmlns:inkscape="http://www.inkscape.org/namespaces/inkscape"
   version="1.1"
   x="0px"
   y="0px"
   viewBox="0 0 100 100"
   id="svg14"
   sodipodi:docname="Throttle.svg"
   width="100"
   height="100"
   inkscape:version="0.92.3 (2405546, 2018-03-11)"
   inkscape:export-filename="Throttle.png"
   inkscape:export-xdpi="192"
   inkscape:export-ydpi="192">
  <metadata
     id="metadata20">
    <rdf:RDF>
      <cc:Work
         rdf:about="">
        <dc:format>image/svg+xml</dc:format>
        <dc:type
           rdf:resource="http://purl.org/dc/dcmitype/StillImage" />
        <dc:title></dc:title>
      </cc:Work>
    </rdf:RDF>
  </metadata>
  <defs
     id="defs18" />
  <sodipodi:namedview
     pagecolor="#000000"
     bordercolor="#666666"
     borderopacity="1"
     objecttolerance="10"
     gridtolerance="10"
     guidetolerance="10"
     inkscape:pageopacity="0"
     inkscape:pageshadow="2"
     inkscape:window-width="2560"
     inkscape:window-height="1377"
     id="namedview16"
     showgrid="false"
     inkscape:pagecheckerboard="true"
     inkscape:zoom="1.888"
     inkscape:cx="50"
     inkscape:cy="62.5"
     inkscape:window-x="-8"
     inkscape:window-y="-8"
     inkscape:window-maximized="1"
     inkscape:current-layer="svg14" />
  <g
     transform="translate(0,-977.36218)"
     id="g8">
    <path
       d="m 38.339001,1025.1382 c -1.789143,0.01 -3.52511,0.2986 -5.010813,0.9075 l -24.7200095,10.1349 c -4.3220476,1.7713 -4.8317574,5.5073 -1.1474035,8.3779 l 31.967533,24.9089 c 3.684354,2.8706 10.129394,3.7533 14.451486,1.9819 l 24.72001,-10.1276 c 4.322022,-1.7714 4.831759,-5.5073 1.14738,-8.378 l -18.750583,-14.6142 -4.458921,10.084 16.099971,12.538 -14.211838,5.8297 -40.544,-31.588 14.204565,-5.8225 8.736243,6.8026 4.284608,-9.692 c -2.058478,-0.8868 -4.457549,-1.354 -6.768228,-1.3431 z"
       style="color:#000000;display:inline;overflow:visible;visibility:visible;fill:#ffffff;fill-opacity:1;fill-rule:nonzero;stroke:none;enable-background:accumulate"
       marker="none"
       visibility="visible"
       display="inline"
       overflow="visible"
       id="path2"
       inkscape:connector-curvature="0" />
    <path
       d="m 51.483295,1017.675 -10.943894,25.2355 c -0.861411,1.9857 1.40007,4.6684 5.068909,6.0112 3.66884,1.3428 7.315659,0.8241 8.177066,-1.1616 l 12.381802,-28.5533 c -0.418596,0.041 -0.835542,0.08 -1.256345,0.1089 -5.127355,0.3482 -9.716132,-0.2777 -13.427538,-1.6407 z"
       style="color:#000000;display:inline;overflow:visible;visibility:visible;fill:#ffffff;fill-opacity:1;fill-rule:nonzero;stroke:none;enable-background:accumulate"
       marker="none"
       visibility="visible"
       display="inline"
       overflow="visible"
       id="path4"
       inkscape:connector-curvature="0" />
    <path
       d="m 74.591154,982.36267 c -0.873956,0.002 -1.770058,0.0326 -2.679708,0.0944 -12.755106,0.86606 -24.598876,7.4457 -28.634253,15.39107 -1.068118,0.2818 -1.888132,0.53723 -1.888132,0.53723 -0.918674,0 -1.78926,0.23838 -2.585289,0.66792 -0.160748,0.0868 -0.318031,0.18102 -0.472033,0.28312 -0.07805,0.0516 -0.156184,0.10434 -0.232386,0.15974 -0.145819,0.10627 -0.289812,0.22161 -0.428461,0.34121 -1.061925,0.91524 -1.905961,2.20834 -2.410999,3.73164 -6.97e-4,0 6.97e-4,0 0,0.01 -0.125305,0.3788 -0.230687,0.7716 -0.312268,1.1761 -4.65e-4,0 4.64e-4,0 0,0.01 -0.108585,0.5403 -0.180441,1.1008 -0.203338,1.6771 -9.7e-5,0 9.6e-5,0 0,0.01 -0.0056,0.1423 -0.0072,0.2914 -0.0072,0.4356 0,0.293 0.01359,0.5785 0.03631,0.8639 6.97e-4,0.01 -6.97e-4,0.015 0,0.022 0.235713,2.8878 1.602847,5.3473 3.529355,6.6356 1.04408,0.7812 2.23511,1.2342 3.463997,1.2342 2.610549,-0.4523 4.829894,-0.8653 6.978827,-1.9675 4.072731,2.1917 9.691604,3.3 16.16533,2.8604 14.554305,-0.9882 27.91961,-9.4179 29.854265,-18.82497 1.813746,-8.81916 -7.064752,-15.37028 -20.173944,-15.34024 z"
       style="color:#000000;display:inline;overflow:visible;visibility:visible;fill:#ffffff;fill-opacity:1;fill-rule:nonzero;stroke:none;enable-background:accumulate"
       marker="none"
       visibility="visible"
       display="inline"
       overflow="visible"
       id="path6"
       inkscape:connector-curvature="0" />
  </g>
</svg>
