<?xml version="1.0" encoding="UTF-8" standalone="no"?>
<svg
   xmlns:dc="http://purl.org/dc/elements/1.1/"
   xmlns:cc="http://creativecommons.org/ns#"
   xmlns:rdf="http://www.w3.org/1999/02/22-rdf-syntax-ns#"
   xmlns:svg="http://www.w3.org/2000/svg"
   xmlns="http://www.w3.org/2000/svg"
   xmlns:sodipodi="http://sodipodi.sourceforge.net/DTD/sodipodi-0.dtd"
   xmlns:inkscape="http://www.inkscape.org/namespaces/inkscape"
   version="1.1"
   x="0px"
   y="0px"
   viewBox="0 0 100 100"
   enable-background="new 0 0 100 100"
   xml:space="preserve"
   id="svg8"
   sodipodi:docname="Trash.svg"
   width="100"
   height="100"
   inkscape:export-filename="C:\Users\danie\OneDrive\Documents\Elite VR Cockpit Unity\Assets\Textures\Icons\Trash.png"
   inkscape:export-xdpi="122.88"
   inkscape:export-ydpi="122.88"
   inkscape:version="0.92.3 (2405546, 2018-03-11)"><metadata
     id="metadata14"><rdf:RDF><cc:Work
         rdf:about=""><dc:format>image/svg+xml</dc:format><dc:type
           rdf:resource="http://purl.org/dc/dcmitype/StillImage" /><dc:title></dc:title></cc:Work></rdf:RDF></metadata><defs
     id="defs12" /><sodipodi:namedview
     pagecolor="#000000"
     bordercolor="#666666"
     borderopacity="1"
     objecttolerance="10"
     gridtolerance="10"
     guidetolerance="10"
     inkscape:pageopacity="0"
     inkscape:pageshadow="2"
     inkscape:window-width="1280"
     inkscape:window-height="657"
     id="namedview10"
     showgrid="false"
     inkscape:pagecheckerboard="true"
     inkscape:zoom="1.888"
     inkscape:cx="50"
     inkscape:cy="62.5"
     inkscape:window-x="-8"
     inkscape:window-y="-8"
     inkscape:window-maximized="1"
     inkscape:current-layer="svg8" /><path
     d="M 59.835,72.094 V 34.495 c 0,-1.657 -1.343,-3 -3,-3 -1.657,0 -3,1.343 -3,3 v 37.599 c 0,1.658 1.343,3 3,3 1.657,0 3,-1.342 3,-3 z m -13.671,0 V 34.495 c 0,-1.657 -1.343,-3 -3,-3 -1.657,0 -3,1.343 -3,3 v 37.599 c 0,1.658 1.343,3 3,3 1.657,0 3,-1.342 3,-3 z M 73.27,31.495 c -1.657,0 -3,1.343 -3,3 v 45.412 c 0,1.217 -0.989,2.209 -2.205,2.209 H 31.938 c -1.218,0 -2.209,-0.992 -2.209,-2.209 V 34.495 c 0,-1.657 -1.343,-3 -3,-3 -1.657,0 -3,1.343 -3,3 v 45.412 c 0,4.525 3.683,8.209 8.209,8.209 h 36.126 c 4.524,0 8.205,-3.684 8.205,-8.209 V 34.495 c 10e-4,-1.658 -1.342,-3 -2.999,-3 z m 6.66,-9.347 H 66.348 v -7.263 c 0,-1.657 -1.343,-3 -3,-3 H 36.652 c -1.657,0 -3,1.343 -3,3 v 7.263 H 20.07 c -1.657,0 -3,1.343 -3,3 0,1.657 1.343,3 3,3 h 59.86 c 1.657,0 3,-1.343 3,-3 0,-1.657 -1.343,-3 -3,-3 z m -19.582,0 H 39.652 v -4.263 h 20.695 v 4.263 z"
     id="path2"
     inkscape:connector-curvature="0"
     style="fill:#ffffff" /></svg>