<?xml version="1.0" encoding="UTF-8" standalone="no"?>
<svg
   xmlns:dc="http://purl.org/dc/elements/1.1/"
   xmlns:cc="http://creativecommons.org/ns#"
   xmlns:rdf="http://www.w3.org/1999/02/22-rdf-syntax-ns#"
   xmlns:svg="http://www.w3.org/2000/svg"
   xmlns="http://www.w3.org/2000/svg"
   xmlns:sodipodi="http://sodipodi.sourceforge.net/DTD/sodipodi-0.dtd"
   xmlns:inkscape="http://www.inkscape.org/namespaces/inkscape"
   version="1.1"
   x="0px"
   y="0px"
   viewBox="0 0 52 52"
   enable-background="new 0 0 52 52"
   xml:space="preserve"
   id="svg10"
   sodipodi:docname="Warning.svg"
   width="52"
   height="52"
   inkscape:export-filename="C:\Users\danie\OneDrive\Documents\Elite VR Cockpit Unity\Assets\Textures\Icons\Warning.png"
   inkscape:export-xdpi="118.15385"
   inkscape:export-ydpi="118.15385"
   inkscape:version="0.92.3 (2405546, 2018-03-11)"><metadata
     id="metadata16"><rdf:RDF><cc:Work
         rdf:about=""><dc:format>image/svg+xml</dc:format><dc:type
           rdf:resource="http://purl.org/dc/dcmitype/StillImage" /><dc:title></dc:title></cc:Work></rdf:RDF></metadata><defs
     id="defs14" /><sodipodi:namedview
     pagecolor="#000000"
     bordercolor="#666666"
     borderopacity="1"
     objecttolerance="10"
     gridtolerance="10"
     guidetolerance="10"
     inkscape:pageopacity="0"
     inkscape:pageshadow="2"
     inkscape:window-width="1280"
     inkscape:window-height="657"
     id="namedview12"
     showgrid="false"
     inkscape:pagecheckerboard="true"
     inkscape:zoom="3.6307692"
     inkscape:cx="19.665254"
     inkscape:cy="32.5"
     inkscape:window-x="-8"
     inkscape:window-y="-8"
     inkscape:window-maximized="1"
     inkscape:current-layer="svg10" /><g
     id="g4"
     transform="translate(1.0147686e-6)"
     style="fill:#ffffff"><path
       d="m 49.465671,41.259949 -20.25,-34.4099734 C 28.525669,5.6900024 27.325657,5 25.99564,5 24.675632,5 23.465671,5.6900024 22.785679,6.8499756 L 2.5356789,41.259949 C 1.8256569,42.459961 1.8156472,43.899963 2.5056496,45.109985 3.1856432,46.289978 4.3956652,47 5.7456408,47 H 46.255651 c 1.349975,0 2.559997,-0.710022 3.22998,-1.890015 0.700011,-1.210022 0.690001,-2.650024 -0.01996,-3.850036 z M 23.936375,19.855286 h 3.380859 v 3.187011 l -0.724609,8.918946 h -1.931641 l -0.724609,-8.918946 z m 2.970214,17.343261 c -0.354003,0.362305 -0.776855,0.543946 -1.267578,0.543946 -0.491211,0 -0.914062,-0.181641 -1.268066,-0.543946 -0.354492,-0.362304 -0.53125,-0.793945 -0.53125,-1.296875 0,-0.501953 0.176758,-0.93457 0.53125,-1.296875 0.354004,-0.362304 0.776855,-0.543945 1.268066,-0.543945 0.490723,0 0.913575,0.181641 1.267578,0.543945 0.354004,0.362305 0.53125,0.794922 0.53125,1.296875 0,0.50293 -0.177246,0.934571 -0.53125,1.296875 z"
       id="path2"
       inkscape:connector-curvature="0"
       style="fill:#ffffff" /></g></svg>